<?xml version="1.0" encoding="utf-8"?>
<!-- Generator: Adobe Illustrator 16.0.0, SVG Export Plug-In . SVG Version: 6.00 Build 0)  -->
<!DOCTYPE svg PUBLIC "-//W3C//DTD SVG 1.1//EN" "http://www.w3.org/Graphics/SVG/1.1/DTD/svg11.dtd">
<svg version="1.1" id="Calque_1" xmlns="http://www.w3.org/2000/svg" xmlns:xlink="http://www.w3.org/1999/xlink" x="0px" y="0px"
	 width="512px" height="47.199px" viewBox="0 233.037 512 47.199" enable-background="new 0 233.037 512 47.199"
	 xml:space="preserve">
<g>
	<g>
		<g>
			<g>
				<defs>
					<rect id="SVGID_1_" x="287.336" y="234.396" width="46.8" height="45.84"/>
				</defs>
				<clipPath id="SVGID_2_">
					<use xlink:href="#SVGID_1_"  overflow="visible"/>
				</clipPath>
				<path clip-path="url(#SVGID_2_)" fill="#393532" d="M323.948,238.643c-1.508-0.195-3.012-0.078-4.483,0.348
					c-2.117-2.79-5.41-4.438-8.931-4.438c-3.52,0-6.813,1.647-8.926,4.438c-1.477-0.426-2.979-0.54-4.487-0.348
					c-5.531,0.719-9.738,5.453-9.785,11.012c-0.043,5.203,3.444,9.714,8.488,10.968c1.194,0.298,2.077,1.32,2.194,2.552l0.672,7.043
					h-0.004l0.387,4.023c0.16,1.714,2.336,2.895,3.246,3.315c0.133,0.06,0.238,0.104,0.306,0.133
					c2.516,1.059,5.215,1.586,7.909,1.586c2.695,0,5.392-0.527,7.902-1.586c0.563-0.229,3.371-1.488,3.559-3.448l0.384-4.023
					l0.672-7.043c0.112-1.229,1-2.254,2.194-2.552c5.043-1.257,8.535-5.765,8.488-10.968
					C333.688,244.096,329.48,239.361,323.948,238.643L323.948,238.643z M317.82,276.217c-4.629,1.948-9.94,1.948-14.574-0.004
					c-1-0.414-2.508-1.379-2.582-2.125l-0.098-1.039c3.164,1.53,6.512,2.305,9.969,2.305s6.806-0.773,9.97-2.305l-0.103,1.039
					C320.331,274.834,318.823,275.799,317.82,276.217L317.82,276.217z M324.863,259.068c-1.854,0.461-3.223,2.05-3.406,3.953
					l-0.772,8.129c-3.203,1.722-6.613,2.602-10.148,2.602s-6.944-0.88-10.147-2.602l-0.773-8.129
					c-0.184-1.903-1.551-3.492-3.401-3.953c-4.32-1.075-7.313-4.941-7.273-9.398c0.039-4.77,3.646-8.824,8.392-9.438
					c0.401-0.055,0.805-0.082,1.21-0.082c1.048,0,2.095,0.179,3.121,0.531l0.578,0.199l0.344-0.509
					c1.793-2.64,4.767-4.218,7.953-4.218c3.188,0,6.16,1.578,7.953,4.223l0.344,0.504l0.578-0.199
					c1.422-0.488,2.879-0.637,4.336-0.449c4.742,0.613,8.349,4.668,8.392,9.438C332.172,254.127,329.184,257.993,324.863,259.068
					L324.863,259.068z"/>
			</g>
		</g>
		<path fill="#FF594F" d="M302.438,261.76c-0.441,0.055-0.75,0.453-0.695,0.891l0.802,6.402c0.051,0.401,0.395,0.699,0.793,0.699
			c0.03,0,0.065,0,0.098-0.005c0.44-0.054,0.75-0.456,0.695-0.894l-0.802-6.399C303.273,262.014,302.87,261.709,302.438,261.76
			L302.438,261.76z"/>
		<path fill="#FF594F" d="M308.137,263.354c-0.441,0-0.801,0.355-0.801,0.801v6.398c0,0.44,0.358,0.801,0.801,0.801
			c0.441,0,0.801-0.359,0.801-0.801v-6.398C308.938,263.709,308.577,263.354,308.137,263.354L308.137,263.354z"/>
		<path fill="#FF594F" d="M318.633,261.76c-0.435-0.051-0.836,0.254-0.892,0.694l-0.801,6.399c-0.055,0.438,0.258,0.84,0.695,0.894
			c0.035,0.005,0.065,0.005,0.102,0.005c0.396,0,0.742-0.298,0.789-0.699l0.801-6.402
			C319.383,262.213,319.073,261.814,318.633,261.76L318.633,261.76z"/>
		<path fill="#FF594F" d="M312.938,263.354c-0.445,0-0.801,0.355-0.801,0.801v6.398c0,0.44,0.354,0.801,0.801,0.801
			c0.441,0,0.797-0.359,0.797-0.801v-6.398C313.734,263.709,313.379,263.354,312.938,263.354L312.938,263.354z"/>
		<path fill="#FF594F" d="M300.145,242.553c-6.68-0.06-7.979,5.375-7.988,5.43c-0.098,0.429,0.177,0.855,0.609,0.949
			c0.055,0.016,0.113,0.019,0.172,0.019c0.367,0,0.699-0.253,0.781-0.628c0.008-0.043,0.969-4.262,6.41-4.172
			c0.426-0.028,0.801-0.348,0.809-0.789C300.941,242.92,300.586,242.557,300.145,242.553L300.145,242.553z"/>
		<path fill="#FF594F" d="M306.047,239.518c-0.353,0.272-0.414,0.772-0.146,1.125c0.271,0.348,0.773,0.41,1.121,0.144
			c0.035-0.026,3.379-2.546,7.055,0.021c0.142,0.098,0.302,0.144,0.457,0.144c0.254,0,0.5-0.116,0.656-0.339
			c0.254-0.364,0.164-0.864-0.195-1.114C311.288,236.911,307.523,238.381,306.047,239.518L306.047,239.518z"/>
	</g>
	<g>
		<g>
			<g>
				<defs>
					<rect id="SVGID_3_" x="349.646" y="236.316" width="45.84" height="43.92"/>
				</defs>
				<clipPath id="SVGID_4_">
					<use xlink:href="#SVGID_3_"  overflow="visible"/>
				</clipPath>
				<path clip-path="url(#SVGID_4_)" fill="#393532" d="M392.079,260.168h-1.141c1.594-5.313,1.211-10.633-1.078-14.848
					c0.685-0.739,1.055-1.691,1.055-2.711c0-1.071-0.413-2.074-1.168-2.828c-1.469-1.469-3.809-1.551-5.375-0.254
					c-7.745-4.782-18.93-2.59-26.866,5.348c-7.941,7.938-10.129,19.125-5.349,26.867c-1.301,1.57-1.215,3.906,0.254,5.375
					c1.521,1.52,3.974,1.559,5.539,0.113c2.504,1.358,5.396,2.047,8.449,2.047c2.32,0,4.73-0.407,7.125-1.207
					c1.332,0.32,2.723,0.496,4.152,0.496c9.707,0,17.602-7.896,17.602-17.599v-0.801L392.079,260.168L392.079,260.168z
					 M368.084,269.43c-1.828-2.07-3-4.734-3.181-7.664h10.844L368.084,269.43z M376.877,262.898v10.828
					c-2.927-0.181-5.582-1.349-7.652-3.177L376.877,262.898z M378.479,262.898l7.656,7.651c-2.07,1.828-4.73,2.996-7.656,3.177
					V262.898z M387.271,269.43l-7.66-7.664h10.844C390.271,264.695,389.104,267.359,387.271,269.43L387.271,269.43z
					 M358.232,275.547l-0.535-0.316l-0.758,0.754c-0.938,0.938-2.461,0.938-3.395,0c-0.938-0.934-0.938-2.457,0-3.391l0.655-0.66
					l-0.367-0.547c-4.727-7.008-2.659-17.918,4.802-25.383c7.465-7.466,18.379-9.527,25.383-4.801l0.547,0.367l0.66-0.657
					c0.938-0.937,2.457-0.933,3.395,0c0.449,0.45,0.699,1.056,0.699,1.696c0,0.645-0.25,1.246-0.699,1.699l-0.758,0.758l0.316,0.535
					c2.401,4.019,2.789,9.301,1.09,14.566h-29.188v0.801c0,0.398,0.017,0.794,0.043,1.188c0.009,0.098,0.017,0.195,0.023,0.293
					c0.031,0.375,0.07,0.75,0.125,1.117c0.004,0.015,0.004,0.035,0.008,0.051c0.06,0.387,0.133,0.77,0.219,1.148
					c0.021,0.09,0.039,0.18,0.063,0.27c0.078,0.339,0.168,0.68,0.27,1.016c0.013,0.035,0.021,0.073,0.031,0.112
					c0.113,0.356,0.238,0.707,0.367,1.052c0.039,0.105,0.082,0.203,0.121,0.305c0.113,0.281,0.229,0.56,0.359,0.828
					c0.034,0.078,0.065,0.156,0.102,0.23c0.152,0.309,0.313,0.613,0.479,0.914c0.066,0.125,0.142,0.25,0.212,0.371
					c0.125,0.207,0.25,0.414,0.383,0.617c0.09,0.137,0.18,0.276,0.272,0.414c0.16,0.237,0.328,0.469,0.504,0.698
					c0.099,0.13,0.199,0.259,0.302,0.388c0.141,0.172,0.28,0.34,0.426,0.504c0.117,0.136,0.233,0.27,0.354,0.402
					c0.199,0.215,0.398,0.422,0.609,0.625c0.102,0.098,0.203,0.193,0.305,0.293c0.215,0.202,0.435,0.397,0.656,0.586
					c0.055,0.043,0.105,0.09,0.156,0.137c0.297,0.242,0.602,0.477,0.914,0.699c0.047,0.035,0.094,0.069,0.145,0.104
					c1.021,0.725,2.121,1.345,3.289,1.841C366.229,278.203,361.743,277.645,358.232,275.547L358.232,275.547z M377.678,276.969
					c-1.367,0-2.685-0.191-3.953-0.516c-0.414-0.105-0.824-0.227-1.228-0.363c-0.022-0.009-0.047-0.02-0.069-0.027
					c-0.392-0.133-0.771-0.28-1.146-0.444c-0.03-0.013-0.065-0.031-0.098-0.048c-0.93-0.409-1.797-0.909-2.617-1.477
					c-0.233-0.16-0.469-0.324-0.695-0.496c-0.129-0.103-0.25-0.211-0.375-0.313c-0.241-0.204-0.483-0.406-0.715-0.622
					c-0.108-0.101-0.215-0.207-0.319-0.312c-0.238-0.234-0.47-0.474-0.691-0.724c-0.09-0.099-0.18-0.194-0.266-0.298
					c-0.238-0.28-0.465-0.569-0.685-0.866c-0.063-0.078-0.125-0.155-0.18-0.237c-0.547-0.767-1.027-1.582-1.434-2.441
					c-0.052-0.113-0.099-0.227-0.148-0.34c-0.137-0.313-0.271-0.629-0.387-0.95c-0.06-0.155-0.113-0.315-0.168-0.479
					c-0.095-0.285-0.185-0.578-0.263-0.875c-0.047-0.172-0.094-0.344-0.133-0.521c-0.074-0.308-0.137-0.625-0.188-0.944
					c-0.027-0.156-0.06-0.309-0.082-0.465c-0.066-0.477-0.117-0.957-0.146-1.445h1.621c0.422,7.57,6.691,13.603,14.359,13.603
					c7.672,0,13.94-6.031,14.358-13.603h1.621C393.24,270.219,386.232,276.969,377.678,276.969L377.678,276.969z"/>
			</g>
		</g>
		<path fill="#FF594F" d="M373.568,245.234c0.121-0.016,0.242-0.031,0.353-0.047h0.112c0.103,0,0.207,0.012,0.302,0.019l0.141,0.024
			c0.086,0.012,0.16,0.02,0.229,0.02c0.148,0.02,0.293,0.031,0.435,0.031c1.113,0,2.031-0.602,2.397-1.629
			c0.242-0.664,0.168-1.484-0.194-2.145c-0.316-0.582-0.816-0.977-1.414-1.109c-1.121-0.254-2.133-0.301-3.185-0.141
			c-0.647,0.098-1.223,0.457-1.621,1.008c-0.397,0.555-0.565,1.25-0.452,1.91C370.9,244.516,372.2,245.441,373.568,245.234
			L373.568,245.234z M372.424,242.199c0.141-0.195,0.34-0.324,0.563-0.359c0.849-0.129,1.672-0.091,2.59,0.116
			c0.181,0.044,0.297,0.196,0.363,0.317c0.141,0.258,0.18,0.601,0.094,0.836c-0.246,0.679-0.973,0.594-1.272,0.527l-0.004,0.016
			l-0.021-0.004c-0.102-0.016-0.207-0.031-0.25-0.035c-0.145-0.012-0.289-0.023-0.422-0.027h-0.109l-0.194,0.012
			c-0.146,0.016-0.289,0.031-0.435,0.055c-0.508,0.078-0.991-0.258-1.078-0.75C372.204,242.668,372.271,242.41,372.424,242.199
			L372.424,242.199z"/>
	</g>
	<g>
		<g>
			<g>
				<defs>
					<rect id="SVGID_5_" x="56.152" y="239.437" width="48" height="40.799"/>
				</defs>
				<clipPath id="SVGID_6_">
					<use xlink:href="#SVGID_5_"  overflow="visible"/>
				</clipPath>
				<path clip-path="url(#SVGID_6_)" fill="#393532" d="M100.953,259.277H88.922c0.047-0.305,0.004-0.62-0.152-0.898
					c-0.246-0.434-0.707-0.703-1.207-0.703H57.539c-0.496,0-0.961,0.271-1.207,0.703c-0.246,0.438-0.238,0.975,0.016,1.403
					l1.305,2.187c0.285,0.479,0.435,1.021,0.435,1.574v0.371c0,2.734,2.215,4.961,4.938,4.961h19.052c2.672,0,4.848-2.141,4.93-4.8
					h13.945c1.323,0,2.401-1.075,2.401-2.399C103.352,260.354,102.273,259.277,100.953,259.277L100.953,259.277z M82.078,267.277
					H63.027c-0.815,0-1.559-0.31-2.137-0.801h8.859c0.44,0,0.801-0.359,0.801-0.802c0-0.44-0.359-0.801-0.801-0.801h-9.906
					c-0.078-0.254-0.125-0.522-0.141-0.8h7.077c0.441,0,0.798-0.355,0.798-0.797c0-0.446-0.355-0.801-0.798-0.801h-7.227
					c-0.109-0.467-0.281-0.914-0.527-1.328l-1.116-1.871h29.28l-1.116,1.871c-0.099,0.164-0.185,0.336-0.259,0.511
					c-0.047,0.106-0.082,0.211-0.121,0.321c-0.022,0.064-0.047,0.129-0.065,0.193c-0.047,0.143-0.078,0.289-0.109,0.436
					c-0.004,0.031-0.012,0.062-0.02,0.093c-0.027,0.161-0.047,0.321-0.06,0.485c-0.004,0.012-0.004,0.019-0.004,0.029l-0.063,0.856
					h0.022C85.313,265.854,83.863,267.277,82.078,267.277L82.078,267.277z M100.953,262.479H87.215c0-0.01,0.004-0.021,0.008-0.027
					c0.063-0.165,0.133-0.325,0.223-0.469l0.005-0.014l0.651-1.094h12.849c0.444,0,0.801,0.359,0.801,0.801
					C101.75,262.117,101.395,262.479,100.953,262.479L100.953,262.479z"/>
			</g>
		</g>
		<path fill="#393532" d="M86.551,277.676h-3.922c1.395-1.063,2.18-1.832,2.305-2.775c0.137-1.028-0.504-1.856-1.565-3.229
			c-0.207-0.265-0.435-0.559-0.677-0.879l-0.483-0.636l-0.638,0.479c-1.461,1.103-2.272,1.883-2.401,2.853
			c-0.137,1.026,0.508,1.854,1.569,3.226c0.207,0.268,0.435,0.557,0.677,0.879l0.063,0.082H73.23
			c1.396-1.062,2.181-1.832,2.306-2.775c0.137-1.028-0.505-1.856-1.566-3.229c-0.207-0.265-0.434-0.558-0.676-0.879l-0.484-0.636
			l-0.637,0.479c-1.461,1.103-2.273,1.883-2.402,2.853c-0.137,1.026,0.504,1.854,1.57,3.226c0.207,0.268,0.434,0.557,0.676,0.879
			l0.063,0.082H63.63c1.397-1.062,2.18-1.832,2.309-2.775c0.133-1.028-0.508-1.856-1.569-3.229
			c-0.207-0.265-0.435-0.558-0.677-0.879l-0.483-0.636l-0.638,0.479c-1.456,1.103-2.272,1.883-2.401,2.853
			c-0.133,1.026,0.508,1.854,1.57,3.226c0.206,0.268,0.434,0.557,0.676,0.879l0.063,0.082h-3.125c-0.44,0-0.801,0.359-0.801,0.803
			c0,0.439,0.359,0.801,0.801,0.801h27.199c0.441,0,0.801-0.36,0.801-0.801C87.352,278.035,86.992,277.676,86.551,277.676
			L86.551,277.676z M80.754,273.7c0.043-0.321,0.563-0.817,1.151-1.298c0.066,0.087,0.134,0.173,0.195,0.25
			c0.754,0.969,1.297,1.668,1.246,2.035c-0.039,0.319-0.559,0.815-1.152,1.297c-0.065-0.086-0.129-0.172-0.194-0.25
			C81.25,274.768,80.707,274.063,80.754,273.7L80.754,273.7z M71.355,273.7c0.043-0.321,0.56-0.817,1.152-1.298
			c0.066,0.087,0.133,0.173,0.195,0.25c0.75,0.969,1.293,1.668,1.246,2.035c-0.044,0.319-0.563,0.815-1.152,1.297
			c-0.066-0.086-0.133-0.172-0.195-0.25C71.848,274.768,71.305,274.063,71.355,273.7L71.355,273.7z M61.754,273.7
			c0.043-0.321,0.563-0.817,1.151-1.298c0.066,0.087,0.134,0.173,0.195,0.25c0.754,0.969,1.297,1.668,1.246,2.035
			c-0.039,0.319-0.559,0.815-1.152,1.297c-0.065-0.086-0.129-0.172-0.194-0.25C62.25,274.768,61.707,274.063,61.754,273.7
			L61.754,273.7z"/>
		<path fill="#FF594F" d="M63.543,250.672c0,1.492,0.586,2.899,1.645,3.957c0.156,0.156,0.359,0.235,0.563,0.235
			c0.207,0,0.41-0.079,0.565-0.235c0.313-0.312,0.313-0.815,0-1.129c-0.754-0.758-1.172-1.761-1.172-2.828
			c0-1.069,0.418-2.073,1.172-2.832c1.06-1.055,1.646-2.465,1.646-3.957c0-1.496-0.586-2.901-1.646-3.961
			c-0.313-0.312-0.815-0.312-1.129,0c-0.313,0.313-0.313,0.82,0,1.134c0.754,0.754,1.172,1.758,1.172,2.827
			c0,1.067-0.418,2.07-1.172,2.828C64.129,247.771,63.543,249.176,63.543,250.672L63.543,250.672z"/>
		<path fill="#FF594F" d="M73.336,250.672c0,1.492,0.586,2.899,1.645,3.957c0.156,0.156,0.359,0.235,0.563,0.235
			c0.207,0,0.41-0.079,0.565-0.235c0.313-0.312,0.313-0.815,0-1.129c-0.754-0.758-1.172-1.761-1.172-2.828
			c0-1.069,0.418-2.073,1.172-2.832c1.06-1.055,1.642-2.465,1.642-3.957c0-1.496-0.582-2.901-1.642-3.961
			c-0.313-0.312-0.815-0.312-1.129,0c-0.313,0.313-0.313,0.82,0,1.134c0.754,0.754,1.172,1.758,1.172,2.827
			c0,1.067-0.418,2.07-1.172,2.828C73.922,247.771,73.336,249.176,73.336,250.672L73.336,250.672z"/>
	</g>
	<g>
		<path fill="#FF594F" d="M253.309,261.037c0,0.441-0.358,0.801-0.801,0.801s-0.801-0.359-0.801-0.801s0.358-0.801,0.801-0.801
			S253.309,260.596,253.309,261.037L253.309,261.037z"/>
		<path fill="#FF594F" d="M253.309,264.236c0,0.44-0.358,0.801-0.801,0.801s-0.801-0.359-0.801-0.801
			c0-0.442,0.358-0.801,0.801-0.801S253.309,263.795,253.309,264.236L253.309,264.236z"/>
		<path fill="#FF594F" d="M264.516,261.037c0,0.441-0.354,0.801-0.801,0.801c-0.441,0-0.797-0.359-0.797-0.801
			s0.354-0.801,0.797-0.801C264.16,260.236,264.516,260.596,264.516,261.037L264.516,261.037z"/>
		<path fill="#FF594F" d="M264.516,264.236c0,0.44-0.354,0.801-0.801,0.801c-0.441,0-0.797-0.359-0.797-0.801
			c0-0.442,0.354-0.801,0.797-0.801C264.16,263.436,264.516,263.795,264.516,264.236L264.516,264.236z"/>
		<path fill="#393532" d="M255.707,233.037c-0.441,0-0.802,0.359-0.802,0.801v10.398c0,1.043-0.668,1.922-1.598,2.254v-12.652
			c0-0.441-0.358-0.801-0.801-0.801s-0.801,0.359-0.801,0.801v12.652c-0.931-0.332-1.599-1.211-1.599-2.254v-10.398
			c0-0.441-0.358-0.801-0.801-0.801c-0.441,0-0.801,0.359-0.801,0.801v10.398c0,1.934,1.375,3.547,3.199,3.922v8.191
			c-1.375,0.359-2.398,1.602-2.398,3.086v17.602c0,1.766,1.435,3.199,3.199,3.199s3.199-1.435,3.199-3.199v-17.602
			c0-1.484-1.023-2.728-2.398-3.086v-8.191c1.824-0.375,3.199-1.988,3.199-3.922v-10.398
			C256.508,233.396,256.148,233.037,255.707,233.037L255.707,233.037z M254.109,259.436v17.603c0,0.883-0.719,1.603-1.602,1.603
			s-1.603-0.72-1.603-1.603v-17.603c0-0.879,0.72-1.598,1.603-1.598S254.109,258.557,254.109,259.436L254.109,259.436z"/>
		<path fill="#393532" d="M266.063,234.381c-0.901-0.902-2.19-1.344-3.944-1.344c-0.441,0-0.802,0.359-0.802,0.801v23.199
			c0,0.086,0.023,0.168,0.052,0.246c-0.523,0.57-0.853,1.32-0.853,2.152v17.602c0,1.766,1.438,3.199,3.199,3.199
			c1.766,0,3.203-1.435,3.203-3.199v-17.602c0-1.023-0.496-1.927-1.246-2.513c2.039-2.645,2.047-6.555,2.043-12.238l0.008-1.766
			C267.742,239.104,267.758,236.088,266.063,234.381L266.063,234.381z M265.316,277.037c0,0.883-0.719,1.602-1.602,1.602
			c-0.879,0-1.598-0.719-1.598-1.602v-17.602c0-0.879,0.719-1.599,1.598-1.599c0.883,0,1.602,0.72,1.602,1.599V277.037z
			 M266.121,242.912l-0.004,1.773c0,5.629-0.005,9.395-1.992,11.594c-0.138-0.02-0.271-0.043-0.41-0.043
			c-0.277,0-0.539,0.047-0.797,0.113v-21.664c0.887,0.098,1.555,0.367,2.008,0.824C266.152,236.744,266.141,239.467,266.121,242.912
			L266.121,242.912z"/>
	</g>
	<g>
		<path fill="#FF594F" d="M211.891,265.037c0.441,0,0.801-0.359,0.801-0.801c0-3.086-2.512-5.598-5.602-5.598
			c-0.441,0-0.801,0.354-0.801,0.797c0,0.444,0.358,0.801,0.801,0.801c2.207,0,4,1.797,4,4
			C211.09,264.678,211.449,265.037,211.891,265.037L211.891,265.037z"/>
		<path fill="#FF594F" d="M214.289,265.037c0.44,0,0.801-0.359,0.801-0.801c0-4.41-3.59-8-8-8c-1.766,0-3.199,1.438-3.199,3.2
			c0,0.444,0.359,0.801,0.801,0.801c0.442,0,0.802-0.355,0.802-0.801c0-0.879,0.715-1.599,1.598-1.599
			c3.531,0,6.402,2.871,6.402,6.397C213.492,264.678,213.848,265.037,214.289,265.037L214.289,265.037z"/>
		<path fill="#FF594F" d="M207.09,261.037c-0.441,0-0.801,0.359-0.801,0.801s0.358,0.801,0.801,0.801
			c0.883,0,1.602,0.715,1.602,1.598c0,0.441,0.359,0.802,0.802,0.802c0.441,0,0.797-0.359,0.797-0.802
			C210.289,262.471,208.855,261.037,207.09,261.037L207.09,261.037z"/>
		<path fill="#FF594F" d="M216.691,265.037c0.441,0,0.802-0.359,0.802-0.801c0-5.734-4.668-10.398-10.402-10.398h-1.598
			c-2.207,0-4,1.793-4,4c0,0.441,0.354,0.801,0.797,0.801c0.441,0,0.801-0.359,0.801-0.801c0-1.324,1.078-2.402,2.402-2.402h1.598
			c4.852,0,8.801,3.949,8.801,8.8C215.891,264.678,216.25,265.037,216.691,265.037L216.691,265.037z"/>
		<path fill="#393532" d="M195.891,246.639c0.441,0,0.801-0.359,0.801-0.801h4c1.302,0,2.449-0.637,3.181-1.602h22.418
			c1.323,0,2.401-1.074,2.401-2.398c0-1.324-1.078-2.402-2.401-2.402h-22.418c-0.734-0.965-1.879-1.598-3.181-1.598h-4
			c0-0.441-0.358-0.801-0.801-0.801c-0.441,0-0.801,0.359-0.801,0.801v8C195.09,246.279,195.449,246.639,195.891,246.639
			L195.891,246.639z M226.289,241.037c0.44,0,0.801,0.359,0.801,0.801s-0.359,0.801-0.801,0.801h-21.681
			c0.056-0.262,0.082-0.527,0.082-0.801s-0.026-0.543-0.082-0.801H226.289z M200.691,239.436c0.802,0,1.513,0.402,1.945,1.008
			l0.117,0.199c0.104,0.184,0.184,0.371,0.242,0.563c0.004,0.012,0.008,0.027,0.012,0.039c0.055,0.195,0.082,0.395,0.082,0.594
			c0,0.199-0.027,0.395-0.082,0.59c-0.004,0.016-0.008,0.027-0.012,0.043c-0.06,0.191-0.138,0.379-0.242,0.563l-0.117,0.195
			c-0.434,0.609-1.145,1.008-1.945,1.008h-4v-1.598c0.578,0,1.56,0,3.199,0c0.441,0,0.801-0.355,0.801-0.797
			c0-0.445-0.358-0.801-0.801-0.801c-1.645,0-2.621,0-3.199-0.004v-1.602H200.691z"/>
		<path fill="#393532" d="M193.492,246.639c0.44,0,0.797-0.359,0.797-0.801v-8c0-0.441-0.355-0.801-0.797-0.801
			c-0.442,0-0.802,0.359-0.802,0.801v8C192.691,246.279,193.047,246.639,193.492,246.639L193.492,246.639z"/>
		<path fill="#393532" d="M193.492,257.037c0.44,0,0.797-0.359,0.797-0.801v-8c0-0.441-0.355-0.801-0.797-0.801
			c-0.442,0-0.802,0.359-0.802,0.801v8C192.691,256.678,193.047,257.037,193.492,257.037L193.492,257.037z"/>
		<path fill="#393532" d="M191.09,248.236c-0.441,0-0.801,0.359-0.801,0.801v8c0,0.441,0.358,0.801,0.801,0.801
			s0.801-0.359,0.801-0.801v-8C191.891,248.596,191.531,248.236,191.09,248.236L191.09,248.236z"/>
		<path fill="#FF594F" d="M187.09,243.436c-0.441,0-0.801,0.359-0.801,0.801c0,0.442,0.358,0.801,0.801,0.801h3.199v1.832
			c0,0.441,0.358,0.801,0.801,0.801s0.801-0.359,0.801-0.801v-9.031c0-0.441-0.358-0.801-0.801-0.801s-0.801,0.359-0.801,0.801
			v0.801h-3.199c-0.441,0-0.801,0.355-0.801,0.797c0,0.445,0.358,0.801,0.801,0.801h3.199v0.801h-3.199
			c-0.441,0-0.801,0.359-0.801,0.801c0,0.442,0.358,0.801,0.801,0.801h3.199v0.797h-3.199V243.436z"/>
		<path fill="#393532" d="M223.852,273.838c-0.41-4.48-4.18-8-8.762-8h-5.598c-0.441,0-0.802,0.355-0.802,0.801
			c0,0.441,0.359,0.797,0.802,0.797h5.598c3.699,0,6.754,2.81,7.152,6.402h-0.81c-0.395-3.152-3.086-5.602-6.344-5.602h-4.801
			c-0.441,0-0.797,0.359-0.797,0.801s0.354,0.801,0.797,0.801h4.801c2.375,0,4.344,1.734,4.729,4h-0.813
			c-0.371-1.824-1.984-3.199-3.918-3.199h-4c-0.441,0-0.801,0.355-0.801,0.797c0,0.445,0.358,0.801,0.801,0.801h4
			c1.043,0,1.922,0.673,2.254,1.603h-1.453c0-0.44-0.359-0.801-0.801-0.801h-4c-0.441,0-0.801,0.358-0.801,0.801h-0.813
			c-0.281-11.772-6.733-16-12.785-16h-0.801c-4.41,0-8,3.591-8,8v4c0,0.44,0.359,0.802,0.801,0.802c0.442,0,0.801-0.359,0.801-0.802
			v-4c0-3.53,2.871-6.401,6.398-6.401h0.801c7.957,0,10.98,7.293,11.188,14.401h-0.801c-0.224-8.534-4.07-13.603-10.388-13.603
			c-3.09,0-5.602,2.513-5.602,5.603v0.802c0,0.44,0.358,0.797,0.801,0.797s0.801-0.355,0.801-0.797v-0.802c0-2.207,1.793-4,4-4
			c7.435,0,8.66,7.841,8.785,12h-0.797c-0.23-9.229-4.441-11.198-7.988-11.198c-1.324,0-2.401,1.073-2.401,2.397
			c0,0.44,0.358,0.801,0.801,0.801c0.441,0,0.801-0.358,0.801-0.801s0.359-0.802,0.801-0.802c4.138,0,6.224,3.148,6.383,9.603
			h-0.784c0-0.44-0.359-0.801-0.802-0.801h-4c-0.44,0-0.797,0.358-0.797,0.801h-1.453c0.328-0.93,1.211-1.603,2.25-1.603h4
			c0.441,0,0.802-0.354,0.802-0.801c0-0.44-0.359-0.797-0.802-0.797h-4c-1.93,0-3.547,1.375-3.918,3.199h-0.809
			c0.383-2.266,2.354-4,4.727-4h3.203c0.441,0,0.797-0.359,0.797-0.801s-0.354-0.801-0.797-0.801h-3.203
			c-3.258,0-5.948,2.449-6.344,5.602h-0.809c0.401-3.594,3.453-6.402,7.151-6.402h1.603c0.44,0,0.801-0.354,0.801-0.797
			c0-0.445-0.359-0.801-0.801-0.801h-1.603c-4.582,0-8.352,3.52-8.758,8h-5.535l2.438,3.652c1.145,1.719,3.063,2.746,5.129,2.746
			h32.656c2.065,0,3.983-1.027,5.133-2.746l2.434-3.652H223.852z M227.219,276.604c-0.852,1.273-2.27,2.035-3.801,2.035h-32.656
			c-1.531,0-2.949-0.762-3.801-2.035l-0.777-1.168h41.813L227.219,276.604z"/>
	</g>
	<g>
		<path fill="#393532" d="M164.713,260.236h-2.379c0.039-0.461,0.176-0.906,0.414-1.305l1.305-2.188
			c0.258-0.43,0.262-0.969,0.016-1.402c-0.245-0.433-0.711-0.703-1.207-0.703h-18.18c0.021-0.133,0.031-0.266,0.031-0.402
			c0-1.543-1.254-2.801-2.801-2.801c-1.543,0-2.797,1.258-2.797,2.801c0,0.137,0.012,0.27,0.03,0.402h-13.379
			c-0.5,0-0.961,0.27-1.207,0.703c-0.25,0.434-0.242,0.973,0.017,1.402l1.305,2.184c0.238,0.402,0.375,0.849,0.414,1.31h-2.383
			c-1.32,0-2.398,1.078-2.398,2.402c0,1.319,1.078,2.397,2.398,2.397h2.401v5.438c0,2.737,2.215,4.961,4.938,4.961h1.195
			c0.27,0.426,0.625,0.887,1.055,1.438c0.207,0.27,0.434,0.559,0.676,0.883l0.48,0.637l0.641-0.479
			c1.262-0.957,2.043-1.672,2.309-2.478h5.004c0.039,0.056,0.074,0.099,0.113,0.152c0.324,0.414,0.676,0.867,1.051,1.367
			l0.484,0.637l0.637-0.48c0.816-0.616,1.492-1.159,2.031-1.676h4.521c0.27,0.426,0.625,0.887,1.051,1.438
			c0.207,0.271,0.434,0.56,0.68,0.883l0.48,0.638l0.637-0.48c1.266-0.957,2.047-1.672,2.313-2.477h0.771
			c2.723,0,4.938-2.224,4.938-4.961v-5.438h2.398c1.324,0,2.402-1.078,2.402-2.397C167.115,261.314,166.037,260.236,164.713,260.236
			L164.713,260.236z M140.713,254.236c0-0.66,0.539-1.199,1.199-1.199c0.664,0,1.203,0.539,1.203,1.199
			c0,0.152-0.031,0.285-0.074,0.402h-2.254C140.744,254.521,140.713,254.389,140.713,254.236L140.713,254.236z M123.912,263.436
			c-0.441,0-0.797-0.354-0.797-0.797c0-0.441,0.354-0.801,0.797-0.801h2.401v1.598H123.912z M134.959,276.146
			c-0.066-0.086-0.133-0.172-0.195-0.254c-0.527-0.681-0.949-1.224-1.137-1.617c-0.021-0.035-0.035-0.066-0.047-0.103
			c-0.023-0.051-0.035-0.098-0.047-0.141c-0.017-0.078-0.013-0.164,0.02-0.263c0.016-0.039,0.031-0.078,0.055-0.121
			c0.021-0.039,0.043-0.073,0.07-0.116c0.047-0.066,0.105-0.142,0.176-0.216c0.017-0.02,0.027-0.039,0.047-0.059
			c0.103-0.105,0.216-0.215,0.341-0.328c0.12-0.113,0.266-0.234,0.43-0.367c0.065,0.086,0.133,0.172,0.195,0.25
			c0.331,0.431,0.629,0.813,0.852,1.138c0,0.004,0,0.004,0,0.004c0.109,0.16,0.195,0.301,0.262,0.43
			c0.004,0.009,0.008,0.017,0.013,0.023c0.063,0.12,0.098,0.227,0.112,0.319c0.008,0.043,0.013,0.086,0.008,0.121
			C136.068,275.17,135.549,275.666,134.959,276.146L134.959,276.146z M144.838,269.303c0.051,0.063,0.09,0.117,0.137,0.176
			c0.902,1.164,1.465,1.926,1.719,2.513c0.009,0.016,0.021,0.034,0.027,0.055c0.031,0.078,0.059,0.156,0.078,0.228
			c0.004,0.012,0.004,0.02,0.008,0.031c0.055,0.211,0.06,0.405,0.021,0.594c-0.013,0.035-0.017,0.074-0.031,0.108
			c-0.004,0.021-0.017,0.043-0.021,0.063c-0.102,0.242-0.289,0.508-0.543,0.793c-0.065,0.07-0.133,0.141-0.203,0.211l-0.164,0.168
			c-0.354,0.34-0.793,0.711-1.301,1.105c-0.203-0.259-0.391-0.509-0.574-0.742c-0.063-0.078-0.116-0.148-0.176-0.224l-0.18-0.233
			c-0.113-0.146-0.215-0.281-0.316-0.414c-0.03-0.039-0.059-0.074-0.086-0.109c-0.09-0.121-0.176-0.238-0.258-0.352
			c-0.035-0.043-0.065-0.09-0.098-0.133c-0.078-0.109-0.156-0.22-0.228-0.324c-0.022-0.031-0.043-0.066-0.065-0.099
			c-0.07-0.108-0.138-0.215-0.199-0.315c-0.012-0.021-0.023-0.039-0.031-0.06c-0.065-0.108-0.121-0.215-0.172-0.313
			c-0.004-0.008-0.004-0.016-0.008-0.022c-0.16-0.332-0.23-0.625-0.199-0.879c0.094-0.68,0.965-1.526,2.293-2.565
			C144.467,268.822,144.658,269.068,144.838,269.303L144.838,269.303z M153.959,276.146c-0.066-0.086-0.133-0.172-0.195-0.254
			c-0.531-0.685-0.957-1.23-1.145-1.625c-0.013-0.031-0.027-0.06-0.039-0.091c-0.023-0.055-0.043-0.108-0.056-0.159
			c-0.012-0.07,0-0.152,0.027-0.238c0.016-0.043,0.027-0.086,0.055-0.129c0.021-0.035,0.043-0.074,0.066-0.113
			c0.051-0.07,0.108-0.145,0.18-0.219c0.017-0.021,0.027-0.035,0.047-0.055c0.103-0.109,0.215-0.22,0.34-0.332
			c0.121-0.109,0.267-0.23,0.431-0.363c0.039,0.047,0.078,0.098,0.112,0.145c0.027,0.035,0.056,0.07,0.082,0.105
			c0.023,0.031,0.048,0.059,0.07,0.086c0.117,0.156,0.234,0.305,0.34,0.445c0.023,0.03,0.047,0.059,0.066,0.09
			c0.137,0.176,0.258,0.34,0.358,0.496l0.023,0.03c0.102,0.152,0.188,0.293,0.254,0.418l0.012,0.027
			c0.063,0.121,0.103,0.228,0.117,0.319c0.004,0.039,0.013,0.082,0.004,0.117C155.068,275.17,154.549,275.666,153.959,276.146
			L153.959,276.146z M160.713,270.475c0,1.855-1.496,3.363-3.336,3.363h-0.887c-0.009-0.016-0.017-0.029-0.023-0.047
			c-0.055-0.117-0.117-0.234-0.188-0.355c-0.02-0.035-0.043-0.069-0.063-0.104c-0.07-0.113-0.146-0.228-0.23-0.349
			c-0.026-0.039-0.051-0.078-0.082-0.116c-0.09-0.125-0.184-0.259-0.284-0.392c-0.027-0.035-0.056-0.074-0.082-0.113
			c-0.091-0.116-0.188-0.241-0.285-0.366c-0.043-0.056-0.078-0.104-0.125-0.164c-0.207-0.267-0.435-0.556-0.676-0.879l-0.48-0.634
			l-0.641,0.48c-0.781,0.59-1.438,1.129-1.875,1.695c-0.031,0.043-0.07,0.086-0.103,0.129c-0.039,0.055-0.065,0.113-0.102,0.172
			c-0.039,0.063-0.078,0.125-0.109,0.188c-0.031,0.063-0.055,0.125-0.078,0.188c-0.022,0.06-0.047,0.117-0.065,0.177
			c-0.021,0.065-0.031,0.137-0.047,0.207c-0.005,0.03-0.017,0.063-0.023,0.098c-0.004,0.027,0,0.055,0,0.082
			c-0.004,0.035-0.016,0.07-0.016,0.104h-2.73c0.06-0.112,0.103-0.228,0.142-0.336c0.008-0.021,0.012-0.039,0.016-0.06
			c0.047-0.141,0.078-0.276,0.098-0.414c0-0.016,0.008-0.026,0.008-0.038c0-0.013,0-0.021,0-0.027
			c0.021-0.151,0.027-0.301,0.017-0.453c0-0.047-0.008-0.094-0.012-0.141c-0.013-0.086-0.027-0.172-0.043-0.259
			c-0.156-0.788-0.646-1.59-1.38-2.582c-0.098-0.129-0.194-0.258-0.297-0.395c-0.078-0.102-0.16-0.211-0.242-0.316
			c-0.086-0.112-0.176-0.229-0.27-0.348c-0.039-0.051-0.074-0.098-0.113-0.147c-0.319-0.414-0.676-0.867-1.051-1.367l-0.479-0.638
			l-0.642,0.48c-0.27,0.203-0.522,0.402-0.766,0.594c-1.685,1.332-2.625,2.353-2.781,3.527c-0.004,0.039,0,0.078-0.004,0.117
			c-0.012,0.102-0.016,0.207-0.012,0.313c0.004,0.066,0.008,0.129,0.016,0.195c0.008,0.094,0.023,0.191,0.043,0.285
			c0.021,0.082,0.039,0.168,0.063,0.25c0.03,0.105,0.065,0.207,0.104,0.313c0.027,0.07,0.06,0.137,0.09,0.207
			c0.043,0.099,0.09,0.191,0.142,0.289c0.043,0.074,0.082,0.148,0.125,0.228c0.073,0.129,0.155,0.258,0.241,0.395
			c0.043,0.07,0.095,0.142,0.146,0.216c0.022,0.039,0.047,0.073,0.074,0.112h-3.922c-0.009-0.021-0.021-0.039-0.027-0.06
			c-0.051-0.108-0.113-0.223-0.18-0.336c-0.023-0.039-0.047-0.077-0.07-0.116c-0.066-0.109-0.141-0.224-0.223-0.336
			c-0.027-0.043-0.056-0.082-0.086-0.125c-0.095-0.134-0.195-0.273-0.306-0.414c-0.016-0.022-0.031-0.043-0.047-0.066
			c-0.133-0.172-0.272-0.354-0.426-0.547c-0.021-0.03-0.047-0.063-0.066-0.09c-0.19-0.246-0.391-0.504-0.608-0.793l-0.48-0.638
			l-0.637,0.48c-0.781,0.59-1.441,1.135-1.879,1.695c-0.031,0.043-0.07,0.086-0.099,0.129c-0.038,0.055-0.069,0.113-0.104,0.172
			c-0.039,0.063-0.078,0.125-0.109,0.188c-0.03,0.063-0.055,0.125-0.078,0.188c-0.022,0.06-0.047,0.117-0.063,0.177
			c-0.023,0.065-0.035,0.137-0.047,0.207c-0.008,0.03-0.021,0.063-0.023,0.098c-0.004,0.027,0,0.055-0.004,0.082
			c-0.004,0.035-0.016,0.07-0.016,0.104h-0.66c-1.84,0-3.34-1.508-3.34-3.362v-10.238h-0.017c-0.043-0.75-0.258-1.48-0.645-2.125
			l-1.117-1.875h36.355l-1.117,1.875c-0.387,0.645-0.599,1.375-0.642,2.125h-0.02V270.475L160.713,270.475z M164.713,263.436h-2.398
			v-1.598h2.398c0.44,0,0.801,0.359,0.801,0.801C165.514,263.081,165.154,263.436,164.713,263.436L164.713,263.436z"/>
		<path fill="#393532" d="M146.713,246.639c1.543,0,2.801-1.258,2.801-2.801s-1.258-2.801-2.801-2.801s-2.801,1.258-2.801,2.801
			S145.17,246.639,146.713,246.639L146.713,246.639z M146.713,242.639c0.664,0,1.199,0.535,1.199,1.199
			c0,0.66-0.535,1.199-1.199,1.199c-0.66,0-1.199-0.539-1.199-1.199C145.514,243.174,146.053,242.639,146.713,242.639
			L146.713,242.639z"/>
		<path fill="#FF594F" d="M157.514,250.639c0,0.883-0.715,1.598-1.602,1.598c-0.884,0-1.599-0.715-1.599-1.598
			c0-0.887,0.715-1.602,1.599-1.602C156.799,249.037,157.514,249.752,157.514,250.639L157.514,250.639z"/>
		<path fill="#393532" d="M133.514,250.639c0,0.34-0.104,0.664-0.305,0.938c-0.258,0.359-0.181,0.859,0.18,1.117
			c0.141,0.102,0.305,0.152,0.469,0.152c0.246,0,0.492-0.117,0.648-0.332c0.397-0.547,0.608-1.195,0.608-1.875v-0.031
			c0-0.441-0.358-0.785-0.801-0.785C133.872,249.823,133.514,250.193,133.514,250.639L133.514,250.639z"/>
		<path fill="#393532" d="M131.912,249.037c0.336,0,0.655,0.102,0.93,0.297c0.141,0.099,0.301,0.148,0.461,0.148
			c0.25,0,0.496-0.117,0.652-0.336c0.258-0.359,0.172-0.859-0.185-1.117c-0.547-0.387-1.188-0.594-1.858-0.594h-0.021
			c-0.44,0-0.789,0.359-0.789,0.801S131.471,249.037,131.912,249.037L131.912,249.037z"/>
		<path fill="#393532" d="M129.514,251.443c0.441,0,0.801-0.363,0.801-0.805c0-0.336,0.103-0.66,0.297-0.934
			c0.259-0.359,0.177-0.859-0.184-1.117c-0.36-0.258-0.859-0.176-1.117,0.188c-0.391,0.547-0.598,1.191-0.598,1.863v0.012
			C128.713,251.092,129.072,251.443,129.514,251.443L129.514,251.443z"/>
		<path fill="#393532" d="M129.861,252.115c-0.258,0.359-0.176,0.859,0.185,1.117c0.547,0.395,1.19,0.605,1.867,0.605h0.008
			c0.44,0,0.797-0.359,0.797-0.801c0-0.442-0.359-0.801-0.805-0.801c-0.336,0-0.66-0.102-0.935-0.301
			C130.619,251.678,130.119,251.76,129.861,252.115L129.861,252.115z"/>
		<path fill="#393532" d="M154.314,278.639h-20.801c-0.441,0-0.801,0.355-0.801,0.797c0,0.445,0.358,0.801,0.801,0.801h20.801
			c0.441,0,0.801-0.354,0.801-0.801C155.115,278.994,154.756,278.639,154.314,278.639L154.314,278.639z"/>
		<path fill="#393532" d="M158.314,258.639h-20.742c-0.44,0-0.801,0.355-0.801,0.797c0,0.445,0.359,0.801,0.801,0.801h20.742
			c0.441,0,0.801-0.354,0.801-0.801C159.115,258.994,158.756,258.639,158.314,258.639L158.314,258.639z"/>
		<path fill="#FF594F" d="M134.174,258.639h-3.859c-0.44,0-0.801,0.355-0.801,0.797c0,0.445,0.359,0.801,0.801,0.801h3.859
			c0.445,0,0.801-0.354,0.801-0.801C134.975,258.994,134.619,258.639,134.174,258.639L134.174,258.639z"/>
	</g>
	<g>
		<path fill="#FF594F" d="M484.982,257.296c0.441,0,0.801-0.36,0.801-0.802v-2.926c0-0.121-0.012-0.238-0.02-0.354l0.246,0.246
			c0.155,0.155,0.362,0.233,0.565,0.233s0.41-0.078,0.566-0.233l0.258-0.259c-0.008,0.121-0.02,0.242-0.02,0.367v2.926
			c0,0.441,0.358,0.802,0.801,0.802h2.926c2.801,0,5.074-2.278,5.074-5.074v-2.926c0-0.442-0.359-0.802-0.801-0.802h-2.927
			c-0.659,0-1.293,0.134-1.875,0.363c0.345-1.621-0.108-3.383-1.366-4.64l-2.07-2.071c-0.313-0.312-0.82-0.312-1.133,0l-2.07,2.071
			c-1.258,1.254-1.711,3.011-1.371,4.632c-0.578-0.227-1.203-0.355-1.859-0.355h-2.926c-0.44,0-0.801,0.355-0.801,0.797v2.931
			c0,2.796,2.273,5.069,5.074,5.069h2.926L484.982,257.296L484.982,257.296z M494.579,250.093v2.129
			c0,1.914-1.559,3.472-3.473,3.472h-2.125v-2.125c0-1.918,1.559-3.476,3.473-3.476H494.579z M485.072,245.347l1.504-1.504
			l1.504,1.504c1.353,1.354,1.353,3.558,0,4.914l-1.504,1.504l-1.504-1.504C483.717,248.904,483.717,246.701,485.072,245.347
			L485.072,245.347z M478.579,252.222v-2.129h2.13c1.913,0,3.473,1.558,3.473,3.476v2.125h-2.125
			C480.139,255.693,478.579,254.136,478.579,252.222L478.579,252.222z"/>
		<path fill="#FF594F" d="M488.982,263.511c-1.324,0-2.402,1.078-2.402,2.401h1.603c0-0.439,0.358-0.801,0.801-0.801
			s0.801,0.359,0.801,0.801h1.599C491.381,264.589,490.307,263.511,488.982,263.511L488.982,263.511z"/>
		<path fill="#FF594F" d="M495.381,264.311c-1.324,0-2.398,1.08-2.398,2.403h1.598c0-0.442,0.359-0.802,0.802-0.802
			c0.441,0,0.801,0.359,0.801,0.802h1.602C497.782,265.391,496.704,264.311,495.381,264.311L495.381,264.311z"/>
		<path fill="#393532" d="M501.393,261.271l2.762-10.355c0.021-0.066,0.027-0.137,0.027-0.202c0-0.884-0.719-1.603-1.603-1.603
			h-1.598c-0.293,0-0.565,0.082-0.801,0.219v-11.418c0-0.44-0.359-0.801-0.801-0.801h-24.793c-0.004,0-0.009,0.004-0.013,0.004
			s-0.008-0.004-0.016-0.004h-5.578c-0.441,0-0.801,0.36-0.801,0.801v36.802c0,0.315,0.19,0.604,0.484,0.733l5.581,2.398
			c0.103,0.043,0.207,0.065,0.313,0.065c0.008,0,0.012-0.004,0.016-0.004s0.009,0.004,0.013,0.004h12.25
			c2.315,1.466,5.055,2.323,7.991,2.323c8.289,0,15.031-6.741,15.031-15.026v-0.086C509.861,262.736,504.92,261.705,501.393,261.271
			L501.393,261.271z M500.982,250.714h1.57l-2.945,11.043c0,0.005,0,0.005,0,0.005l-0.477,1.831
			c-0.109,0.425,0.145,0.862,0.573,0.976c0.066,0.018,0.134,0.024,0.199,0.024c0.355,0,0.68-0.239,0.773-0.599l0.305-1.159
			c5.461,0.644,7.277,1.909,7.277,2.293c0,0.784-4.57,2.634-13.431,2.634c-8.859,0-13.426-1.85-13.426-2.634
			c0-0.789,4.566-2.638,13.426-2.638c0.478,0,0.931,0.021,1.392,0.031l-0.152,0.594c-0.104,0.431,0.152,0.863,0.582,0.974
			c0.066,0.015,0.133,0.022,0.195,0.022c0.358,0,0.684-0.242,0.776-0.604l0.392-1.556l2.94-11.035
			C500.975,250.85,500.982,250.779,500.982,250.714L500.982,250.714z M473.764,275.896l-3.98-1.711v-35.473h3.98V275.896z
			 M484.713,276.311h-9.328v-37.597h23.194v14.894l-1.948,7.313c-0.59-0.017-1.188-0.03-1.802-0.03
			c-5.194,0-15.026,0.885-15.026,4.237v0.081c0,0.527,0.026,1.052,0.082,1.563c0.016,0.153,0.051,0.301,0.069,0.453
			c0.048,0.36,0.095,0.719,0.168,1.066c0.044,0.199,0.103,0.393,0.152,0.591c0.074,0.293,0.146,0.591,0.234,0.875
			c0.074,0.229,0.164,0.448,0.246,0.677c0.094,0.241,0.18,0.487,0.28,0.726c0.105,0.241,0.228,0.478,0.345,0.711
			c0.102,0.211,0.203,0.418,0.313,0.621c0.137,0.241,0.285,0.474,0.43,0.707c0.117,0.188,0.234,0.375,0.363,0.56
			c0.152,0.223,0.32,0.438,0.488,0.651c0.141,0.185,0.281,0.366,0.434,0.543c0.164,0.19,0.34,0.379,0.517,0.565
			c0.176,0.188,0.354,0.373,0.543,0.551C484.553,276.146,484.627,276.232,484.713,276.311L484.713,276.311z M494.834,278.636
			c-2.738,0-5.281-0.825-7.402-2.235c-0.103-0.064-0.199-0.135-0.301-0.207c-0.228-0.159-0.453-0.327-0.672-0.504
			c-0.078-0.062-0.16-0.125-0.238-0.187c-0.285-0.237-0.56-0.487-0.82-0.75c-0.051-0.052-0.098-0.099-0.145-0.149
			c-0.263-0.265-0.513-0.539-0.75-0.824c-0.017-0.014-0.027-0.03-0.043-0.051c-0.254-0.308-0.496-0.631-0.724-0.963
			c-0.026-0.043-0.055-0.082-0.082-0.125c-0.444-0.666-0.828-1.373-1.147-2.115c-0.027-0.062-0.056-0.121-0.082-0.183
			c-0.148-0.364-0.285-0.731-0.406-1.106c-0.012-0.047-0.027-0.096-0.039-0.144c-0.104-0.34-0.195-0.692-0.27-1.043
			c-0.017-0.071-0.031-0.142-0.047-0.211c-0.039-0.185-0.056-0.371-0.087-0.56c3.07,1.599,9.418,2.078,13.25,2.078
			s10.181-0.479,13.255-2.078C507.079,273.701,501.529,278.636,494.834,278.636L494.834,278.636z"/>
	</g>
	<g>
		<g>
			<g>
				<defs>
					<rect id="SVGID_7_" x="2.139" y="235.236" width="44" height="45"/>
				</defs>
				<clipPath id="SVGID_8_">
					<use xlink:href="#SVGID_7_"  overflow="visible"/>
				</clipPath>
				<path clip-path="url(#SVGID_8_)" fill="#393532" d="M45.338,268.236h-4.797v-17.233c0-3.947-1.629-7.813-4.474-10.619
					c-2.762-2.722-6.352-4.187-10.125-4.147c-7.832,0.104-14.202,6.565-14.202,14.397v3.442c-2.177-1.573-5.134-1.625-7.246-0.008
					c-1.375,1.055-2.228,2.647-2.345,4.375c-0.112,1.729,0.521,3.422,1.742,4.646c0.043,0.043,4.32,4.246,6.637,6.433
					c0.771,0.728,1.212,1.75,1.212,2.813v7.901h28.801v-7.198h4.797V268.236z M38.939,278.634H13.338v-3.198H38.94L38.939,278.634
					L38.939,278.634z M38.939,273.834H13.338v-1.5c0-1.5-0.621-2.95-1.711-3.977c-2.306-2.178-6.566-6.367-6.605-6.406
					c-0.895-0.891-1.354-2.133-1.272-3.405c0.086-1.282,0.694-2.423,1.719-3.207c1.738-1.332,4.281-1.103,5.914,0.53
					c0.117,0.113,0.258,0.191,0.406,0.25l2.793,2.535c0.151,0.137,0.348,0.207,0.539,0.207c0.219,0,0.434-0.09,0.594-0.268
					c0.297-0.322,0.27-0.832-0.055-1.129l-2.359-2.136c0.02-0.09,0.039-0.18,0.039-0.273v-4.423c0-6.963,5.664-12.703,12.629-12.795
					c3.316-0.063,6.523,1.261,8.977,3.687c2.539,2.504,3.996,5.957,3.996,9.478v22.831H38.939z M43.74,271.436h-3.199v-1.601h3.199
					V271.436z"/>
			</g>
		</g>
		<path fill="#FF594F" d="M24.303,265.271l-1.434-1.438l1.434-1.436l-1.129-1.129l-1.434,1.435l-1.438-1.435l-1.129,1.129
			l1.434,1.436l-1.434,1.438l1.129,1.129l1.438-1.436l1.434,1.436L24.303,265.271z"/>
		<path fill="#FF594F" d="M31.975,266.4l1.129-1.129l-1.434-1.438l1.434-1.436l-1.129-1.129l-1.434,1.435l-1.438-1.435l-1.129,1.129
			l1.435,1.436l-1.435,1.438l1.129,1.129l1.438-1.436L31.975,266.4z"/>
		<path fill="#FF594F" d="M19.975,267.671l-1.434,1.433l-1.438-1.433l-1.129,1.131l1.435,1.435l-1.435,1.436l1.129,1.131
			l1.438-1.437l1.434,1.437l1.129-1.131l-1.434-1.436l1.434-1.435L19.975,267.671z"/>
		<path fill="#FF594F" d="M27.975,267.671l-1.434,1.433l-1.438-1.433l-1.129,1.131l1.435,1.435l-1.435,1.436l1.129,1.131
			l1.438-1.437l1.434,1.437l1.129-1.131l-1.434-1.436l1.434-1.435L27.975,267.671z"/>
		<path fill="#FF594F" d="M35.975,267.671l-1.434,1.433l-1.438-1.433l-1.129,1.131l1.435,1.435l-1.435,1.436l1.129,1.131
			l1.438-1.437l1.434,1.437l1.129-1.131l-1.434-1.436l1.434-1.435L35.975,267.671z"/>
	</g>
	<g>
		<g>
			<g>
				<defs>
					<rect id="SVGID_9_" x="409.609" y="238.477" width="45.84" height="41.759"/>
				</defs>
				<clipPath id="SVGID_10_">
					<use xlink:href="#SVGID_9_"  overflow="visible"/>
				</clipPath>
				<path clip-path="url(#SVGID_10_)" fill="#393532" d="M452.809,253.515h-2.379c0.039-0.462,0.176-0.906,0.414-1.304l1.305-2.188
					c0.258-0.429,0.262-0.97,0.016-1.402c-0.164-0.289-0.426-0.491-0.727-0.605c-0.016-0.214-0.07-0.425-0.184-0.617l-0.103-0.14
					c-0.94-1.004-3.285-3.34-4.742-3.34h-5.602v-0.802c0-2.647-2.152-4.801-4.801-4.801h-8c-2.646,0-4.797,2.153-4.797,4.801v0.802
					h-4.802c-1.457,0-3.801,2.336-4.741,3.34l-0.105,0.14c-0.113,0.192-0.164,0.403-0.184,0.617
					c-0.298,0.114-0.563,0.316-0.724,0.605c-0.246,0.433-0.242,0.974,0.017,1.402l1.305,2.184c0.238,0.402,0.375,0.847,0.414,1.309
					h-2.383c-1.32,0-2.398,1.079-2.398,2.403c0,1.319,1.078,2.397,2.398,2.397h2.401v16c0,0.203,0.017,0.402,0.039,0.603
					c-0.016,0.065-0.039,0.129-0.039,0.198c0,0.181,0.07,0.336,0.168,0.47c0.563,2.12,2.484,3.69,4.771,3.69h26.125
					c2.723,0,4.938-2.227,4.938-4.961v-16h2.398c1.324,0,2.397-1.078,2.397-2.397C455.206,254.594,454.133,253.515,452.809,253.515
					L452.809,253.515z M446.409,245.515c0.445,0.008,1.849,1.086,3.152,2.403h-12.016c0.034-0.267,0.063-0.531,0.063-0.802
					c0-0.559-0.086-1.094-0.233-1.602L446.409,245.515L446.409,245.515z M435.598,248.847c-0.055,0.118-0.117,0.23-0.185,0.34
					c-0.051,0.09-0.104,0.176-0.168,0.258c-0.086,0.121-0.184,0.233-0.28,0.344c-0.06,0.063-0.109,0.13-0.164,0.184
					c-0.16,0.157-0.332,0.297-0.517,0.426c-0.065,0.043-0.137,0.082-0.203,0.121c-0.133,0.082-0.27,0.157-0.409,0.223
					c-0.082,0.039-0.168,0.07-0.254,0.103c-0.146,0.058-0.293,0.101-0.445,0.14c-0.078,0.021-0.156,0.043-0.238,0.06
					c-0.238,0.043-0.477,0.073-0.727,0.073c-0.246,0-0.488-0.03-0.724-0.073c-0.078-0.017-0.159-0.035-0.237-0.06
					c-0.152-0.035-0.302-0.082-0.445-0.138c-0.086-0.03-0.172-0.065-0.254-0.104c-0.142-0.063-0.277-0.141-0.406-0.219
					c-0.07-0.043-0.141-0.078-0.207-0.125c-0.184-0.125-0.354-0.269-0.512-0.422c-0.06-0.058-0.109-0.125-0.164-0.183
					c-0.103-0.11-0.195-0.224-0.285-0.345c-0.059-0.082-0.113-0.172-0.168-0.262c-0.066-0.109-0.129-0.218-0.184-0.336
					c-0.052-0.101-0.099-0.203-0.138-0.308c-0.172-0.446-0.276-0.923-0.276-1.427c0-0.785,0.237-1.512,0.629-2.129
					c0.039-0.065,0.086-0.133,0.129-0.194c0.109-0.153,0.227-0.293,0.354-0.431c0.039-0.039,0.078-0.082,0.117-0.121
					c0.142-0.133,0.293-0.258,0.449-0.371c0.066-0.047,0.133-0.09,0.199-0.133c0.147-0.094,0.301-0.176,0.461-0.25
					c0.051-0.022,0.098-0.051,0.151-0.069c0.195-0.082,0.402-0.146,0.609-0.192c0.066-0.015,0.133-0.027,0.199-0.039
					c0.227-0.043,0.461-0.074,0.703-0.074s0.473,0.031,0.703,0.074c0.065,0.012,0.133,0.024,0.194,0.039
					c0.211,0.047,0.418,0.11,0.613,0.192c0.051,0.019,0.103,0.047,0.152,0.069c0.16,0.074,0.313,0.156,0.457,0.25
					c0.069,0.043,0.137,0.086,0.203,0.133c0.155,0.113,0.309,0.238,0.448,0.371c0.039,0.039,0.078,0.082,0.117,0.121
					c0.129,0.138,0.246,0.277,0.353,0.431c0.047,0.062,0.09,0.129,0.133,0.194c0.387,0.617,0.621,1.344,0.621,2.129
					c0,0.504-0.103,0.98-0.273,1.427C435.695,248.647,435.648,248.75,435.598,248.847L435.598,248.847z M424.809,243.116
					c0-1.766,1.438-3.198,3.199-3.198h8c1.766,0,3.203,1.433,3.203,3.198v0.802h-2.609c-0.012-0.017-0.023-0.028-0.031-0.039
					c-0.108-0.158-0.229-0.306-0.354-0.446c-0.031-0.035-0.06-0.07-0.091-0.102c-0.12-0.129-0.245-0.254-0.375-0.37
					c-0.026-0.024-0.055-0.048-0.077-0.071c-0.484-0.418-1.039-0.753-1.646-0.992c-0.031-0.011-0.063-0.019-0.094-0.035
					c-0.164-0.06-0.332-0.113-0.504-0.156c-0.047-0.012-0.094-0.023-0.142-0.034c-0.159-0.039-0.323-0.067-0.491-0.095
					c-0.052-0.004-0.099-0.016-0.148-0.02c-0.211-0.023-0.426-0.039-0.641-0.039c-0.22,0-0.431,0.016-0.642,0.039
					c-0.051,0.004-0.098,0.016-0.147,0.02c-0.168,0.027-0.332,0.056-0.496,0.095c-0.043,0.011-0.09,0.022-0.137,0.034
					c-0.173,0.048-0.341,0.097-0.505,0.156c-0.03,0.013-0.063,0.024-0.094,0.035c-0.604,0.239-1.16,0.574-1.645,0.992
					c-0.023,0.023-0.051,0.047-0.078,0.071c-0.129,0.116-0.254,0.241-0.375,0.37c-0.031,0.031-0.06,0.066-0.09,0.102
					c-0.125,0.141-0.246,0.288-0.355,0.446c-0.008,0.011-0.02,0.022-0.031,0.039h-2.604V243.116z M418.409,245.515h8.234
					c-0.152,0.508-0.234,1.043-0.234,1.602c0,0.271,0.027,0.535,0.063,0.802h-11.215
					C416.547,246.616,417.969,245.522,418.409,245.515L418.409,245.515z M412.008,256.715c-0.438,0-0.797-0.356-0.797-0.797
					c0-0.442,0.358-0.802,0.797-0.802h2.401v1.599H412.008z M448.809,274.314c0,1.854-1.496,3.36-3.336,3.36h-26.125
					c-1.262,0-2.353-0.715-2.918-1.758h6.781c0.44,0,0.797-0.36,0.797-0.802c0-0.44-0.355-0.801-0.797-0.801h-7.203v-1.602h4.801
					c0.441,0,0.801-0.355,0.801-0.797c0-0.447-0.359-0.803-0.801-0.803h-4.801v-1.602h3.203c0.44,0,0.797-0.354,0.797-0.8
					c0-0.442-0.355-0.797-0.797-0.797h-3.203v-14.403h-0.017c-0.043-0.75-0.258-1.48-0.645-2.125l-1.117-1.875h12.723
					c0.009,0.016,0.017,0.028,0.023,0.038c0.219,0.451,0.492,0.869,0.82,1.24c0.022,0.03,0.051,0.058,0.077,0.086
					c0.152,0.168,0.313,0.327,0.488,0.476c0.012,0.008,0.021,0.021,0.031,0.032c0.188,0.156,0.387,0.3,0.594,0.433
					c0.023,0.021,0.051,0.031,0.074,0.047c0.188,0.117,0.383,0.224,0.586,0.32c0.027,0.012,0.051,0.024,0.078,0.035
					c0.223,0.102,0.453,0.188,0.691,0.258c0.02,0.008,0.043,0.012,0.065,0.016c0.203,0.058,0.414,0.105,0.629,0.142
					c0.056,0.007,0.113,0.015,0.172,0.022c0.238,0.031,0.478,0.056,0.724,0.056s0.487-0.024,0.727-0.056
					c0.06-0.008,0.113-0.016,0.172-0.022c0.215-0.036,0.426-0.084,0.629-0.142c0.023-0.004,0.047-0.008,0.066-0.016
					c0.238-0.07,0.469-0.156,0.691-0.258c0.026-0.011,0.051-0.023,0.077-0.035c0.199-0.097,0.396-0.203,0.586-0.32
					c0.023-0.016,0.052-0.026,0.074-0.047c0.207-0.133,0.406-0.276,0.595-0.433c0.012-0.012,0.02-0.024,0.03-0.032
					c0.172-0.148,0.332-0.308,0.488-0.476c0.027-0.028,0.051-0.056,0.078-0.086c0.324-0.371,0.602-0.789,0.82-1.24
					c0.008-0.01,0.016-0.026,0.022-0.038h13.521l-1.117,1.875c-0.388,0.645-0.599,1.375-0.642,2.125h-0.02v20.802H448.809z
					 M452.809,256.715h-2.398v-1.599h2.398c0.441,0,0.801,0.359,0.801,0.802C453.609,256.358,453.25,256.715,452.809,256.715
					L452.809,256.715z"/>
			</g>
		</g>
		<path fill="#FF594F" d="M431.445,246.551l2.398-2.399l1.133,1.129l-2.402,2.402L431.445,246.551z"/>
	</g>
</g>
</svg>
