<?xml version="1.0" encoding="utf-8"?>
<!-- Generator: Adobe Illustrator 16.0.0, SVG Export Plug-In . SVG Version: 6.00 Build 0)  -->
<!DOCTYPE svg PUBLIC "-//W3C//DTD SVG 1.1//EN" "http://www.w3.org/Graphics/SVG/1.1/DTD/svg11.dtd">
<svg version="1.1" id="Calque_1" xmlns="http://www.w3.org/2000/svg" xmlns:xlink="http://www.w3.org/1999/xlink" x="0px" y="0px"
	 width="123px" height="36.461px" viewBox="0 0 123 36.461" enable-background="new 0 0 123 36.461" xml:space="preserve">
<g>
	<path fill="#90D0BB" d="M7.076,12.878c-0.091,0.119-0.177,0.253-0.261,0.405c-0.085,0.151-0.159,0.329-0.22,0.531
		c-0.061,0.201-0.092,0.443-0.092,0.724c0,0.235,0.058,0.556,0.177,0.961c0.118,0.403,0.244,0.868,0.379,1.39
		s0.261,1.089,0.378,1.701c0.119,0.612,0.178,1.244,0.178,1.896c0,0.954-0.13,1.797-0.388,2.526
		c-0.258,0.731-0.601,1.354-1.028,1.871c0.876-0.473,1.735-1.148,2.578-2.031c0.843-0.881,1.691-2.002,2.544-3.362l0.573,0.507
		c-0.483,0.798-1.03,1.586-1.643,2.366c-0.613,0.781-1.284,1.483-2.014,2.108c-0.73,0.621-1.517,1.128-2.358,1.516
		c-0.843,0.387-1.737,0.582-2.681,0.582c-0.842,0-1.552-0.2-2.131-0.6c-0.578-0.398-0.936-0.997-1.07-1.794l0.607-0.117
		c0,0.067,0.032,0.176,0.092,0.328c0.063,0.151,0.16,0.301,0.295,0.447c0.135,0.146,0.318,0.274,0.548,0.388
		c0.23,0.11,0.513,0.168,0.851,0.168c0.449,0,0.848-0.105,1.196-0.312c0.348-0.21,0.651-0.482,0.91-0.818
		c0.258-0.337,0.478-0.722,0.657-1.155c0.18-0.431,0.322-0.878,0.43-1.339c0.107-0.459,0.182-0.909,0.228-1.348
		c0.044-0.438,0.068-0.837,0.068-1.196c0-0.358-0.015-0.758-0.043-1.196c-0.028-0.438-0.058-0.856-0.093-1.255
		c-0.034-0.398-0.065-0.748-0.093-1.045c-0.028-0.297-0.042-0.492-0.042-0.582v-0.032c-0.146,0.157-0.32,0.388-0.523,0.691
		c-0.201,0.304-0.417,0.634-0.647,0.994c-0.23,0.359-0.461,0.724-0.691,1.094c-0.23,0.372-0.438,0.708-0.624,1.011
		c-0.185,0.306-0.338,0.555-0.455,0.751c-0.118,0.195-0.177,0.299-0.177,0.312l-0.607-0.474c0.011-0.009,0.153-0.251,0.421-0.724
		c0.27-0.471,0.626-1.069,1.071-1.794c0.443-0.723,0.945-1.527,1.507-2.408c0.561-0.883,1.139-1.739,1.735-2.571l0.674,0.557
		C7.239,12.651,7.166,12.761,7.076,12.878"/>
	<path fill="#90D0BB" d="M24.718,14.572c-0.147,0.292-0.352,0.674-0.616,1.146c-0.263,0.471-0.548,0.991-0.85,1.558
		c-0.303,0.567-0.61,1.16-0.919,1.777c-0.309,0.618-0.589,1.223-0.842,1.813c-0.252,0.589-0.461,1.146-0.623,1.667
		c-0.163,0.522-0.245,0.964-0.245,1.323c0,0.36,0.07,0.593,0.211,0.7c0.14,0.106,0.322,0.16,0.547,0.16
		c0.326,0,0.66-0.096,1.003-0.287c0.342-0.191,0.68-0.438,1.01-0.741c0.332-0.304,0.655-0.646,0.97-1.028
		c0.314-0.382,0.61-0.768,0.884-1.153c0.275-0.39,0.526-0.759,0.75-1.113c0.224-0.353,0.415-0.654,0.572-0.902l0.607,0.474
		c-0.191,0.358-0.416,0.745-0.674,1.162c-0.258,0.416-0.542,0.833-0.85,1.256c-0.309,0.42-0.644,0.829-1.003,1.221
		c-0.36,0.394-0.738,0.742-1.138,1.046c-0.399,0.303-0.817,0.544-1.256,0.725c-0.438,0.178-0.887,0.27-1.347,0.27
		c-0.674,0-1.168-0.203-1.483-0.606c-0.314-0.406-0.471-0.928-0.471-1.567c0-0.046,0.002-0.144,0.008-0.295
		c0.006-0.152,0.02-0.273,0.042-0.363c-0.561,0.709-1.097,1.292-1.609,1.753c-0.511,0.46-1.005,0.826-1.482,1.096
		c-0.478,0.269-0.939,0.456-1.381,0.564c-0.445,0.105-0.868,0.159-1.273,0.159c-0.426,0-0.829-0.069-1.205-0.211
		c-0.377-0.141-0.708-0.345-0.994-0.614c-0.286-0.27-0.511-0.601-0.674-0.994s-0.245-0.849-0.245-1.365
		c0-0.641,0.144-1.374,0.43-2.199c0.286-0.825,0.795-1.715,1.524-2.67c0.618-0.82,1.26-1.511,1.929-2.072
		c0.668-0.562,1.325-1.013,1.972-1.357c0.645-0.342,1.261-0.587,1.845-0.733c0.584-0.146,1.106-0.219,1.567-0.219
		c1.033,0,1.814,0.171,2.342,0.514c0.527,0.343,0.848,0.868,0.961,1.576c0.225-0.281,0.46-0.562,0.708-0.843
		c0.246-0.28,0.499-0.567,0.757-0.859L24.718,14.572z M19.544,20.974c0.146-0.235,0.327-0.536,0.541-0.902
		c0.213-0.364,0.438-0.74,0.674-1.126c0.235-0.389,0.465-0.761,0.691-1.123c0.224-0.358,0.42-0.662,0.589-0.908
		c0-0.101-0.014-0.264-0.042-0.489c-0.029-0.225-0.105-0.453-0.228-0.683c-0.122-0.23-0.319-0.43-0.59-0.598
		c-0.269-0.167-0.646-0.254-1.128-0.254c-0.349,0-0.739,0.055-1.171,0.161c-0.433,0.107-0.893,0.287-1.381,0.54
		c-0.489,0.253-0.991,0.587-1.509,1.002c-0.517,0.416-1.033,0.932-1.55,1.55c-0.775,0.933-1.374,1.868-1.793,2.806
		c-0.423,0.938-0.633,1.783-0.633,2.536c0,0.641,0.146,1.135,0.438,1.482c0.292,0.348,0.708,0.522,1.246,0.522
		c0.618,0,1.196-0.138,1.736-0.412c0.54-0.276,1.045-0.632,1.517-1.071c0.471-0.438,0.92-0.923,1.348-1.457
		C18.725,22.017,19.14,21.492,19.544,20.974"/>
	<path fill="#90D0BB" d="M30.986,14.572c-0.147,0.292-0.352,0.677-0.615,1.154c-0.264,0.478-0.548,1-0.85,1.568
		c-0.303,0.567-0.614,1.162-0.927,1.786c-0.315,0.623-0.599,1.23-0.852,1.818c-0.251,0.59-0.457,1.145-0.614,1.66
		c-0.158,0.517-0.236,0.956-0.236,1.314c0,0.326,0.067,0.548,0.202,0.666c0.135,0.117,0.326,0.178,0.573,0.178
		c0.461,0,0.91-0.152,1.349-0.456c0.438-0.303,0.872-0.698,1.306-1.188c0.432-0.487,0.856-1.046,1.272-1.676
		c0.416-0.629,0.83-1.264,1.247-1.905l0.607,0.473c-0.327,0.585-0.694,1.208-1.105,1.871c-0.411,0.662-0.867,1.276-1.372,1.844
		c-0.505,0.568-1.063,1.038-1.67,1.409c-0.604,0.37-1.269,0.556-1.987,0.556c-0.674,0-1.191-0.203-1.549-0.606
		c-0.359-0.406-0.54-0.928-0.54-1.567c0-0.754,0.175-1.539,0.522-2.358c0.349-0.822,0.784-1.633,1.307-2.437
		c0.521-0.803,1.088-1.574,1.7-2.316s1.176-1.416,1.694-2.022L30.986,14.572z M35.599,9.361c-0.048-0.022-0.129-0.063-0.223-0.087
		c-0.094-0.026-0.223-0.073-0.353-0.082c-0.129-0.014-0.278-0.02-0.443-0.01c-0.157,0.012-0.318,0.047-0.489,0.09
		c-0.173,0.046-0.332,0.118-0.498,0.198c-0.167,0.084-0.316,0.19-0.466,0.303c-0.142,0.118-0.277,0.247-0.4,0.387
		c-0.113,0.142-0.229,0.288-0.317,0.443c-0.089,0.155-0.167,0.316-0.224,0.481c-0.123,0.32-0.17,0.652-0.174,0.951
		c0,0.148,0.007,0.289,0.028,0.417c0.016,0.125,0.046,0.244,0.072,0.34c0.008,0.043,0.024,0.088,0.037,0.124
		c0.023-0.049,0.05-0.104,0.079-0.161c0.146-0.292,0.359-0.668,0.606-1.02c0.125-0.178,0.261-0.345,0.395-0.496
		c0.067-0.073,0.136-0.144,0.2-0.211c0.069-0.062,0.135-0.119,0.194-0.175c0.065-0.047,0.125-0.09,0.177-0.131
		c0.05-0.042,0.103-0.065,0.142-0.09c0.079-0.048,0.126-0.076,0.126-0.076s-0.043,0.032-0.121,0.085
		c-0.035,0.029-0.086,0.057-0.132,0.102c-0.049,0.041-0.104,0.091-0.163,0.142c-0.055,0.058-0.115,0.123-0.177,0.187
		c-0.057,0.071-0.119,0.145-0.182,0.222c-0.118,0.161-0.238,0.335-0.344,0.515c-0.217,0.366-0.394,0.749-0.514,1.041
		c-0.034,0.083-0.062,0.155-0.086,0.223c0.052-0.014,0.115-0.029,0.186-0.055c0.088-0.031,0.204-0.063,0.316-0.108
		c0.114-0.046,0.236-0.094,0.36-0.155c0.125-0.057,0.245-0.125,0.371-0.196c0.125-0.071,0.243-0.153,0.359-0.238
		c0.112-0.086,0.226-0.174,0.328-0.271c0.103-0.101,0.203-0.193,0.292-0.303c0.183-0.207,0.338-0.429,0.463-0.665
		c0.065-0.112,0.121-0.24,0.175-0.357c0.053-0.114,0.1-0.243,0.145-0.359c0.047-0.116,0.089-0.234,0.127-0.348
		c0.041-0.116,0.075-0.219,0.106-0.303c0.035-0.084,0.056-0.17,0.075-0.224C35.669,9.43,35.677,9.4,35.677,9.4
		S35.65,9.384,35.599,9.361 M31.573,11.961c-0.177-0.123-0.345-0.26-0.498-0.393c-0.073-0.071-0.142-0.137-0.209-0.2
		c-0.061-0.07-0.12-0.134-0.176-0.194c-0.047-0.065-0.09-0.125-0.129-0.176c-0.043-0.05-0.067-0.104-0.09-0.143
		c-0.05-0.081-0.077-0.126-0.077-0.126s0.032,0.043,0.084,0.121c0.027,0.037,0.055,0.086,0.1,0.131
		c0.043,0.049,0.093,0.104,0.144,0.163c0.06,0.055,0.121,0.114,0.187,0.178c0.071,0.057,0.146,0.118,0.221,0.18
		c0.159,0.119,0.334,0.239,0.516,0.346c0.075,0.045,0.152,0.084,0.229,0.127c0.026-0.409,0.108-0.813,0.234-1.179
		c-0.073-0.095-0.146-0.185-0.227-0.268c-0.099-0.102-0.191-0.205-0.3-0.292c-0.207-0.182-0.432-0.337-0.666-0.462
		c-0.111-0.066-0.239-0.122-0.355-0.172c-0.116-0.056-0.245-0.101-0.363-0.146c-0.115-0.044-0.232-0.088-0.345-0.126
		c-0.118-0.043-0.219-0.079-0.303-0.108c-0.084-0.034-0.173-0.056-0.224-0.075c-0.057-0.018-0.088-0.025-0.088-0.025
		S29.219,9.149,29.196,9.2c-0.021,0.049-0.062,0.127-0.087,0.223c-0.025,0.094-0.07,0.221-0.083,0.351
		c-0.014,0.132-0.019,0.28-0.008,0.444c0.01,0.158,0.045,0.319,0.09,0.493c0.044,0.171,0.118,0.329,0.199,0.496
		c0.083,0.166,0.187,0.316,0.301,0.467c0.119,0.143,0.248,0.276,0.386,0.398c0.144,0.114,0.29,0.229,0.447,0.318
		c0.154,0.091,0.313,0.168,0.477,0.226c0.323,0.12,0.655,0.167,0.952,0.175c0.013,0,0.025,0,0.036-0.003
		c-0.031-0.208-0.043-0.419-0.039-0.632C31.77,12.093,31.672,12.032,31.573,11.961"/>
	<path fill="#90D0BB" d="M46.909,17.032c0,0.484-0.084,0.974-0.251,1.475c-0.169,0.501-0.383,0.999-0.642,1.499
		c-0.259,0.5-0.535,0.992-0.825,1.477c-0.292,0.482-0.568,0.948-0.827,1.396c-0.258,0.45-0.47,0.879-0.639,1.29
		c-0.169,0.409-0.254,0.783-0.254,1.12c0,0.259,0.056,0.432,0.169,0.522c0.111,0.088,0.236,0.134,0.37,0.134
		c0.426,0,0.904-0.209,1.433-0.631c0.527-0.422,1.063-0.952,1.608-1.592c0.545-0.641,1.087-1.338,1.626-2.091
		c0.54-0.751,1.028-1.465,1.466-2.14l0.607,0.473c-0.09,0.133-0.254,0.401-0.49,0.799c-0.236,0.4-0.528,0.854-0.875,1.365
		c-0.35,0.512-0.739,1.045-1.172,1.6c-0.433,0.557-0.896,1.069-1.391,1.535c-0.493,0.467-1.002,0.851-1.524,1.154
		c-0.523,0.303-1.048,0.455-1.575,0.455c-0.303,0-0.58-0.051-0.826-0.152c-0.248-0.101-0.458-0.241-0.633-0.421
		c-0.172-0.18-0.311-0.39-0.413-0.632c-0.1-0.241-0.151-0.497-0.151-0.768c0-0.438,0.098-0.912,0.295-1.422
		c0.197-0.511,0.442-1.037,0.733-1.577c0.292-0.539,0.611-1.079,0.96-1.625c0.348-0.545,0.668-1.064,0.96-1.558
		c0.293-0.495,0.537-0.954,0.733-1.375c0.197-0.42,0.296-0.783,0.296-1.086c0-0.349-0.093-0.641-0.278-0.875
		c-0.186-0.238-0.448-0.355-0.784-0.355c-0.359,0-0.774,0.15-1.246,0.447c-0.472,0.298-1.001,0.733-1.584,1.305
		c-0.584,0.573-1.222,1.278-1.914,2.114c-0.691,0.838-1.441,1.789-2.25,2.856c-0.461,0.618-0.91,1.214-1.349,1.785
		c-0.192,0.249-0.381,0.502-0.572,0.759c-0.192,0.258-0.383,0.515-0.574,0.768s-0.371,0.495-0.537,0.726
		c-0.17,0.229-0.321,0.428-0.456,0.598l-1.482-0.607l1.971-2.712c0.28-0.383,0.566-0.793,0.86-1.23
		c0.291-0.438,0.581-0.891,0.868-1.356c0.286-0.467,0.558-0.936,0.817-1.407c0.257-0.472,0.499-0.932,0.724-1.381
		c0.326-0.674,0.551-1.232,0.675-1.677c0.122-0.443,0.185-0.8,0.185-1.07c0-0.303-0.057-0.503-0.169-0.599
		c-0.112-0.094-0.269-0.143-0.472-0.143c-0.213,0-0.457,0.11-0.733,0.329c-0.275,0.219-0.559,0.5-0.851,0.843
		c-0.293,0.344-0.587,0.73-0.885,1.162c-0.297,0.433-0.581,0.863-0.85,1.289c-0.271,0.427-0.522,0.833-0.758,1.214
		c-0.236,0.382-0.433,0.69-0.59,0.927l-0.607-0.473c0.574-0.898,1.094-1.72,1.559-2.468c0.465-0.747,0.916-1.39,1.349-1.929
		c0.432-0.539,0.854-0.958,1.263-1.255c0.411-0.297,0.846-0.446,1.307-0.446c0.247,0,0.485,0.051,0.715,0.152
		c0.231,0.101,0.433,0.25,0.607,0.446c0.174,0.196,0.311,0.436,0.413,0.716c0.101,0.281,0.152,0.607,0.152,0.978
		c0,0.292-0.034,0.594-0.101,0.91c0.494-0.482,0.955-0.882,1.381-1.196c0.427-0.315,0.819-0.564,1.179-0.751
		c0.359-0.184,0.692-0.316,0.995-0.395c0.302-0.079,0.578-0.117,0.825-0.117c0.213,0,0.461,0.039,0.741,0.117
		c0.281,0.079,0.545,0.225,0.792,0.438c0.247,0.213,0.457,0.508,0.632,0.884C46.822,15.952,46.909,16.438,46.909,17.032"/>
	<path fill="#90D0BB" d="M51.425,21.934c-0.021,0.136-0.039,0.271-0.051,0.405c-0.011,0.136-0.016,0.27-0.016,0.405
		c0,0.404,0.059,0.788,0.177,1.152c0.117,0.365,0.291,0.688,0.521,0.962c0.23,0.275,0.518,0.492,0.86,0.648
		c0.342,0.157,0.733,0.237,1.171,0.237c1.472,0,2.892-0.502,4.263-1.501c1.37-1.001,2.736-2.584,4.096-4.752l0.572,0.506
		c-0.741,1.236-1.494,2.277-2.257,3.127c-0.764,0.847-1.526,1.535-2.283,2.063c-0.759,0.528-1.502,0.91-2.233,1.146
		c-0.73,0.237-1.427,0.354-2.089,0.354c-0.483,0-0.995-0.067-1.534-0.202c-0.539-0.134-1.037-0.358-1.49-0.674
		c-0.457-0.314-0.833-0.736-1.13-1.265c-0.297-0.528-0.447-1.185-0.447-1.971c0-0.843,0.144-1.654,0.431-2.435
		c0.287-0.78,0.659-1.508,1.12-2.183c0.46-0.672,0.988-1.288,1.584-1.844c0.596-0.557,1.198-1.031,1.812-1.423
		c0.611-0.394,1.209-0.7,1.794-0.918c0.585-0.22,1.101-0.328,1.55-0.328c0.292,0,0.589,0.044,0.893,0.134
		c0.303,0.089,0.577,0.23,0.819,0.42c0.241,0.192,0.438,0.444,0.588,0.758c0.153,0.316,0.229,0.691,0.229,1.13
		c0,0.596-0.138,1.154-0.413,1.677c-0.276,0.523-0.644,1.004-1.104,1.447c-0.461,0.444-0.994,0.843-1.6,1.197
		c-0.607,0.354-1.242,0.655-1.904,0.9c-0.664,0.248-1.332,0.446-2.005,0.592C52.672,21.846,52.032,21.923,51.425,21.934
		 M51.559,21.211c0.753-0.079,1.46-0.237,2.124-0.473c0.662-0.236,1.27-0.523,1.819-0.868c0.55-0.341,1.042-0.716,1.475-1.12
		c0.432-0.403,0.795-0.813,1.086-1.23c0.292-0.415,0.517-0.814,0.674-1.195c0.157-0.382,0.236-0.726,0.236-1.028
		c0-0.304-0.081-0.544-0.243-0.725c-0.164-0.179-0.357-0.269-0.582-0.269c-0.494,0-1.05,0.177-1.668,0.53
		c-0.618,0.353-1.236,0.843-1.854,1.466c-0.618,0.624-1.198,1.356-1.742,2.199C52.337,19.339,51.896,20.245,51.559,21.211"/>
	<path fill="#FF594F" d="M69.815,24.581c0.359,0.281,0.836,0.422,1.433,0.422c0.64,0,1.245-0.103,1.812-0.305
		c0.567-0.201,1.097-0.468,1.592-0.801c0.495-0.329,0.95-0.698,1.365-1.103c0.415-0.403,0.789-0.811,1.12-1.221
		c0.33-0.41,0.624-0.797,0.876-1.163c0.255-0.365,0.458-0.672,0.615-0.92h0.943c-0.157,0.271-0.373,0.615-0.647,1.038
		c-0.276,0.421-0.602,0.867-0.979,1.339s-0.799,0.946-1.271,1.423c-0.473,0.479-0.992,0.908-1.561,1.29
		c-0.566,0.383-1.171,0.695-1.811,0.936s-1.319,0.362-2.038,0.362c-0.315,0-0.621-0.037-0.919-0.11
		c-0.297-0.072-0.587-0.188-0.869-0.345c-0.369,0.909-0.73,1.803-1.086,2.68c-0.354,0.875-0.69,1.706-1.012,2.492
		c-0.319,0.787-0.614,1.511-0.883,2.175c-0.271,0.663-0.506,1.238-0.708,1.727c-0.204,0.488-0.359,0.876-0.473,1.163
		c-0.111,0.286-0.173,0.436-0.184,0.446l-1.77-0.877c0.571-1.348,1.086-2.582,1.54-3.706c0.456-1.124,0.876-2.173,1.264-3.151
		c0.388-0.977,0.752-1.896,1.097-2.754c0.342-0.86,0.687-1.694,1.035-2.504c-0.179-0.257-0.311-0.511-0.396-0.757
		c-0.084-0.247-0.138-0.449-0.159-0.607c-0.023-0.258,0.047-0.474,0.209-0.648c0.163-0.175,0.374-0.262,0.632-0.262
		c0.215,0,0.41,0.074,0.59,0.22c0.337-0.809,0.639-1.52,0.901-2.133c0.265-0.61,0.486-1.124,0.666-1.541
		c0.202-0.483,0.383-0.903,0.539-1.264c0.977-2.302,1.885-4.293,2.723-5.973c0.836-1.678,1.607-3.105,2.316-4.28
		c0.707-1.173,1.354-2.123,1.937-2.847c0.585-0.725,1.115-1.289,1.594-1.694c0.478-0.404,0.906-0.676,1.288-0.818
		c0.382-0.14,0.724-0.209,1.028-0.209c0.493,0,0.912,0.108,1.255,0.328c0.343,0.219,0.536,0.593,0.582,1.121
		c0.044,0.517-0.048,1.168-0.278,1.954c-0.229,0.787-0.546,1.621-0.944,2.502c-0.398,0.882-0.861,1.772-1.391,2.671
		c-0.526,0.897-1.065,1.724-1.616,2.477c-1.044,1.416-1.992,2.589-2.839,3.521c-0.849,0.933-1.593,1.685-2.232,2.257
		c-0.641,0.573-1.175,0.998-1.602,1.273c-0.427,0.275-0.741,0.464-0.943,0.563L69.815,24.581z M82.958,2.002
		c-0.011-0.191-0.053-0.356-0.126-0.499c-0.072-0.14-0.222-0.208-0.447-0.208c-0.134,0-0.308,0.03-0.522,0.092
		c-0.213,0.062-0.462,0.194-0.748,0.396c-0.287,0.202-0.609,0.5-0.969,0.894c-0.361,0.394-0.761,0.921-1.206,1.583
		c-0.443,0.662-0.927,1.482-1.447,2.459c-0.523,0.978-1.082,2.157-1.679,3.539c-0.393,0.876-0.848,1.94-1.364,3.193
		c-0.517,1.252-1.084,2.609-1.701,4.07c0.528-0.371,1.08-0.834,1.66-1.391c0.577-0.557,1.162-1.169,1.752-1.837
		s1.171-1.378,1.744-2.131c0.572-0.752,1.118-1.517,1.634-2.292c0.517-0.775,0.99-1.543,1.424-2.308
		c0.434-0.763,0.804-1.491,1.113-2.183c0.308-0.69,0.541-1.325,0.698-1.903C82.931,2.897,82.992,2.406,82.958,2.002"/>
	<path fill="#FF594F" d="M65.19,36.46l-2.205-1.092l0.109-0.253c0.571-1.348,1.084-2.581,1.538-3.702
		c0.455-1.123,0.875-2.173,1.263-3.149c0.388-0.978,0.753-1.896,1.097-2.755c0.323-0.812,0.648-1.598,0.977-2.364
		c-0.149-0.233-0.265-0.467-0.342-0.694c-0.092-0.267-0.147-0.483-0.173-0.659c-0.032-0.359,0.065-0.652,0.286-0.89
		c0.221-0.235,0.504-0.354,0.845-0.354c0.157,0,0.308,0.029,0.45,0.087c0.286-0.683,0.543-1.29,0.773-1.824l0.666-1.54
		c0.2-0.482,0.381-0.905,0.539-1.266c0.974-2.295,1.894-4.31,2.728-5.986c0.838-1.679,1.619-3.125,2.329-4.3
		c0.711-1.18,1.371-2.15,1.959-2.881c0.595-0.736,1.144-1.32,1.632-1.734c0.501-0.423,0.965-0.715,1.376-0.867
		c1.086-0.398,1.913-0.254,2.543,0.146c0.42,0.269,0.661,0.72,0.714,1.342c0.049,0.557-0.046,1.231-0.288,2.062
		c-0.232,0.794-0.554,1.649-0.958,2.541c-0.4,0.887-0.873,1.793-1.404,2.699c-0.53,0.902-1.08,1.744-1.633,2.501
		c-1.049,1.418-2.01,2.61-2.859,3.545c-0.852,0.936-1.609,1.703-2.254,2.279c-0.648,0.58-1.2,1.017-1.639,1.299
		c-0.374,0.243-0.663,0.417-0.872,0.529l-2.207,5.292c0.282,0.156,0.639,0.237,1.068,0.237c0.604,0,1.18-0.097,1.712-0.287
		c0.543-0.192,1.057-0.45,1.529-0.767c0.477-0.319,0.921-0.681,1.323-1.071c0.406-0.396,0.775-0.797,1.096-1.195
		c0.33-0.406,0.621-0.793,0.864-1.146c0.251-0.361,0.452-0.664,0.608-0.907l0.087-0.138h1.613l-0.257,0.439
		c-0.159,0.275-0.378,0.624-0.656,1.051c-0.28,0.428-0.615,0.887-0.995,1.361c-0.381,0.479-0.814,0.966-1.29,1.446
		c-0.483,0.489-1.023,0.936-1.605,1.326c-0.582,0.393-1.211,0.718-1.87,0.968c-0.669,0.252-1.391,0.38-2.142,0.38
		c-0.337,0-0.67-0.038-0.988-0.118c-0.219-0.053-0.437-0.129-0.648-0.225c-0.328,0.807-0.65,1.602-0.965,2.385l-1.896,4.668
		c-0.271,0.662-0.507,1.239-0.708,1.729c-0.202,0.485-0.357,0.871-0.471,1.157c-0.189,0.486-0.202,0.497-0.25,0.547L65.19,36.46z
		 M63.739,35.091l1.245,0.615c0.018-0.046,0.037-0.097,0.06-0.153c0.113-0.287,0.271-0.677,0.474-1.169
		c0.202-0.487,0.438-1.063,0.709-1.724l1.894-4.667c0.354-0.878,0.719-1.771,1.088-2.681l0.125-0.306l0.289,0.161
		c0.257,0.144,0.523,0.25,0.794,0.315c0.272,0.067,0.56,0.102,0.85,0.102c0.68,0,1.331-0.113,1.936-0.343
		c0.615-0.231,1.205-0.537,1.75-0.904c0.551-0.37,1.06-0.791,1.515-1.252c0.462-0.467,0.882-0.938,1.251-1.401
		c0.367-0.46,0.691-0.902,0.962-1.317c0.14-0.214,0.265-0.409,0.374-0.583h-0.266c-0.145,0.223-0.322,0.487-0.533,0.793
		c-0.253,0.364-0.553,0.762-0.89,1.18c-0.336,0.415-0.721,0.835-1.145,1.247c-0.426,0.415-0.897,0.797-1.405,1.137
		c-0.513,0.343-1.068,0.624-1.658,0.833c-0.596,0.213-1.237,0.321-1.908,0.321c-0.659,0-1.203-0.163-1.612-0.484l-0.176-0.139
		l2.471-5.917l0.096-0.047c0.193-0.097,0.501-0.28,0.917-0.549c0.412-0.266,0.939-0.686,1.564-1.244
		c0.63-0.563,1.373-1.317,2.211-2.237c0.837-0.919,1.786-2.097,2.819-3.5c0.541-0.739,1.081-1.564,1.603-2.451
		c0.52-0.885,0.982-1.774,1.374-2.643c0.392-0.867,0.704-1.696,0.929-2.464c0.22-0.748,0.311-1.368,0.269-1.846
		c-0.037-0.438-0.184-0.731-0.448-0.9c-0.474-0.301-1.111-0.426-2.023-0.089c-0.349,0.127-0.752,0.386-1.201,0.767
		c-0.459,0.389-0.983,0.944-1.555,1.652c-0.572,0.71-1.217,1.658-1.914,2.816c-0.701,1.163-1.477,2.595-2.307,4.259
		c-0.83,1.666-1.743,3.671-2.713,5.958c-0.158,0.36-0.338,0.781-0.539,1.263l-0.666,1.544c-0.264,0.612-0.563,1.32-0.9,2.128
		l-0.15,0.36l-0.305-0.246c-0.28-0.229-0.628-0.193-0.824,0.016c-0.104,0.112-0.146,0.248-0.132,0.424
		c0.018,0.121,0.068,0.31,0.146,0.537c0.075,0.221,0.196,0.451,0.358,0.686l0.094,0.133l-0.065,0.15
		c-0.347,0.807-0.69,1.638-1.032,2.493c-0.344,0.86-0.709,1.778-1.095,2.756c-0.389,0.978-0.812,2.029-1.265,3.152
		C64.749,32.686,64.271,33.839,63.739,35.091 M72.08,18.347l0.397-0.94c0.618-1.46,1.186-2.815,1.7-4.067
		c0.516-1.25,0.977-2.326,1.37-3.201c0.594-1.379,1.162-2.578,1.686-3.556c0.524-0.982,1.017-1.818,1.463-2.486
		c0.451-0.672,0.864-1.217,1.232-1.618c0.371-0.407,0.714-0.721,1.017-0.935c0.316-0.224,0.591-0.367,0.837-0.438
		c0.872-0.252,1.188,0.032,1.31,0.264c0.091,0.176,0.146,0.382,0.159,0.611c0.035,0.437-0.03,0.964-0.194,1.571
		C82.896,4.143,82.654,4.799,82.34,5.5c-0.311,0.696-0.688,1.438-1.124,2.206c-0.433,0.767-0.916,1.549-1.435,2.327
		c-0.52,0.779-1.072,1.555-1.646,2.306c-0.574,0.757-1.165,1.479-1.757,2.148c-0.594,0.672-1.187,1.296-1.77,1.853
		c-0.585,0.563-1.155,1.042-1.694,1.42L72.08,18.347z M82.386,1.587c-0.073,0-0.209,0.014-0.44,0.082
		c-0.181,0.052-0.403,0.172-0.663,0.354c-0.268,0.189-0.579,0.476-0.921,0.851c-0.349,0.381-0.744,0.901-1.178,1.55
		c-0.436,0.65-0.92,1.47-1.434,2.434c-0.517,0.968-1.077,2.149-1.668,3.517c-0.393,0.874-0.849,1.945-1.363,3.19
		c-0.393,0.951-0.813,1.964-1.267,3.037c0.245-0.209,0.498-0.437,0.752-0.681c0.57-0.548,1.156-1.159,1.736-1.819
		c0.581-0.657,1.164-1.37,1.73-2.116c0.564-0.741,1.11-1.507,1.623-2.276c0.512-0.766,0.987-1.537,1.413-2.291
		s0.797-1.479,1.1-2.157c0.302-0.674,0.531-1.3,0.685-1.862c0.147-0.542,0.208-1.005,0.177-1.373l-0.001-0.006
		c-0.009-0.15-0.04-0.278-0.095-0.38C82.548,1.592,82.433,1.587,82.386,1.587"/>
	<path fill="#FF594F" d="M88.132,21.193c0.045,0.012,0.09,0.019,0.135,0.019h0.152c0.314,0,0.601-0.031,0.859-0.095
		c0.258-0.06,0.496-0.159,0.716-0.293c0.219-0.135,0.429-0.312,0.632-0.532c0.202-0.219,0.399-0.484,0.589-0.8l0.606,0.473
		c-0.538,0.765-1.095,1.297-1.667,1.6c-0.573,0.305-1.181,0.455-1.82,0.455c-0.236,0-0.443-0.021-0.623-0.067
		c-0.483,0.81-1,1.498-1.551,2.064c-0.551,0.568-1.112,1.031-1.686,1.39c-0.572,0.361-1.141,0.62-1.7,0.784
		c-0.563,0.163-1.085,0.245-1.567,0.245c-0.496,0-0.953-0.088-1.375-0.263c-0.42-0.174-0.783-0.425-1.087-0.749
		c-0.302-0.326-0.538-0.713-0.706-1.163c-0.169-0.449-0.254-0.954-0.254-1.516c0-0.561,0.091-1.135,0.271-1.721
		c0.179-0.583,0.424-1.161,0.73-1.734c0.312-0.571,0.673-1.125,1.088-1.66c0.416-0.533,0.864-1.031,1.348-1.491
		s0.983-0.875,1.501-1.246c0.515-0.372,1.033-0.675,1.55-0.911l0.539,0.708c-0.596,0.427-1.2,0.966-1.813,1.617
		c-0.612,0.652-1.169,1.367-1.667,2.141c-0.501,0.773-0.91,1.579-1.23,2.417c-0.319,0.836-0.479,1.648-0.479,2.435
		c0,0.708,0.156,1.256,0.473,1.643c0.313,0.387,0.79,0.583,1.431,0.583c0.494,0,0.982-0.103,1.466-0.305
		c0.482-0.203,0.955-0.477,1.416-0.826c0.46-0.348,0.902-0.761,1.331-1.238c0.426-0.479,0.831-0.986,1.213-1.525
		c-0.326-0.19-0.612-0.445-0.86-0.766c-0.247-0.321-0.454-0.686-0.622-1.097c-0.168-0.408-0.295-0.85-0.381-1.32
		c-0.083-0.472-0.125-0.956-0.125-1.45c0-0.493,0.062-0.961,0.186-1.399c0.124-0.438,0.294-0.822,0.513-1.153
		c0.221-0.331,0.476-0.592,0.768-0.783c0.292-0.192,0.611-0.287,0.961-0.287c0.313,0,0.596,0.082,0.842,0.245
		c0.247,0.163,0.455,0.387,0.624,0.673c0.169,0.286,0.298,0.627,0.388,1.02c0.09,0.394,0.135,0.816,0.135,1.264
		c0,0.337-0.029,0.708-0.084,1.112c-0.057,0.405-0.138,0.812-0.245,1.222s-0.235,0.813-0.388,1.213
		C88.511,20.522,88.334,20.878,88.132,21.193 M85.841,16.999c0,0.326,0.026,0.679,0.084,1.061c0.057,0.383,0.146,0.752,0.27,1.112
		s0.28,0.694,0.472,1.003c0.191,0.31,0.426,0.555,0.709,0.733c0.2-0.394,0.37-0.795,0.513-1.205
		c0.141-0.412,0.259-0.806,0.354-1.188c0.095-0.381,0.163-0.739,0.201-1.07c0.038-0.331,0.06-0.62,0.06-0.868
		c0-0.337-0.028-0.646-0.084-0.926c-0.056-0.281-0.133-0.525-0.229-0.733c-0.096-0.208-0.213-0.371-0.354-0.49
		c-0.142-0.117-0.295-0.176-0.462-0.176c-0.227,0-0.435,0.077-0.625,0.229c-0.191,0.151-0.354,0.353-0.489,0.606
		c-0.134,0.252-0.237,0.545-0.311,0.875C85.875,16.294,85.841,16.64,85.841,16.999"/>
	<path fill="#FF594F" d="M81.206,26.726c-0.529,0-1.029-0.096-1.484-0.283c-0.46-0.189-0.859-0.465-1.188-0.82
		c-0.329-0.353-0.588-0.777-0.77-1.261c-0.178-0.479-0.271-1.023-0.271-1.617c0-0.589,0.095-1.195,0.283-1.806
		c0.184-0.6,0.438-1.201,0.755-1.788c0.316-0.585,0.689-1.158,1.112-1.701c0.424-0.542,0.888-1.053,1.379-1.523
		c0.49-0.468,1.006-0.897,1.531-1.272c0.528-0.38,1.067-0.695,1.599-0.938l0.213-0.096l0.817,1.075
		c0.073-0.145,0.151-0.282,0.236-0.411c0.241-0.364,0.527-0.656,0.851-0.867c0.649-0.425,1.508-0.448,2.124-0.041
		c0.284,0.187,0.523,0.445,0.715,0.769c0.184,0.311,0.323,0.682,0.421,1.102c0.095,0.415,0.141,0.862,0.141,1.329
		c0,0.346-0.028,0.735-0.086,1.152c-0.059,0.414-0.143,0.836-0.25,1.253c-0.111,0.424-0.246,0.843-0.398,1.245
		c-0.092,0.241-0.194,0.471-0.304,0.686c0.206-0.012,0.401-0.039,0.577-0.081c0.227-0.054,0.439-0.14,0.632-0.258
		c0.195-0.121,0.386-0.284,0.57-0.48c0.188-0.204,0.374-0.459,0.554-0.755l0.171-0.28l1.087,0.845l-0.161,0.229
		c-0.564,0.798-1.159,1.367-1.771,1.691s-1.271,0.488-1.956,0.488c-0.173,0-0.332-0.011-0.479-0.034
		c-0.464,0.751-0.962,1.403-1.485,1.942c-0.563,0.581-1.148,1.063-1.738,1.434c-0.592,0.372-1.191,0.647-1.776,0.818
		C82.268,26.64,81.714,26.726,81.206,26.726 M84.186,14.348c-0.431,0.212-0.863,0.475-1.292,0.781
		c-0.503,0.36-0.996,0.771-1.469,1.222c-0.471,0.447-0.914,0.938-1.318,1.459c-0.404,0.518-0.761,1.061-1.062,1.62
		c-0.297,0.552-0.536,1.117-0.709,1.681c-0.171,0.555-0.259,1.104-0.259,1.634c0,0.523,0.081,1,0.236,1.413
		c0.153,0.412,0.371,0.771,0.646,1.066c0.273,0.294,0.604,0.521,0.985,0.678c0.766,0.318,1.68,0.316,2.747,0.008
		c0.532-0.156,1.081-0.408,1.629-0.751c0.549-0.345,1.098-0.798,1.629-1.346c0.53-0.549,1.039-1.225,1.509-2.012l0.111-0.186
		l0.212,0.053c0.155,0.039,0.341,0.058,0.552,0.058c0.589,0,1.155-0.142,1.684-0.42c0.472-0.251,0.941-0.682,1.401-1.285
		l-0.131-0.101c-0.144,0.214-0.295,0.405-0.447,0.57c-0.22,0.238-0.453,0.432-0.693,0.581c-0.245,0.151-0.516,0.263-0.802,0.331
		c-0.278,0.066-0.591,0.1-0.927,0.1h-0.152c-0.069,0-0.14-0.008-0.207-0.026l-0.393-0.1l0.221-0.341
		c0.189-0.297,0.358-0.637,0.502-1.015c0.146-0.385,0.272-0.781,0.378-1.185c0.102-0.396,0.183-0.796,0.236-1.188
		c0.055-0.39,0.082-0.75,0.082-1.072c0-0.424-0.043-0.827-0.127-1.199c-0.084-0.363-0.202-0.676-0.354-0.936
		c-0.145-0.247-0.324-0.44-0.531-0.579c-0.429-0.282-1.021-0.261-1.483,0.042c-0.256,0.169-0.486,0.404-0.684,0.701
		c-0.199,0.305-0.361,0.666-0.476,1.072c-0.116,0.409-0.175,0.853-0.175,1.319c0,0.474,0.042,0.944,0.123,1.397
		c0.08,0.45,0.201,0.874,0.36,1.262c0.158,0.385,0.354,0.73,0.586,1.029c0.224,0.289,0.483,0.522,0.775,0.693l0.275,0.16
		l-0.185,0.261c-0.387,0.546-0.803,1.068-1.233,1.552c-0.438,0.487-0.899,0.917-1.373,1.275c-0.477,0.36-0.977,0.651-1.479,0.862
		c-0.518,0.217-1.049,0.327-1.579,0.327c-0.729,0-1.287-0.233-1.66-0.689c-0.354-0.439-0.535-1.056-0.535-1.828
		c0-0.818,0.167-1.673,0.497-2.539c0.328-0.854,0.751-1.686,1.259-2.471c0.507-0.786,1.078-1.52,1.7-2.182
		c0.541-0.574,1.083-1.071,1.612-1.476L84.186,14.348z M85.119,14.83l-0.136,0.098c-0.577,0.415-1.173,0.946-1.77,1.58
		c-0.598,0.637-1.147,1.344-1.635,2.1c-0.486,0.752-0.892,1.547-1.204,2.362c-0.305,0.8-0.461,1.584-0.461,2.331
		c0,0.636,0.139,1.128,0.407,1.459c0.259,0.318,0.652,0.473,1.205,0.473c0.453,0,0.908-0.095,1.354-0.28
		c0.457-0.192,0.913-0.457,1.351-0.79c0.443-0.335,0.878-0.739,1.289-1.2c0.353-0.394,0.693-0.814,1.017-1.254
		c-0.249-0.182-0.475-0.404-0.675-0.663c-0.263-0.341-0.485-0.731-0.663-1.163c-0.176-0.427-0.308-0.891-0.397-1.382
		c-0.086-0.488-0.13-0.993-0.13-1.501c0-0.519,0.065-1.016,0.196-1.478C84.938,15.277,85.021,15.046,85.119,14.83 M87.485,21.328
		l-0.271-0.175c-0.316-0.201-0.585-0.479-0.798-0.825c-0.202-0.325-0.371-0.682-0.5-1.062c-0.129-0.374-0.224-0.766-0.281-1.164
		c-0.058-0.393-0.088-0.764-0.088-1.104c0-0.38,0.039-0.75,0.117-1.1c0.077-0.354,0.191-0.674,0.338-0.95
		c0.154-0.287,0.344-0.522,0.565-0.698c0.443-0.35,1.025-0.409,1.457-0.045c0.173,0.145,0.318,0.343,0.432,0.591
		c0.104,0.228,0.188,0.496,0.248,0.798c0.061,0.299,0.09,0.63,0.09,0.983c0,0.258-0.021,0.561-0.061,0.903
		c-0.042,0.341-0.112,0.714-0.209,1.105c-0.099,0.389-0.221,0.799-0.362,1.213c-0.144,0.421-0.321,0.84-0.529,1.243L87.485,21.328z
		 M87.375,14.545c-0.16,0-0.304,0.052-0.443,0.164c-0.158,0.125-0.297,0.299-0.413,0.515c-0.121,0.228-0.215,0.499-0.282,0.802
		c-0.069,0.307-0.104,0.635-0.104,0.973c0,0.311,0.027,0.653,0.08,1.019c0.054,0.361,0.141,0.718,0.258,1.06
		c0.116,0.337,0.265,0.654,0.443,0.944c0.104,0.166,0.222,0.312,0.354,0.436c0.13-0.278,0.245-0.563,0.343-0.849
		c0.136-0.398,0.255-0.791,0.348-1.164c0.092-0.367,0.157-0.715,0.196-1.035c0.036-0.318,0.055-0.597,0.055-0.832
		c0-0.313-0.026-0.607-0.077-0.87c-0.051-0.256-0.122-0.481-0.208-0.669c-0.077-0.167-0.169-0.297-0.275-0.385
		C87.561,14.579,87.474,14.545,87.375,14.545"/>
	<path fill="#FF594F" d="M100.72,21.193c0.044,0.012,0.089,0.019,0.134,0.019h0.151c0.314,0,0.601-0.031,0.86-0.095
		c0.257-0.06,0.496-0.159,0.715-0.293c0.219-0.135,0.43-0.312,0.632-0.532c0.204-0.219,0.399-0.484,0.589-0.8l0.607,0.473
		c-0.539,0.765-1.096,1.297-1.667,1.6c-0.573,0.305-1.181,0.455-1.82,0.455c-0.236,0-0.443-0.021-0.624-0.067
		c-0.483,0.81-1,1.498-1.55,2.064c-0.55,0.568-1.112,1.031-1.684,1.39c-0.575,0.361-1.141,0.62-1.703,0.784
		c-0.562,0.163-1.084,0.245-1.566,0.245c-0.496,0-0.952-0.088-1.373-0.263c-0.421-0.174-0.783-0.425-1.087-0.749
		c-0.303-0.326-0.542-0.713-0.708-1.163c-0.169-0.449-0.253-0.954-0.253-1.516c0-0.561,0.09-1.135,0.27-1.721
		c0.18-0.583,0.425-1.161,0.732-1.734c0.311-0.571,0.671-1.125,1.088-1.66c0.415-0.533,0.864-1.031,1.347-1.491
		c0.483-0.46,0.982-0.875,1.501-1.246c0.517-0.372,1.032-0.675,1.549-0.911l0.539,0.708c-0.594,0.427-1.198,0.966-1.811,1.617
		c-0.611,0.652-1.169,1.367-1.668,2.141c-0.5,0.773-0.911,1.579-1.231,2.417c-0.317,0.836-0.479,1.648-0.479,2.435
		c0,0.708,0.158,1.256,0.473,1.643s0.792,0.583,1.433,0.583c0.493,0,0.983-0.103,1.465-0.305c0.483-0.203,0.955-0.477,1.416-0.826
		c0.461-0.348,0.904-0.761,1.331-1.238c0.426-0.479,0.831-0.986,1.214-1.525c-0.326-0.19-0.614-0.445-0.861-0.766
		c-0.245-0.321-0.454-0.686-0.622-1.097c-0.168-0.408-0.295-0.85-0.379-1.32c-0.084-0.472-0.125-0.956-0.125-1.45
		c0-0.493,0.06-0.961,0.183-1.399c0.124-0.438,0.297-0.822,0.516-1.153c0.219-0.331,0.475-0.592,0.767-0.783
		c0.291-0.192,0.612-0.287,0.961-0.287c0.313,0,0.594,0.082,0.842,0.245c0.246,0.163,0.453,0.387,0.623,0.673
		c0.168,0.286,0.299,0.627,0.388,1.02c0.089,0.394,0.134,0.816,0.134,1.264c0,0.337-0.026,0.708-0.083,1.112
		c-0.057,0.405-0.138,0.812-0.245,1.222s-0.235,0.813-0.388,1.213C101.097,20.522,100.921,20.878,100.72,21.193 M98.427,16.999
		c0,0.326,0.028,0.679,0.084,1.061c0.057,0.383,0.146,0.752,0.27,1.112c0.124,0.359,0.282,0.694,0.473,1.003
		c0.189,0.31,0.427,0.555,0.708,0.733c0.202-0.394,0.373-0.795,0.514-1.205c0.14-0.412,0.258-0.806,0.354-1.188
		c0.095-0.381,0.164-0.739,0.202-1.07c0.04-0.331,0.06-0.62,0.06-0.868c0-0.337-0.027-0.646-0.085-0.926
		c-0.056-0.281-0.133-0.525-0.228-0.733c-0.095-0.208-0.214-0.371-0.354-0.49c-0.14-0.117-0.296-0.176-0.463-0.176
		c-0.225,0-0.433,0.077-0.623,0.229c-0.192,0.151-0.354,0.353-0.489,0.606c-0.135,0.252-0.24,0.545-0.313,0.875
		C98.463,16.294,98.427,16.64,98.427,16.999"/>
	<path fill="#FF594F" d="M93.792,26.726c-0.528,0-1.028-0.096-1.483-0.283c-0.459-0.189-0.859-0.465-1.189-0.82
		c-0.328-0.353-0.586-0.777-0.769-1.261c-0.179-0.479-0.27-1.023-0.27-1.617c0-0.589,0.094-1.195,0.282-1.806
		c0.186-0.6,0.439-1.201,0.754-1.788c0.316-0.585,0.691-1.158,1.113-1.701c0.424-0.542,0.888-1.053,1.378-1.523
		c0.492-0.468,1.006-0.897,1.531-1.272c0.53-0.38,1.067-0.695,1.599-0.938l0.213-0.096l0.82,1.075
		c0.07-0.145,0.149-0.282,0.233-0.411c0.242-0.364,0.527-0.656,0.853-0.867c0.65-0.425,1.506-0.448,2.124-0.041
		c0.283,0.187,0.524,0.445,0.715,0.769c0.182,0.311,0.324,0.682,0.42,1.102c0.095,0.415,0.143,0.862,0.143,1.329
		c0,0.346-0.031,0.735-0.087,1.152c-0.058,0.414-0.143,0.836-0.252,1.253c-0.109,0.424-0.244,0.843-0.397,1.245
		c-0.091,0.241-0.194,0.471-0.305,0.686c0.209-0.012,0.402-0.039,0.579-0.081c0.226-0.054,0.438-0.14,0.632-0.258
		c0.194-0.121,0.387-0.284,0.568-0.48c0.188-0.204,0.377-0.459,0.555-0.755l0.171-0.28l1.087,0.845l-0.162,0.229
		c-0.563,0.798-1.159,1.367-1.771,1.691c-0.612,0.324-1.271,0.488-1.956,0.488c-0.172,0-0.332-0.011-0.48-0.034
		c-0.462,0.751-0.961,1.403-1.483,1.942c-0.564,0.581-1.149,1.063-1.739,1.434c-0.592,0.372-1.189,0.647-1.777,0.818
		C94.856,26.64,94.3,26.726,93.792,26.726 M96.771,14.348c-0.429,0.212-0.862,0.475-1.291,0.781c-0.502,0.36-0.996,0.771-1.47,1.222
		c-0.469,0.447-0.913,0.938-1.318,1.459c-0.402,0.518-0.759,1.061-1.06,1.62c-0.299,0.552-0.538,1.117-0.712,1.681
		c-0.169,0.555-0.255,1.104-0.255,1.634c0,0.523,0.078,1,0.233,1.413c0.154,0.412,0.372,0.771,0.647,1.066
		c0.272,0.294,0.604,0.521,0.984,0.678c0.767,0.318,1.68,0.316,2.749,0.008c0.532-0.156,1.08-0.408,1.627-0.751
		c0.551-0.345,1.098-0.798,1.629-1.346c0.532-0.549,1.041-1.225,1.51-2.012l0.112-0.186l0.212,0.053
		c0.153,0.039,0.339,0.058,0.551,0.058c0.589,0,1.155-0.142,1.683-0.42c0.473-0.251,0.944-0.682,1.402-1.285l-0.131-0.101
		c-0.145,0.214-0.296,0.405-0.447,0.57c-0.219,0.238-0.454,0.432-0.693,0.581c-0.246,0.151-0.516,0.263-0.802,0.331
		c-0.279,0.066-0.592,0.1-0.928,0.1h-0.151c-0.07,0-0.141-0.008-0.207-0.026l-0.394-0.1l0.22-0.341
		c0.19-0.297,0.359-0.637,0.504-1.015c0.146-0.385,0.272-0.781,0.378-1.185c0.104-0.396,0.182-0.796,0.238-1.188
		c0.054-0.39,0.082-0.75,0.082-1.072c0-0.424-0.045-0.827-0.128-1.199c-0.085-0.363-0.204-0.676-0.356-0.936
		c-0.144-0.247-0.323-0.44-0.531-0.579c-0.43-0.282-1.02-0.261-1.482,0.042c-0.257,0.169-0.486,0.404-0.684,0.701
		c-0.2,0.305-0.361,0.666-0.475,1.072c-0.117,0.409-0.174,0.853-0.174,1.319c0,0.474,0.039,0.944,0.12,1.397
		c0.08,0.45,0.204,0.874,0.361,1.262c0.158,0.385,0.354,0.73,0.585,1.029c0.225,0.289,0.483,0.522,0.776,0.693l0.274,0.16
		l-0.184,0.261c-0.388,0.546-0.802,1.068-1.233,1.552c-0.438,0.487-0.899,0.917-1.373,1.275c-0.479,0.36-0.975,0.651-1.479,0.862
		c-0.518,0.217-1.048,0.327-1.577,0.327c-0.731,0-1.29-0.233-1.661-0.689c-0.356-0.439-0.537-1.056-0.537-1.828
		c0-0.818,0.167-1.673,0.5-2.539c0.325-0.854,0.75-1.686,1.258-2.471c0.505-0.786,1.077-1.52,1.699-2.182
		c0.541-0.574,1.083-1.071,1.613-1.476L96.771,14.348z M97.705,14.83l-0.136,0.098c-0.577,0.415-1.173,0.946-1.767,1.58
		c-0.6,0.637-1.15,1.344-1.637,2.1c-0.485,0.752-0.893,1.547-1.203,2.362c-0.306,0.8-0.462,1.584-0.462,2.331
		c0,0.636,0.138,1.128,0.407,1.459c0.259,0.318,0.654,0.473,1.207,0.473c0.45,0,0.906-0.095,1.353-0.28
		c0.457-0.192,0.912-0.457,1.352-0.79c0.443-0.335,0.877-0.739,1.289-1.2c0.353-0.394,0.694-0.814,1.016-1.254
		c-0.25-0.182-0.476-0.404-0.676-0.663c-0.263-0.341-0.485-0.731-0.662-1.163c-0.175-0.427-0.309-0.891-0.396-1.382
		c-0.087-0.488-0.132-0.993-0.132-1.501c0-0.519,0.067-1.016,0.198-1.478C97.523,15.277,97.607,15.046,97.705,14.83 M100.074,21.328
		l-0.271-0.175c-0.318-0.201-0.586-0.479-0.8-0.825c-0.2-0.325-0.368-0.682-0.498-1.062c-0.13-0.374-0.224-0.766-0.283-1.164
		c-0.057-0.393-0.086-0.764-0.086-1.104c0-0.38,0.038-0.75,0.115-1.1c0.079-0.354,0.191-0.674,0.34-0.95
		c0.152-0.287,0.344-0.522,0.564-0.698c0.442-0.35,1.025-0.409,1.457-0.045c0.173,0.145,0.317,0.343,0.431,0.591
		c0.105,0.228,0.188,0.496,0.249,0.798c0.06,0.299,0.09,0.63,0.09,0.983c0,0.258-0.021,0.561-0.06,0.903
		c-0.042,0.341-0.112,0.714-0.209,1.105c-0.099,0.389-0.219,0.799-0.363,1.213c-0.145,0.421-0.322,0.84-0.53,1.243L100.074,21.328z
		 M99.961,14.545c-0.159,0-0.304,0.052-0.441,0.164c-0.158,0.125-0.299,0.299-0.412,0.515c-0.122,0.228-0.217,0.499-0.284,0.802
		c-0.07,0.307-0.104,0.635-0.104,0.973c0,0.311,0.027,0.653,0.081,1.019c0.054,0.361,0.14,0.718,0.257,1.06
		c0.115,0.337,0.266,0.654,0.445,0.944c0.102,0.166,0.221,0.312,0.353,0.436c0.13-0.278,0.244-0.563,0.342-0.849
		c0.138-0.398,0.256-0.791,0.348-1.164c0.092-0.367,0.156-0.715,0.195-1.035c0.038-0.318,0.057-0.597,0.057-0.832
		c0-0.313-0.025-0.607-0.077-0.87c-0.053-0.256-0.121-0.481-0.208-0.669c-0.078-0.167-0.169-0.297-0.274-0.385
		C100.148,14.579,100.062,14.545,99.961,14.545"/>
	<path fill="#FF594F" d="M122.591,3.636c-0.124,0.181-0.326,0.478-0.606,0.893c-0.282,0.417-0.607,0.911-0.979,1.483
		c-0.371,0.572-0.771,1.208-1.206,1.904c-0.432,0.697-0.863,1.416-1.295,2.157c-0.434,0.741-0.854,1.491-1.266,2.25
		c-0.409,0.758-0.772,1.485-1.086,2.182c-0.495,1.077-0.901,2.041-1.223,2.889c-0.32,0.848-0.571,1.604-0.758,2.267
		c-0.185,0.662-0.313,1.237-0.388,1.727c-0.073,0.489-0.108,0.908-0.108,1.256c0,0.641,0.098,1.083,0.295,1.331
		c0.196,0.248,0.464,0.371,0.801,0.371c0.348,0,0.681-0.09,1.002-0.271c0.32-0.179,0.629-0.408,0.927-0.69
		c0.297-0.28,0.578-0.601,0.842-0.959c0.264-0.359,0.511-0.719,0.741-1.079c0.23-0.359,0.441-0.702,0.633-1.027
		c0.19-0.325,0.359-0.601,0.506-0.826l0.606,0.473c-0.125,0.202-0.279,0.47-0.464,0.799c-0.185,0.332-0.396,0.694-0.633,1.088
		c-0.234,0.393-0.504,0.789-0.808,1.188c-0.304,0.397-0.638,0.76-1.002,1.087c-0.367,0.326-0.771,0.591-1.215,0.8
		c-0.443,0.208-0.923,0.311-1.439,0.311c-0.248,0-0.509-0.034-0.784-0.1c-0.275-0.068-0.53-0.186-0.767-0.354
		c-0.235-0.167-0.443-0.402-0.623-0.698c-0.18-0.298-0.298-0.679-0.354-1.14c-0.842,0.911-1.663,1.6-2.46,2.066
		c-0.798,0.466-1.55,0.698-2.257,0.698c-0.361,0-0.756-0.062-1.188-0.185c-0.434-0.124-0.84-0.338-1.222-0.641
		c-0.383-0.304-0.702-0.704-0.96-1.206c-0.258-0.498-0.388-1.12-0.388-1.86c0-0.832,0.13-1.624,0.388-2.376
		c0.258-0.753,0.606-1.451,1.044-2.098c0.438-0.645,0.941-1.23,1.508-1.752c0.568-0.522,1.16-0.966,1.777-1.33
		c0.618-0.367,1.239-0.65,1.862-0.852c0.623-0.204,1.211-0.303,1.763-0.303c0.729,0,1.302,0.09,1.718,0.27
		c0.415,0.18,0.729,0.358,0.943,0.54c0.157-0.316,0.37-0.717,0.64-1.206c0.271-0.489,0.585-1.034,0.943-1.635
		c0.358-0.6,0.759-1.242,1.197-1.921c0.438-0.679,0.903-1.365,1.398-2.055c0.493-0.69,1.013-1.374,1.559-2.048
		c0.544-0.674,1.098-1.303,1.659-1.886L122.591,3.636z M111.924,21.682c0.055-0.831,0.249-1.812,0.582-2.939
		c0.331-1.129,0.84-2.43,1.524-3.902c-0.158-0.235-0.379-0.416-0.666-0.547c-0.285-0.128-0.609-0.194-0.969-0.194
		c-0.551,0-1.108,0.112-1.677,0.338c-0.566,0.225-1.111,0.528-1.636,0.91c-0.521,0.38-1.012,0.834-1.474,1.355
		c-0.459,0.522-0.861,1.082-1.204,1.677c-0.344,0.594-0.612,1.215-0.808,1.86c-0.197,0.647-0.295,1.285-0.295,1.914
		c0,0.842,0.176,1.499,0.529,1.972c0.354,0.47,0.829,0.707,1.425,0.707c0.28,0,0.589-0.056,0.926-0.168
		c0.338-0.114,0.704-0.296,1.104-0.55c0.399-0.25,0.816-0.576,1.254-0.977C110.98,22.741,111.44,22.256,111.924,21.682"/>
	<path fill="#FF594F" d="M107.224,26.002c-0.386,0-0.813-0.066-1.27-0.197c-0.467-0.133-0.913-0.366-1.323-0.692
		c-0.413-0.328-0.762-0.765-1.038-1.3c-0.278-0.539-0.42-1.21-0.42-1.995c0-0.859,0.136-1.691,0.402-2.471
		c0.267-0.772,0.63-1.501,1.08-2.168c0.449-0.66,0.971-1.267,1.551-1.802c0.582-0.536,1.195-0.994,1.829-1.368
		c0.634-0.375,1.28-0.67,1.92-0.877c0.65-0.211,1.271-0.317,1.853-0.317c0.775,0,1.376,0.095,1.833,0.293
		c0.286,0.124,0.526,0.247,0.723,0.371c0.134-0.259,0.298-0.563,0.489-0.91c0.271-0.492,0.586-1.039,0.948-1.643
		c0.362-0.603,0.762-1.246,1.202-1.93c0.438-0.683,0.912-1.377,1.407-2.067c0.498-0.696,1.025-1.39,1.567-2.061
		c0.547-0.675,1.11-1.317,1.677-1.907l0.167-0.174l1.181,0.768l-0.171,0.246c-0.123,0.18-0.325,0.478-0.606,0.892
		c-0.278,0.415-0.603,0.906-0.973,1.479c-0.37,0.57-0.771,1.205-1.203,1.898c-0.431,0.695-0.861,1.412-1.293,2.151
		c-0.43,0.738-0.852,1.492-1.259,2.241c-0.405,0.748-0.768,1.477-1.076,2.164c-0.492,1.069-0.899,2.036-1.215,2.872
		c-0.315,0.833-0.567,1.587-0.752,2.243c-0.182,0.647-0.309,1.218-0.379,1.692c-0.071,0.471-0.107,0.879-0.107,1.211
		c0,0.71,0.127,1.017,0.232,1.149c0.141,0.178,0.322,0.26,0.572,0.26c0.3,0,0.581-0.076,0.858-0.231
		c0.298-0.168,0.59-0.386,0.868-0.649c0.285-0.268,0.557-0.577,0.809-0.92c0.259-0.355,0.507-0.713,0.731-1.063
		c0.228-0.355,0.437-0.695,0.625-1.018c0.194-0.331,0.365-0.61,0.514-0.838l0.174-0.268l1.063,0.829l-0.136,0.223
		c-0.123,0.199-0.274,0.464-0.457,0.791c-0.187,0.333-0.399,0.698-0.637,1.094c-0.24,0.403-0.521,0.811-0.827,1.215
		c-0.313,0.41-0.664,0.792-1.041,1.129c-0.384,0.342-0.816,0.627-1.283,0.846c-0.713,0.334-1.507,0.453-2.419,0.23
		c-0.309-0.076-0.601-0.211-0.867-0.401s-0.504-0.454-0.702-0.786c-0.119-0.194-0.214-0.422-0.285-0.678
		c-0.723,0.729-1.438,1.302-2.132,1.707C108.788,25.753,107.979,26.002,107.224,26.002 M111.808,13.398
		c-0.519,0-1.081,0.098-1.673,0.29c-0.599,0.194-1.205,0.471-1.803,0.825c-0.596,0.351-1.178,0.79-1.728,1.294
		c-0.55,0.505-1.041,1.077-1.466,1.701c-0.421,0.623-0.76,1.304-1.009,2.028c-0.248,0.72-0.373,1.486-0.373,2.282
		c0,0.689,0.119,1.272,0.355,1.727c0.238,0.461,0.535,0.835,0.883,1.11c0.351,0.278,0.727,0.478,1.12,0.588
		c0.404,0.115,0.776,0.175,1.108,0.175c0.65,0,1.36-0.223,2.109-0.659c0.77-0.45,1.573-1.127,2.394-2.011l0.43-0.463l0.074,0.627
		c0.052,0.418,0.156,0.76,0.314,1.021c0.158,0.262,0.34,0.469,0.544,0.612c0.204,0.146,0.428,0.25,0.666,0.308
		c0.782,0.192,1.438,0.086,2.03-0.19c0.416-0.196,0.8-0.449,1.142-0.754c0.35-0.312,0.675-0.664,0.965-1.046
		c0.295-0.387,0.562-0.777,0.792-1.16c0.233-0.391,0.442-0.75,0.626-1.08c0.126-0.225,0.237-0.42,0.336-0.585l-0.148-0.115
		c-0.102,0.161-0.21,0.344-0.328,0.544c-0.194,0.329-0.407,0.676-0.638,1.038c-0.231,0.362-0.485,0.729-0.752,1.093
		c-0.273,0.372-0.567,0.709-0.879,1c-0.313,0.296-0.643,0.543-0.982,0.733c-0.75,0.422-1.691,0.437-2.177-0.173
		c-0.241-0.304-0.356-0.799-0.356-1.514c0-0.36,0.036-0.797,0.112-1.298c0.074-0.5,0.207-1.092,0.394-1.764
		c0.188-0.672,0.447-1.441,0.768-2.29c0.32-0.852,0.734-1.83,1.229-2.91c0.315-0.697,0.684-1.438,1.096-2.199
		c0.408-0.754,0.835-1.514,1.269-2.257c0.434-0.744,0.867-1.465,1.302-2.164c0.434-0.698,0.836-1.335,1.207-1.909
		c0.372-0.574,0.697-1.071,0.98-1.487c0.177-0.263,0.322-0.478,0.439-0.647l-0.271-0.177c-0.499,0.529-0.994,1.098-1.477,1.694
		c-0.536,0.662-1.056,1.347-1.548,2.033c-0.487,0.682-0.956,1.37-1.391,2.044c-0.437,0.676-0.833,1.314-1.19,1.912
		c-0.357,0.599-0.67,1.141-0.939,1.628c-0.268,0.483-0.479,0.88-0.634,1.194l-0.166,0.331l-0.284-0.239
		c-0.19-0.16-0.484-0.326-0.873-0.495C113.031,13.482,112.491,13.398,111.808,13.398 M107.257,25.126
		c-0.689,0-1.248-0.278-1.659-0.825c-0.39-0.521-0.588-1.244-0.588-2.146c0-0.656,0.103-1.328,0.308-1.998
		c0.202-0.665,0.481-1.311,0.836-1.922c0.349-0.608,0.767-1.189,1.237-1.724c0.472-0.535,0.984-1.005,1.521-1.399
		c0.539-0.395,1.112-0.714,1.699-0.946c1.009-0.401,2.077-0.497,2.874-0.137c0.335,0.151,0.601,0.37,0.787,0.651l0.092,0.137
		l-0.069,0.15c-0.676,1.451-1.184,2.75-1.509,3.86c-0.323,1.103-0.517,2.071-0.57,2.876l-0.006,0.097l-0.062,0.073
		c-0.491,0.581-0.966,1.082-1.41,1.485c-0.447,0.407-0.883,0.747-1.295,1.007c-0.415,0.265-0.809,0.459-1.167,0.578
		C107.911,25.063,107.568,25.126,107.257,25.126 M112.396,14.393c-0.511,0-1.038,0.106-1.569,0.316
		c-0.54,0.214-1.069,0.508-1.569,0.875c-0.504,0.368-0.983,0.81-1.427,1.313c-0.445,0.506-0.839,1.054-1.171,1.629
		c-0.33,0.573-0.593,1.179-0.781,1.801c-0.188,0.615-0.283,1.229-0.283,1.828c0,0.773,0.158,1.378,0.472,1.796
		c0.446,0.594,1.103,0.745,2.024,0.438c0.312-0.105,0.662-0.279,1.038-0.519c0.385-0.243,0.793-0.561,1.216-0.947
		c0.406-0.369,0.842-0.825,1.295-1.356c0.065-0.827,0.262-1.805,0.585-2.905c0.321-1.096,0.815-2.367,1.465-3.781
		c-0.115-0.131-0.263-0.236-0.445-0.319C112.997,14.45,112.711,14.393,112.396,14.393"/>
	<path fill="#FFFFFF" d="M0.408,34.075v-0.525c0-0.397,0.009-0.648,0.028-0.752c0.019-0.104,0.042-0.215,0.066-0.336
		c0.024-0.118,0.054-0.203,0.089-0.249c0.036-0.047,0.08-0.103,0.132-0.168c0.051-0.065,0.115-0.109,0.192-0.131
		c0.186-0.066,0.374-0.1,0.565-0.1l0.68,0.108c0,0.239-0.099,0.359-0.295,0.359c-0.039,0-0.077-0.003-0.115-0.009l-0.27-0.025
		c-0.278,0-0.447,0.117-0.508,0.35c-0.06,0.232-0.09,0.632-0.09,1.199c0,0.568,0.002,0.936,0.008,1.105
		c0.005,0.169,0.026,0.348,0.066,0.537c0.038,0.188,0.097,0.311,0.18,0.367c0.081,0.059,0.197,0.087,0.343,0.087l0.712-0.083v0.378
		L1.48,36.327c-0.295,0-0.491-0.036-0.589-0.106c-0.098-0.07-0.172-0.129-0.221-0.175c-0.05-0.047-0.091-0.131-0.127-0.25
		c-0.036-0.121-0.062-0.221-0.078-0.304c-0.017-0.082-0.03-0.217-0.042-0.4C0.413,34.774,0.408,34.435,0.408,34.075"/>
	<path fill="#FFFFFF" d="M6.009,36.233c-0.077,0.025-0.115,0.036-0.115,0.036s-0.047,0.01-0.143,0.028
		c-0.095,0.02-0.21,0.029-0.344,0.029c-0.133,0-0.253-0.008-0.359-0.024c-0.108-0.016-0.2-0.053-0.279-0.106
		c-0.079-0.055-0.145-0.104-0.197-0.15c-0.051-0.047-0.094-0.131-0.131-0.251c-0.036-0.12-0.062-0.22-0.082-0.303
		c-0.019-0.082-0.033-0.217-0.04-0.404c-0.01-0.19-0.014-0.344-0.018-0.464c-0.002-0.12-0.003-0.311-0.003-0.573
		s0.001-0.453,0.003-0.568c0.004-0.118,0.008-0.27,0.018-0.458c0.007-0.189,0.021-0.323,0.04-0.402
		c0.02-0.08,0.046-0.178,0.082-0.296c0.037-0.117,0.08-0.196,0.131-0.24c0.052-0.044,0.119-0.09,0.202-0.14
		c0.125-0.088,0.295-0.132,0.51-0.132c0.217,0,0.373,0.011,0.468,0.029c0.096,0.019,0.182,0.04,0.258,0.062s0.142,0.067,0.196,0.136
		c0.055,0.067,0.101,0.125,0.139,0.172c0.039,0.046,0.068,0.128,0.09,0.245c0.022,0.117,0.04,0.213,0.053,0.287
		c0.014,0.072,0.025,0.198,0.033,0.373c0.007,0.174,0.013,0.316,0.013,0.424v0.509v0.033v0.5c0,0.371-0.012,0.613-0.034,0.732
		c-0.021,0.117-0.042,0.235-0.065,0.355c-0.022,0.12-0.051,0.205-0.09,0.249c-0.038,0.048-0.084,0.104-0.139,0.173
		S6.085,36.208,6.009,36.233 M6.049,34.239v-0.279c0-0.714-0.03-1.164-0.089-1.35c-0.087-0.235-0.268-0.356-0.541-0.36
		c-0.224,0-0.374,0.057-0.451,0.17c-0.042,0.077-0.078,0.149-0.105,0.215c-0.027,0.065-0.046,0.179-0.058,0.344
		c-0.017,0.24-0.025,0.472-0.025,0.696v0.675c0,0.228,0.003,0.422,0.009,0.586c0.005,0.163,0.029,0.336,0.07,0.519
		c0.04,0.184,0.105,0.302,0.192,0.356c0.087,0.057,0.197,0.083,0.328,0.083c0.132,0,0.231-0.013,0.303-0.037
		c0.071-0.024,0.129-0.07,0.176-0.14c0.047-0.066,0.082-0.136,0.105-0.205c0.025-0.067,0.043-0.176,0.054-0.322
		C6.038,34.975,6.049,34.659,6.049,34.239"/>
	<path fill="#FFFFFF" d="M8.726,34.05v-2.178c0.242,0,0.382,0.015,0.423,0.045c0.041,0.03,0.061,0.14,0.061,0.33v1.785
		c0,0.634,0.018,1.067,0.053,1.299c0.036,0.232,0.09,0.383,0.164,0.455C9.5,35.856,9.6,35.893,9.725,35.893l0.812-0.378
		l-0.042-0.203v-3.439c0.241,0,0.382,0.015,0.422,0.045c0.041,0.03,0.062,0.14,0.062,0.33v4.021c-0.241,0-0.381-0.013-0.422-0.041
		s-0.062-0.122-0.062-0.286l-0.736,0.385c-0.344,0-0.613-0.106-0.811-0.318c-0.125-0.143-0.196-0.503-0.212-1.082
		C8.729,34.747,8.726,34.455,8.726,34.05"/>
	<path fill="#FFFFFF" d="M13.247,35.893v-4.021c0.241,0,0.382,0.01,0.422,0.028c0.041,0.02,0.062,0.093,0.062,0.217v0.09
		l0.656-0.394c0.092,0,0.228,0.02,0.409,0.059c0,0.19-0.018,0.303-0.054,0.331c-0.035,0.031-0.154,0.044-0.355,0.044l-0.697,0.387
		l0.041,0.204v3.431c-0.242,0-0.381-0.016-0.422-0.049C13.268,36.189,13.247,36.078,13.247,35.893"/>
	<path fill="#FFFFFF" d="M18.341,36.056c-0.065,0.083-0.152,0.144-0.262,0.186c-0.109,0.04-0.243,0.061-0.402,0.061
		s-0.483-0.041-0.974-0.123v-0.434c0.021,0,0.16,0.013,0.414,0.041c0.254,0.026,0.443,0.041,0.568,0.041
		c0.306,0,0.458-0.284,0.458-0.853V34.86c-0.005-0.175-0.174-0.389-0.507-0.641c-0.333-0.255-0.579-0.478-0.737-0.668
		c-0.158-0.191-0.237-0.386-0.237-0.581c0-0.197,0.002-0.334,0.008-0.409c0.006-0.076,0.025-0.172,0.058-0.288
		c0.033-0.115,0.083-0.196,0.148-0.245c0.169-0.137,0.425-0.205,0.77-0.205l0.778,0.114c0,0.24-0.098,0.361-0.294,0.361
		c-0.038,0-0.077-0.002-0.115-0.008l-0.335-0.05c-0.267,0-0.431,0.06-0.491,0.179c-0.049,0.105-0.074,0.257-0.074,0.456
		c0,0.2,0.213,0.469,0.639,0.807c0.196,0.148,0.345,0.265,0.446,0.351c0.102,0.089,0.2,0.203,0.296,0.345
		c0.095,0.143,0.143,0.281,0.143,0.414c0,0.135-0.002,0.248-0.008,0.344c-0.007,0.096-0.019,0.209-0.037,0.341
		c-0.02,0.131-0.048,0.238-0.091,0.327C18.458,35.89,18.406,35.975,18.341,36.056"/>
	<path fill="#FFFFFF" d="M23.646,34.958c-0.004-0.178-0.008-0.424-0.008-0.737c0-0.31,0.002-0.525,0.005-0.646
		c0.002-0.12,0.007-0.264,0.013-0.43c0.005-0.167,0.015-0.293,0.028-0.378c0.014-0.084,0.033-0.182,0.058-0.293
		c0.024-0.112,0.055-0.196,0.094-0.251c0.039-0.054,0.084-0.114,0.139-0.18s0.118-0.109,0.188-0.131c0.191-0.066,0.388-0.1,0.59-0.1
		l0.605,0.23v-1.77c0.24,0,0.379,0.018,0.417,0.049c0.039,0.033,0.058,0.143,0.058,0.329v5.616c-0.24,0-0.379-0.018-0.417-0.053
		c-0.039-0.035-0.058-0.162-0.058-0.381l-0.647,0.491c-0.366,0-0.647-0.101-0.843-0.304C23.737,35.887,23.664,35.534,23.646,34.958
		 M24.15,32.993c-0.014,0.198-0.021,0.355-0.024,0.473c-0.003,0.117-0.005,0.437-0.005,0.957c0,0.522,0.025,0.878,0.075,1.069
		c0.113,0.252,0.288,0.386,0.523,0.401l0.673-0.368l-0.034-0.206v-2.652l0.034-0.205l-0.673-0.214c-0.202,0-0.341,0.07-0.417,0.206
		C24.215,32.617,24.164,32.797,24.15,32.993"/>
	<path fill="#FFFFFF" d="M30.156,36.188c-0.421,0.093-0.713,0.139-0.879,0.139c-0.167,0-0.295-0.004-0.385-0.012
		c-0.091-0.009-0.171-0.03-0.246-0.067c-0.074-0.033-0.138-0.063-0.191-0.089c-0.054-0.023-0.104-0.073-0.148-0.146
		c-0.044-0.074-0.079-0.135-0.106-0.181c-0.027-0.046-0.049-0.126-0.064-0.242c-0.018-0.113-0.031-0.207-0.042-0.277
		c-0.01-0.071-0.019-0.187-0.025-0.349c-0.003-0.16-0.008-0.291-0.008-0.389V33.65c0-0.361,0.008-0.595,0.025-0.701
		c0.015-0.106,0.032-0.221,0.05-0.339c0.016-0.119,0.038-0.207,0.064-0.259c0.027-0.051,0.062-0.115,0.106-0.193
		c0.044-0.074,0.094-0.129,0.148-0.157c0.053-0.031,0.118-0.065,0.191-0.1c0.075-0.035,0.155-0.06,0.246-0.068
		c0.09-0.012,0.194-0.019,0.308-0.019c0.114,0,0.218,0.009,0.311,0.025s0.17,0.048,0.233,0.098s0.117,0.096,0.163,0.14
		c0.047,0.044,0.086,0.115,0.116,0.214s0.053,0.18,0.069,0.249c0.018,0.069,0.029,0.175,0.039,0.318
		c0.007,0.146,0.011,0.262,0.011,0.348v0.428l0.033,0.441l-1.669,0.041l0.031,0.205c0,0.699,0.028,1.102,0.082,1.212
		c0.086,0.18,0.188,0.283,0.303,0.311c0.078,0.023,0.226,0.034,0.446,0.034c0.222,0,0.485-0.036,0.79-0.108V36.188z M28.584,33.027
		v0.441l-0.033,0.206h1.163l-0.042-0.213c0-0.437-0.029-0.749-0.088-0.935c-0.061-0.184-0.196-0.277-0.405-0.277
		c-0.211,0-0.359,0.056-0.447,0.168C28.644,32.529,28.595,32.732,28.584,33.027"/>
	<path fill="#FFFFFF" d="M35.159,34.075v-0.525c0-0.397,0.009-0.648,0.029-0.752c0.019-0.104,0.041-0.215,0.066-0.336
		c0.024-0.118,0.054-0.203,0.089-0.249c0.037-0.047,0.081-0.103,0.132-0.168c0.05-0.065,0.116-0.109,0.192-0.131
		c0.185-0.066,0.374-0.1,0.564-0.1l0.679,0.108c0,0.239-0.098,0.359-0.293,0.359c-0.039,0-0.077-0.003-0.115-0.009l-0.271-0.025
		c-0.278,0-0.447,0.117-0.507,0.35c-0.061,0.232-0.091,0.632-0.091,1.199c0,0.568,0.003,0.936,0.009,1.105
		c0.005,0.169,0.026,0.348,0.064,0.537c0.039,0.188,0.098,0.311,0.181,0.367c0.081,0.059,0.195,0.087,0.343,0.087l0.712-0.083v0.378
		l-0.712,0.139c-0.293,0-0.491-0.036-0.588-0.106c-0.099-0.07-0.173-0.129-0.222-0.175c-0.049-0.047-0.092-0.131-0.126-0.25
		c-0.037-0.121-0.062-0.221-0.079-0.304c-0.016-0.082-0.029-0.217-0.041-0.4C35.165,34.774,35.159,34.435,35.159,34.075"/>
	<path fill="#FFFFFF" d="M39.09,34.05v-2.178c0.24,0,0.382,0.015,0.422,0.045c0.04,0.03,0.061,0.14,0.061,0.33v1.785
		c0,0.634,0.018,1.067,0.053,1.299c0.036,0.232,0.089,0.383,0.165,0.455c0.073,0.069,0.173,0.106,0.297,0.106l0.813-0.378
		l-0.041-0.203v-3.439c0.24,0,0.38,0.015,0.42,0.045c0.042,0.03,0.062,0.14,0.062,0.33v4.021c-0.24,0-0.379-0.013-0.421-0.041
		s-0.061-0.122-0.061-0.286l-0.737,0.385c-0.344,0-0.614-0.106-0.812-0.318c-0.125-0.143-0.197-0.503-0.213-1.082
		C39.092,34.747,39.09,34.455,39.09,34.05"/>
	<path fill="#FFFFFF" d="M44.22,31.008c-0.074,0.073-0.161,0.109-0.267,0.109c-0.103,0-0.192-0.036-0.265-0.109
		c-0.075-0.074-0.111-0.163-0.111-0.271c0-0.105,0.037-0.194,0.111-0.262c0.073-0.068,0.162-0.103,0.265-0.103
		c0.105,0,0.193,0.036,0.267,0.107c0.073,0.069,0.111,0.157,0.111,0.261C44.331,30.846,44.293,30.934,44.22,31.008 M43.717,35.925
		v-4.053c0.24,0,0.38,0.015,0.423,0.045c0.04,0.03,0.06,0.141,0.06,0.332v4.054c-0.241,0-0.38-0.017-0.422-0.05
		C43.736,36.22,43.717,36.112,43.717,35.925"/>
	<path fill="#FFFFFF" d="M48.162,36.056c-0.064,0.083-0.151,0.144-0.261,0.186c-0.109,0.04-0.244,0.061-0.401,0.061
		c-0.159,0-0.484-0.041-0.975-0.123v-0.434c0.021,0,0.16,0.013,0.414,0.041c0.254,0.026,0.443,0.041,0.569,0.041
		c0.306,0,0.458-0.284,0.458-0.853V34.86c-0.006-0.175-0.174-0.389-0.509-0.641c-0.332-0.255-0.577-0.478-0.735-0.668
		c-0.159-0.191-0.239-0.386-0.239-0.581c0-0.197,0.004-0.334,0.009-0.409c0.006-0.076,0.025-0.172,0.058-0.288
		c0.032-0.115,0.082-0.196,0.147-0.245c0.169-0.137,0.426-0.205,0.77-0.205l0.777,0.114c0,0.24-0.098,0.361-0.294,0.361
		c-0.038,0-0.077-0.002-0.114-0.008l-0.336-0.05c-0.268,0-0.432,0.06-0.491,0.179c-0.05,0.105-0.074,0.257-0.074,0.456
		c0,0.2,0.213,0.469,0.639,0.807c0.197,0.148,0.345,0.265,0.447,0.351c0.1,0.089,0.199,0.203,0.295,0.345
		c0.095,0.143,0.143,0.281,0.143,0.414c0,0.135-0.002,0.248-0.007,0.344c-0.006,0.096-0.02,0.209-0.037,0.341
		c-0.02,0.131-0.05,0.238-0.09,0.327C48.282,35.89,48.229,35.975,48.162,36.056"/>
	<path fill="#FFFFFF" d="M51.066,31.008c-0.075,0.073-0.163,0.109-0.267,0.109c-0.103,0-0.192-0.036-0.266-0.109
		c-0.074-0.074-0.111-0.163-0.111-0.271c0-0.105,0.037-0.194,0.111-0.262c0.073-0.068,0.163-0.103,0.266-0.103
		c0.104,0,0.192,0.036,0.267,0.107c0.074,0.069,0.109,0.157,0.109,0.261C51.175,30.846,51.14,30.934,51.066,31.008 M50.563,35.925
		v-4.053c0.238,0,0.38,0.015,0.42,0.045c0.042,0.03,0.062,0.141,0.062,0.332v4.054c-0.24,0-0.38-0.017-0.421-0.05
		S50.563,36.112,50.563,35.925"/>
	<path fill="#FFFFFF" d="M55.213,35.893v-1.81c0-0.837-0.025-1.349-0.075-1.544c-0.048-0.194-0.196-0.292-0.441-0.292l-0.803,0.287
		l0.033,0.205v3.529c-0.241,0-0.382-0.016-0.423-0.049c-0.04-0.031-0.061-0.143-0.061-0.327v-4.021c0.24,0,0.38,0.01,0.421,0.028
		c0.042,0.02,0.063,0.093,0.063,0.217l0.736-0.304c0.492,0,0.786,0.126,0.885,0.378c0.099,0.251,0.148,0.884,0.148,1.899v2.178
		c-0.241,0-0.381-0.016-0.422-0.049C55.233,36.189,55.213,36.078,55.213,35.893"/>
	<path fill="#FFFFFF" d="M59.979,36.188c-0.42,0.093-0.714,0.139-0.881,0.139s-0.295-0.004-0.384-0.012
		c-0.09-0.009-0.173-0.03-0.246-0.067c-0.075-0.033-0.14-0.063-0.192-0.089c-0.056-0.023-0.106-0.073-0.148-0.146
		c-0.045-0.074-0.081-0.135-0.106-0.181c-0.028-0.046-0.05-0.126-0.066-0.242c-0.017-0.113-0.03-0.207-0.041-0.277
		c-0.011-0.071-0.019-0.187-0.025-0.349c-0.004-0.16-0.007-0.291-0.007-0.389V33.65c0-0.361,0.007-0.595,0.025-0.701
		c0.016-0.106,0.031-0.221,0.048-0.339c0.017-0.119,0.039-0.207,0.066-0.259c0.025-0.051,0.062-0.115,0.106-0.193
		c0.042-0.074,0.092-0.129,0.148-0.157c0.052-0.031,0.117-0.065,0.192-0.1c0.073-0.035,0.155-0.06,0.246-0.068
		c0.089-0.012,0.192-0.019,0.307-0.019c0.114,0,0.219,0.009,0.311,0.025c0.093,0.017,0.17,0.048,0.233,0.098
		c0.063,0.05,0.116,0.096,0.164,0.14c0.046,0.044,0.084,0.115,0.114,0.214c0.03,0.099,0.053,0.18,0.069,0.249
		c0.019,0.069,0.029,0.175,0.038,0.318c0.008,0.146,0.011,0.262,0.011,0.348v0.428l0.033,0.441l-1.67,0.041l0.034,0.205
		c0,0.699,0.027,1.102,0.081,1.212c0.086,0.18,0.188,0.283,0.303,0.311c0.076,0.023,0.225,0.034,0.446,0.034
		s0.485-0.036,0.791-0.108V36.188z M58.406,33.027v0.441l-0.032,0.206h1.161l-0.04-0.213c0-0.437-0.03-0.749-0.09-0.935
		c-0.06-0.184-0.196-0.277-0.405-0.277s-0.358,0.056-0.446,0.168C58.467,32.529,58.417,32.732,58.406,33.027"/>
	<path fill="#FF594F" d="M117.212,29.314c-0.029-0.012-0.075-0.036-0.13-0.049c-0.055-0.018-0.129-0.041-0.203-0.048
		c-0.077-0.01-0.162-0.013-0.256-0.007c-0.091,0.008-0.184,0.026-0.284,0.054c-0.099,0.024-0.19,0.066-0.287,0.114
		c-0.094,0.049-0.182,0.108-0.268,0.175c-0.081,0.067-0.16,0.142-0.229,0.224c-0.067,0.081-0.134,0.164-0.185,0.254
		c-0.052,0.091-0.096,0.184-0.128,0.277c-0.071,0.186-0.099,0.378-0.101,0.549c0,0.086,0.004,0.168,0.016,0.242
		c0.009,0.073,0.027,0.14,0.043,0.195c0.004,0.025,0.014,0.052,0.02,0.071c0.015-0.029,0.03-0.06,0.047-0.092
		c0.085-0.169,0.206-0.387,0.35-0.59c0.071-0.102,0.15-0.197,0.227-0.286c0.04-0.042,0.08-0.082,0.117-0.122
		c0.038-0.034,0.077-0.068,0.111-0.1c0.037-0.027,0.071-0.053,0.102-0.076c0.028-0.024,0.06-0.038,0.083-0.053
		c0.045-0.027,0.072-0.042,0.072-0.042s-0.025,0.017-0.069,0.049c-0.021,0.016-0.05,0.031-0.076,0.058
		c-0.029,0.024-0.06,0.052-0.096,0.082c-0.031,0.033-0.066,0.07-0.102,0.106c-0.033,0.043-0.067,0.086-0.104,0.129
		c-0.066,0.093-0.138,0.193-0.199,0.297c-0.124,0.21-0.227,0.433-0.295,0.601c-0.021,0.048-0.037,0.091-0.05,0.129
		c0.028-0.009,0.066-0.018,0.106-0.033c0.052-0.017,0.117-0.034,0.183-0.062c0.065-0.026,0.135-0.055,0.207-0.089
		c0.071-0.034,0.141-0.073,0.213-0.114c0.073-0.041,0.141-0.088,0.208-0.136c0.064-0.051,0.131-0.102,0.189-0.157
		c0.061-0.058,0.117-0.112,0.168-0.175c0.104-0.12,0.193-0.248,0.268-0.384c0.038-0.063,0.069-0.138,0.1-0.206
		c0.032-0.067,0.059-0.142,0.085-0.209c0.026-0.064,0.051-0.134,0.073-0.199c0.023-0.067,0.043-0.126,0.06-0.174
		c0.021-0.051,0.033-0.099,0.043-0.129c0.013-0.035,0.017-0.053,0.017-0.053S117.239,29.327,117.212,29.314"/>
	<path fill="#FF594F" d="M114.887,30.814c-0.102-0.069-0.197-0.149-0.285-0.226c-0.043-0.041-0.083-0.079-0.121-0.116
		c-0.037-0.039-0.069-0.077-0.102-0.111c-0.027-0.038-0.053-0.072-0.075-0.103c-0.025-0.029-0.038-0.06-0.053-0.081
		c-0.028-0.047-0.043-0.073-0.043-0.073s0.018,0.025,0.048,0.069c0.016,0.021,0.033,0.051,0.059,0.077
		c0.024,0.027,0.052,0.06,0.083,0.095c0.033,0.029,0.069,0.064,0.108,0.101c0.039,0.034,0.084,0.069,0.127,0.104
		c0.092,0.068,0.193,0.139,0.296,0.199c0.045,0.026,0.089,0.049,0.133,0.072c0.014-0.235,0.063-0.468,0.135-0.68
		c-0.04-0.054-0.082-0.107-0.128-0.155c-0.059-0.057-0.112-0.116-0.176-0.167c-0.12-0.105-0.249-0.195-0.385-0.267
		c-0.063-0.037-0.138-0.07-0.204-0.101c-0.067-0.031-0.141-0.058-0.209-0.085c-0.067-0.024-0.135-0.05-0.199-0.07
		c-0.067-0.025-0.127-0.046-0.175-0.063c-0.049-0.021-0.1-0.032-0.129-0.044c-0.033-0.01-0.052-0.015-0.052-0.015
		s-0.01,0.015-0.023,0.046c-0.011,0.028-0.034,0.073-0.05,0.128c-0.016,0.054-0.04,0.128-0.048,0.203
		c-0.008,0.076-0.011,0.161-0.006,0.256c0.007,0.09,0.026,0.185,0.054,0.283c0.024,0.1,0.067,0.189,0.114,0.287
		c0.048,0.096,0.108,0.183,0.174,0.269c0.069,0.082,0.145,0.159,0.222,0.23c0.083,0.064,0.168,0.132,0.258,0.182
		c0.09,0.053,0.182,0.099,0.276,0.131c0.187,0.071,0.378,0.098,0.55,0.101c0.008,0,0.014-0.001,0.021-0.002
		c-0.019-0.119-0.025-0.24-0.023-0.363C115.001,30.89,114.945,30.855,114.887,30.814"/>
	<path fill="#FFFFFF" d="M71.861,30.604l-0.009,0.21c0,0.029-0.007,0.05-0.02,0.063c-0.016,0.014-0.021,0.025-0.024,0.036
		c-0.004,0.013-0.02,0.02-0.055,0.025c-0.033,0.006-0.057,0.011-0.068,0.017c-0.015,0.005-0.048,0.011-0.103,0.017
		s-0.099,0.009-0.131,0.015h-0.574c-0.212,0-0.372,0.063-0.479,0.186c-0.106,0.122-0.159,0.375-0.159,0.758
		c0,0.403,0.065,0.652,0.196,0.744c0.076,0.054,0.152,0.088,0.225,0.098c0.073,0.012,0.185,0.018,0.332,0.018v0.483
		c-0.263,0-0.48,0.116-0.655,0.348c-0.175,0.232-0.262,0.55-0.262,0.954c0,0.862,0.349,1.294,1.044,1.294s1.044-0.432,1.044-1.294
		v-1.097l0.033-0.205h-0.434v-0.442h0.434l-0.033-0.204v-0.361c0.251,0,0.401,0.017,0.451,0.049
		c0.049,0.034,0.073,0.143,0.073,0.327l-0.033,0.189h0.664c0,0.196-0.021,0.319-0.063,0.368c-0.04,0.048-0.156,0.074-0.348,0.074
		h-0.254l0.033,0.205v1.097c0,0.584-0.124,1.022-0.372,1.314c-0.25,0.292-0.646,0.438-1.192,0.438c-0.547,0-0.943-0.144-1.191-0.434
		c-0.249-0.289-0.373-0.731-0.373-1.326c0-0.346,0.067-0.65,0.201-0.918c0.133-0.268,0.302-0.477,0.503-0.631
		c-0.136-0.098-0.233-0.175-0.289-0.229c-0.059-0.054-0.115-0.157-0.173-0.307c-0.058-0.151-0.086-0.334-0.086-0.553
		c0-0.935,0.388-1.4,1.162-1.4L71.861,30.604z"/>
	<path fill="#FFFFFF" d="M78.232,34.403v-1.884l0.031-0.205h-0.352v-0.441h0.352l-0.031-0.287v-0.36c0.24,0,0.38,0.018,0.421,0.05
		c0.041,0.033,0.062,0.143,0.062,0.326l-0.032,0.271h0.754c0,0.201-0.019,0.326-0.055,0.372c-0.035,0.046-0.148,0.069-0.34,0.069
		h-0.359l0.032,0.205v1.884c0,0.622,0.018,1.025,0.05,1.212c0.033,0.186,0.126,0.278,0.277,0.278h0.557v0.376l-0.563,0.041
		c-0.378,0-0.605-0.116-0.686-0.348C78.271,35.73,78.232,35.21,78.232,34.403"/>
	<path fill="#FFFFFF" d="M81.458,35.893v-4.021c0.24,0,0.382,0.01,0.422,0.028c0.04,0.02,0.062,0.093,0.062,0.217v0.09l0.655-0.394
		c0.092,0,0.228,0.02,0.409,0.059c0,0.19-0.019,0.303-0.055,0.331c-0.035,0.031-0.152,0.044-0.354,0.044L81.9,32.634l0.041,0.204
		v3.431c-0.241,0-0.382-0.016-0.422-0.049C81.479,36.189,81.458,36.078,81.458,35.893"/>
	<path fill="#FFFFFF" d="M86.215,33.183v-0.459c0-0.218-0.024-0.356-0.077-0.413c-0.052-0.06-0.176-0.087-0.371-0.087l-0.411,0.082
		c-0.056,0.012-0.096,0.016-0.122,0.016c-0.192,0-0.288-0.122-0.288-0.366l0.821-0.142c0.408,0,0.656,0.057,0.744,0.165
		c0.044,0.054,0.078,0.1,0.102,0.139c0.025,0.038,0.04,0.106,0.044,0.204c0.018,0.159,0.026,0.342,0.026,0.55v3.397
		c-0.247,0-0.391-0.018-0.435-0.053c-0.043-0.035-0.065-0.154-0.065-0.357c-0.054,0.034-0.131,0.094-0.23,0.182
		c-0.207,0.191-0.381,0.286-0.522,0.286c-0.334,0-0.531-0.105-0.595-0.314c-0.062-0.21-0.094-0.793-0.094-1.748
		c0-0.367,0.159-0.609,0.475-0.729c0.262-0.099,0.597-0.146,0.999-0.146h0.033L86.215,33.183z M86.183,33.845
		c-0.316,0-0.556,0.023-0.716,0.071c-0.161,0.046-0.243,0.14-0.243,0.281c0,0.998,0.023,1.546,0.066,1.638
		c0.021,0.039,0.07,0.058,0.147,0.058c0.075,0,0.16-0.021,0.25-0.065c0.09-0.044,0.185-0.103,0.286-0.176
		c0.101-0.073,0.183-0.125,0.241-0.152l-0.032-0.205V34.05l0.032-0.205H86.183z"/>
	<path fill="#FFFFFF" d="M89.561,31.008c-0.074,0.073-0.163,0.109-0.267,0.109c-0.103,0-0.191-0.036-0.266-0.109
		c-0.074-0.074-0.111-0.163-0.111-0.271c0-0.105,0.037-0.194,0.111-0.262c0.074-0.068,0.163-0.103,0.266-0.103
		c0.104,0,0.192,0.036,0.267,0.107c0.073,0.069,0.109,0.157,0.109,0.261C89.67,30.846,89.634,30.934,89.561,31.008 M89.059,35.925
		v-4.053c0.239,0,0.379,0.015,0.419,0.045c0.043,0.03,0.063,0.141,0.063,0.332v4.054c-0.24,0-0.381-0.017-0.423-0.05
		C89.077,36.22,89.059,36.112,89.059,35.925"/>
	<path fill="#FFFFFF" d="M91.914,34.403v-1.884l0.034-0.205h-0.354v-0.441h0.354l-0.034-0.287v-0.36c0.241,0,0.382,0.018,0.422,0.05
		c0.042,0.033,0.062,0.143,0.062,0.326l-0.032,0.271h0.754c0,0.201-0.018,0.326-0.055,0.372c-0.034,0.046-0.147,0.069-0.34,0.069
		h-0.359l0.032,0.205v1.884c0,0.622,0.018,1.025,0.049,1.212c0.033,0.186,0.126,0.278,0.278,0.278h0.558v0.376l-0.565,0.041
		c-0.377,0-0.604-0.116-0.685-0.348C91.954,35.73,91.914,35.21,91.914,34.403"/>
	<path fill="#FFFFFF" d="M97.155,36.188c-0.421,0.093-0.715,0.139-0.882,0.139c-0.165,0-0.293-0.004-0.383-0.012
		c-0.09-0.009-0.172-0.03-0.246-0.067c-0.075-0.033-0.138-0.063-0.192-0.089c-0.056-0.023-0.104-0.073-0.147-0.146
		c-0.044-0.074-0.08-0.135-0.106-0.181c-0.027-0.046-0.049-0.126-0.066-0.242c-0.016-0.113-0.028-0.207-0.04-0.277
		c-0.012-0.071-0.02-0.187-0.024-0.349c-0.005-0.16-0.008-0.291-0.008-0.389V33.65c0-0.361,0.008-0.595,0.024-0.701
		c0.016-0.106,0.032-0.221,0.048-0.339c0.018-0.119,0.039-0.207,0.066-0.259c0.026-0.051,0.063-0.115,0.106-0.193
		c0.043-0.074,0.092-0.129,0.147-0.157c0.055-0.031,0.117-0.065,0.192-0.1c0.074-0.035,0.156-0.06,0.246-0.068
		c0.09-0.012,0.191-0.019,0.307-0.019s0.219,0.009,0.312,0.025c0.092,0.017,0.171,0.048,0.232,0.098
		c0.063,0.05,0.118,0.096,0.164,0.14s0.086,0.115,0.116,0.214c0.027,0.099,0.052,0.18,0.068,0.249s0.028,0.175,0.037,0.318
		c0.009,0.146,0.012,0.262,0.012,0.348v0.428l0.031,0.441l-1.669,0.041l0.032,0.205c0,0.699,0.028,1.102,0.082,1.212
		c0.087,0.18,0.189,0.283,0.303,0.311c0.078,0.023,0.226,0.034,0.447,0.034c0.221,0,0.485-0.036,0.79-0.108V36.188z M95.583,33.027
		v0.441l-0.032,0.206h1.163l-0.042-0.213c0-0.437-0.03-0.749-0.088-0.935c-0.063-0.184-0.196-0.277-0.408-0.277
		c-0.21,0-0.358,0.056-0.445,0.168C95.643,32.529,95.595,32.732,95.583,33.027"/>
	<path fill="#FFFFFF" d="M99.316,34.05v-2.178c0.24,0,0.382,0.015,0.422,0.045c0.041,0.03,0.061,0.14,0.061,0.33v1.785
		c0,0.634,0.019,1.067,0.055,1.299c0.035,0.232,0.09,0.383,0.165,0.455c0.072,0.069,0.171,0.106,0.297,0.106l0.811-0.378
		l-0.04-0.203v-3.439c0.24,0,0.381,0.015,0.422,0.045s0.061,0.14,0.061,0.33v4.021c-0.24,0-0.381-0.013-0.422-0.041
		c-0.04-0.028-0.061-0.122-0.061-0.286l-0.737,0.385c-0.344,0-0.613-0.106-0.81-0.318c-0.126-0.143-0.198-0.503-0.213-1.082
		C99.319,34.747,99.316,34.455,99.316,34.05"/>
	<path fill="#FFFFFF" d="M103.838,35.893v-4.021c0.239,0,0.38,0.01,0.42,0.028c0.041,0.02,0.062,0.093,0.062,0.217v0.09l0.657-0.394
		c0.092,0,0.229,0.02,0.408,0.059c0,0.19-0.017,0.303-0.054,0.331c-0.035,0.031-0.155,0.044-0.354,0.044l-0.697,0.387l0.04,0.204
		v3.431c-0.239,0-0.38-0.016-0.42-0.049C103.857,36.189,103.838,36.078,103.838,35.893"/>
	<path fill="#90D0BB" d="M110.208,36.269v-5.944c0.359,0,0.57,0.021,0.63,0.063c0.062,0.039,0.091,0.186,0.091,0.438v1.154
		l0.475-0.165c0.349,0,0.583,0.036,0.698,0.108c0.119,0.069,0.209,0.131,0.273,0.179c0.062,0.049,0.113,0.131,0.154,0.247
		c0.039,0.114,0.072,0.216,0.095,0.302c0.021,0.088,0.036,0.222,0.048,0.401c0.017,0.269,0.025,0.608,0.025,1.02
		c0,0.413-0.004,0.708-0.012,0.885c-0.008,0.178-0.031,0.379-0.071,0.605c-0.038,0.227-0.1,0.381-0.188,0.463
		c-0.234,0.202-0.568,0.303-0.998,0.303l-0.5-0.336c-0.006,0.13-0.046,0.209-0.119,0.238
		C110.736,36.256,110.535,36.269,110.208,36.269 M111.891,35.319c0.047-0.201,0.069-0.601,0.069-1.199
		c0-0.597-0.025-1.012-0.074-1.239c-0.049-0.23-0.177-0.354-0.384-0.369l-0.646,0.155l0.073,0.23v2.194l-0.073,0.253l0.638,0.286
		C111.711,35.625,111.844,35.522,111.891,35.319"/>
	<path fill="#90D0BB" d="M114.974,35.81v-3.938c0.364,0,0.579,0.021,0.639,0.061c0.06,0.041,0.091,0.185,0.091,0.431v3.939
		c-0.366,0-0.58-0.021-0.64-0.063C115.003,36.2,114.974,36.056,114.974,35.81"/>
	<path fill="#90D0BB" d="M117.969,34.091v-0.507c0-0.34,0.01-0.566,0.026-0.681s0.035-0.228,0.057-0.339
		c0.022-0.113,0.048-0.195,0.079-0.246c0.029-0.052,0.066-0.115,0.113-0.185c0.046-0.071,0.1-0.12,0.159-0.148
		c0.062-0.026,0.132-0.056,0.215-0.089c0.135-0.056,0.334-0.083,0.597-0.083c0.262,0,0.473,0.033,0.635,0.095
		c0.161,0.063,0.287,0.135,0.377,0.213c0.089,0.078,0.154,0.232,0.192,0.459c0.037,0.227,0.061,0.428,0.068,0.603
		c0.01,0.175,0.014,0.412,0.014,0.711v0.615c0,0.349-0.009,0.581-0.024,0.695c-0.019,0.114-0.035,0.23-0.058,0.343
		c-0.022,0.115-0.049,0.2-0.078,0.252c-0.03,0.051-0.068,0.114-0.114,0.188c-0.048,0.075-0.102,0.127-0.164,0.156
		s-0.136,0.061-0.218,0.094c-0.131,0.059-0.306,0.09-0.523,0.09c-0.22,0-0.387-0.008-0.503-0.023
		c-0.118-0.017-0.221-0.054-0.313-0.107c-0.089-0.055-0.163-0.105-0.224-0.155s-0.11-0.132-0.15-0.251
		c-0.042-0.115-0.074-0.216-0.095-0.298c-0.022-0.082-0.036-0.216-0.041-0.401C117.979,34.781,117.969,34.446,117.969,34.091
		 M119.231,32.511c-0.245,0-0.396,0.1-0.451,0.297c-0.054,0.201-0.081,0.545-0.081,1.033s0.002,0.806,0.007,0.95
		c0.007,0.144,0.025,0.298,0.058,0.458c0.033,0.162,0.086,0.265,0.159,0.312c0.074,0.047,0.177,0.07,0.309,0.07
		c0.245,0,0.395-0.104,0.45-0.313c0.055-0.207,0.08-0.557,0.08-1.048c0-0.49-0.002-0.808-0.008-0.95
		c-0.005-0.142-0.023-0.289-0.055-0.44c-0.035-0.153-0.087-0.254-0.162-0.3C119.465,32.535,119.361,32.511,119.231,32.511"/>
</g>
</svg>
