<?xml version="1.0" encoding="utf-8"?>
<!-- Generator: Adobe Illustrator 16.0.0, SVG Export Plug-In . SVG Version: 6.00 Build 0)  -->
<!DOCTYPE svg PUBLIC "-//W3C//DTD SVG 1.1//EN" "http://www.w3.org/Graphics/SVG/1.1/DTD/svg11.dtd">
<svg version="1.1" id="Calque_1" xmlns="http://www.w3.org/2000/svg" xmlns:xlink="http://www.w3.org/1999/xlink" x="0px" y="0px"
	 width="123px" height="36.462px" viewBox="0 -0.126 123 36.462" enable-background="new 0 -0.126 123 36.462" xml:space="preserve"
	>
<g>
	<path fill="#90D0BB" d="M7.075,12.751c-0.09,0.117-0.176,0.252-0.26,0.406c-0.084,0.149-0.159,0.328-0.218,0.53
		c-0.062,0.202-0.093,0.443-0.093,0.725c0,0.235,0.059,0.557,0.177,0.962c0.117,0.403,0.244,0.866,0.378,1.389
		c0.134,0.523,0.262,1.089,0.379,1.702c0.119,0.61,0.178,1.243,0.178,1.894c0,0.956-0.13,1.799-0.387,2.528
		c-0.259,0.731-0.602,1.354-1.027,1.87c0.875-0.474,1.734-1.15,2.577-2.031s1.69-2,2.545-3.361l0.573,0.506
		c-0.482,0.796-1.029,1.586-1.643,2.367S8.972,23.72,8.24,24.343c-0.73,0.623-1.516,1.128-2.357,1.516
		c-0.842,0.389-1.737,0.583-2.68,0.583c-0.842,0-1.554-0.198-2.133-0.6C0.491,25.447,0.135,24.848,0,24.048l0.606-0.118
		c0,0.067,0.031,0.18,0.093,0.331s0.16,0.301,0.295,0.446c0.137,0.146,0.318,0.275,0.549,0.388c0.229,0.11,0.513,0.168,0.852,0.168
		c0.45,0,0.849-0.105,1.195-0.312c0.349-0.209,0.651-0.481,0.909-0.818s0.477-0.722,0.656-1.154c0.18-0.431,0.322-0.878,0.43-1.34
		c0.104-0.46,0.181-0.907,0.227-1.347s0.068-0.836,0.068-1.197c0-0.359-0.016-0.758-0.043-1.196
		c-0.028-0.437-0.06-0.854-0.093-1.253C5.71,16.248,5.679,15.899,5.65,15.6c-0.025-0.297-0.042-0.49-0.042-0.58v-0.034
		c-0.145,0.156-0.319,0.388-0.522,0.691c-0.202,0.303-0.419,0.633-0.649,0.995c-0.229,0.359-0.46,0.725-0.69,1.094
		c-0.229,0.372-0.438,0.708-0.624,1.011c-0.185,0.305-0.336,0.555-0.455,0.751c-0.119,0.197-0.179,0.301-0.179,0.313l-0.606-0.472
		c0.011-0.012,0.15-0.254,0.42-0.725c0.271-0.472,0.627-1.071,1.07-1.794c0.442-0.724,0.945-1.527,1.508-2.409
		c0.562-0.881,1.141-1.739,1.735-2.571l0.679,0.555C7.24,12.525,7.168,12.633,7.075,12.751"/>
	<path fill="#90D0BB" d="M24.72,14.446c-0.146,0.292-0.352,0.672-0.615,1.146c-0.264,0.472-0.548,0.99-0.851,1.558
		s-0.611,1.161-0.919,1.779c-0.309,0.616-0.59,1.222-0.843,1.811c-0.252,0.59-0.461,1.146-0.624,1.669
		c-0.162,0.521-0.243,0.963-0.243,1.322s0.068,0.592,0.211,0.698c0.14,0.106,0.323,0.16,0.547,0.16c0.325,0,0.659-0.096,1.003-0.286
		c0.342-0.19,0.68-0.438,1.011-0.741c0.332-0.304,0.655-0.646,0.969-1.028c0.314-0.381,0.61-0.768,0.886-1.153
		c0.274-0.389,0.524-0.759,0.749-1.112c0.224-0.354,0.416-0.653,0.574-0.901l0.607,0.472c-0.191,0.358-0.416,0.746-0.674,1.165
		c-0.259,0.415-0.542,0.832-0.853,1.253c-0.309,0.421-0.644,0.828-1.004,1.221c-0.358,0.396-0.737,0.741-1.137,1.045
		c-0.399,0.305-0.817,0.547-1.255,0.726c-0.438,0.18-0.889,0.27-1.348,0.27c-0.675,0-1.17-0.202-1.483-0.608
		c-0.315-0.402-0.471-0.924-0.471-1.566c0-0.043,0.002-0.143,0.008-0.294c0.004-0.151,0.02-0.273,0.042-0.361
		c-0.562,0.708-1.098,1.292-1.609,1.75c-0.512,0.462-1.007,0.827-1.483,1.098c-0.478,0.269-0.938,0.454-1.382,0.563
		c-0.444,0.107-0.868,0.158-1.272,0.158c-0.426,0-0.829-0.068-1.205-0.21c-0.377-0.14-0.707-0.345-0.995-0.614
		c-0.286-0.27-0.511-0.602-0.674-0.995c-0.162-0.394-0.245-0.847-0.245-1.365c0-0.639,0.145-1.371,0.431-2.198
		c0.287-0.826,0.796-1.716,1.525-2.671c0.617-0.819,1.259-1.508,1.93-2.071c0.666-0.563,1.324-1.015,1.97-1.357
		c0.646-0.342,1.262-0.587,1.846-0.734c0.584-0.146,1.105-0.22,1.565-0.22c1.034,0,1.815,0.173,2.344,0.515
		c0.527,0.342,0.848,0.867,0.959,1.577c0.225-0.282,0.461-0.563,0.708-0.843c0.248-0.281,0.5-0.568,0.76-0.859L24.72,14.446z
		 M19.547,20.849c0.146-0.235,0.325-0.536,0.539-0.903c0.214-0.363,0.439-0.741,0.675-1.129c0.234-0.387,0.466-0.76,0.69-1.121
		c0.225-0.357,0.422-0.662,0.591-0.908c0-0.101-0.015-0.265-0.043-0.489c-0.027-0.225-0.103-0.452-0.226-0.683
		c-0.124-0.231-0.322-0.429-0.59-0.597c-0.271-0.169-0.647-0.254-1.13-0.254c-0.349,0-0.739,0.054-1.171,0.16
		c-0.434,0.107-0.892,0.287-1.382,0.539c-0.49,0.254-0.991,0.588-1.508,1.003c-0.518,0.417-1.035,0.932-1.551,1.55
		c-0.776,0.932-1.374,1.866-1.795,2.805c-0.422,0.939-0.633,1.783-0.633,2.536c0,0.641,0.146,1.137,0.438,1.484
		c0.294,0.347,0.707,0.524,1.248,0.524c0.617,0,1.197-0.14,1.736-0.413c0.537-0.276,1.046-0.634,1.516-1.072
		c0.473-0.438,0.923-0.923,1.349-1.455C18.727,21.889,19.142,21.367,19.547,20.849"/>
	<path fill="#90D0BB" d="M30.988,14.446c-0.146,0.292-0.351,0.676-0.613,1.153c-0.265,0.478-0.548,1.001-0.853,1.569
		c-0.303,0.567-0.612,1.161-0.927,1.784s-0.598,1.23-0.853,1.821c-0.253,0.589-0.457,1.145-0.614,1.66
		c-0.156,0.515-0.235,0.954-0.235,1.313c0,0.325,0.066,0.549,0.201,0.666c0.136,0.118,0.326,0.178,0.574,0.178
		c0.459,0,0.91-0.152,1.348-0.455c0.438-0.304,0.873-0.698,1.307-1.188c0.433-0.488,0.856-1.048,1.272-1.676
		c0.417-0.629,0.831-1.264,1.246-1.905l0.607,0.472c-0.326,0.587-0.694,1.21-1.103,1.871c-0.412,0.663-0.868,1.278-1.374,1.847
		c-0.505,0.566-1.062,1.036-1.669,1.406c-0.606,0.369-1.27,0.555-1.988,0.555c-0.674,0-1.191-0.202-1.551-0.608
		c-0.358-0.402-0.539-0.926-0.539-1.566c0-0.75,0.176-1.537,0.522-2.358c0.35-0.82,0.784-1.631,1.307-2.435
		c0.522-0.802,1.09-1.573,1.701-2.317c0.613-0.74,1.176-1.415,1.693-2.021L30.988,14.446z"/>
	<path fill="#90D0BB" d="M46.912,16.906c0,0.484-0.086,0.975-0.253,1.474c-0.169,0.5-0.382,1-0.643,1.5
		c-0.258,0.499-0.534,0.991-0.824,1.475c-0.293,0.484-0.569,0.95-0.826,1.399c-0.258,0.45-0.472,0.879-0.64,1.289
		c-0.169,0.409-0.254,0.783-0.254,1.121c0,0.256,0.058,0.432,0.168,0.521c0.114,0.089,0.237,0.136,0.373,0.136
		c0.427,0,0.902-0.212,1.432-0.634c0.527-0.421,1.064-0.949,1.608-1.591c0.546-0.641,1.088-1.337,1.625-2.089
		c0.541-0.753,1.029-1.467,1.468-2.14l0.606,0.472c-0.091,0.135-0.253,0.399-0.488,0.799c-0.236,0.399-0.528,0.854-0.877,1.367
		c-0.348,0.511-0.738,1.043-1.171,1.601c-0.433,0.555-0.896,1.067-1.391,1.532c-0.494,0.467-1.002,0.852-1.525,1.154
		c-0.522,0.303-1.048,0.455-1.574,0.455c-0.303,0-0.578-0.052-0.826-0.152c-0.248-0.1-0.457-0.239-0.632-0.423
		c-0.175-0.181-0.312-0.389-0.413-0.631c-0.101-0.24-0.151-0.495-0.151-0.766c0-0.439,0.098-0.912,0.296-1.426
		c0.195-0.511,0.44-1.036,0.732-1.574c0.294-0.539,0.612-1.082,0.962-1.626c0.347-0.545,0.669-1.065,0.961-1.559
		c0.293-0.496,0.535-0.952,0.733-1.373c0.195-0.422,0.296-0.785,0.296-1.087c0-0.347-0.095-0.638-0.279-0.875
		c-0.184-0.236-0.447-0.355-0.783-0.355c-0.359,0-0.773,0.148-1.246,0.448c-0.473,0.297-1.001,0.731-1.584,1.306
		c-0.585,0.572-1.222,1.277-1.914,2.114c-0.69,0.836-1.44,1.787-2.247,2.857c-0.462,0.615-0.911,1.211-1.349,1.782
		c-0.191,0.25-0.383,0.501-0.573,0.76c-0.191,0.259-0.383,0.515-0.574,0.767c-0.19,0.252-0.372,0.495-0.539,0.726
		c-0.169,0.229-0.32,0.429-0.456,0.598l-1.483-0.606l1.971-2.716c0.281-0.379,0.567-0.79,0.86-1.229
		c0.292-0.438,0.58-0.891,0.867-1.357c0.287-0.466,0.561-0.935,0.817-1.406c0.258-0.472,0.5-0.934,0.724-1.38
		c0.326-0.676,0.55-1.233,0.674-1.678c0.124-0.443,0.186-0.8,0.186-1.071c0-0.304-0.057-0.501-0.169-0.597
		c-0.111-0.097-0.271-0.142-0.472-0.142c-0.213,0-0.457,0.107-0.732,0.327c-0.275,0.219-0.56,0.5-0.853,0.843
		c-0.292,0.342-0.587,0.732-0.885,1.164c-0.297,0.434-0.581,0.862-0.851,1.287c-0.27,0.428-0.521,0.832-0.758,1.213
		c-0.236,0.381-0.432,0.691-0.589,0.928l-0.608-0.472c0.575-0.898,1.092-1.723,1.563-2.47c0.463-0.748,0.913-1.391,1.347-1.93
		c0.432-0.539,0.853-0.958,1.262-1.255c0.411-0.299,0.846-0.448,1.306-0.448c0.248,0,0.487,0.052,0.717,0.153
		c0.23,0.101,0.432,0.25,0.606,0.446c0.175,0.197,0.313,0.436,0.414,0.715c0.102,0.281,0.151,0.607,0.151,0.978
		c0,0.293-0.033,0.596-0.101,0.911c0.495-0.484,0.954-0.881,1.381-1.198c0.428-0.315,0.82-0.564,1.181-0.75
		c0.359-0.186,0.691-0.316,0.993-0.396c0.304-0.079,0.579-0.118,0.826-0.118c0.214,0,0.461,0.039,0.742,0.118
		c0.279,0.081,0.544,0.224,0.791,0.439c0.247,0.213,0.457,0.508,0.632,0.884C46.824,15.825,46.912,16.312,46.912,16.906"/>
	<path fill="#90D0BB" d="M51.427,21.808c-0.021,0.135-0.039,0.271-0.051,0.405c-0.011,0.134-0.018,0.27-0.018,0.403
		c0,0.403,0.061,0.789,0.179,1.154c0.117,0.365,0.293,0.687,0.521,0.96c0.231,0.275,0.519,0.491,0.86,0.649
		c0.342,0.157,0.732,0.235,1.172,0.235c1.47,0,2.891-0.499,4.261-1.5c1.37-0.998,2.737-2.582,4.096-4.75l0.573,0.504
		c-0.742,1.236-1.494,2.277-2.26,3.126c-0.763,0.848-1.524,1.535-2.282,2.064c-0.758,0.526-1.502,0.908-2.232,1.146
		c-0.73,0.235-1.427,0.354-2.091,0.354c-0.482,0-0.993-0.066-1.531-0.2c-0.54-0.136-1.038-0.36-1.491-0.676
		c-0.455-0.313-0.831-0.734-1.128-1.264c-0.299-0.529-0.448-1.186-0.448-1.972c0-0.842,0.144-1.655,0.431-2.435
		c0.287-0.78,0.658-1.507,1.121-2.181c0.46-0.673,0.987-1.29,1.584-1.846c0.594-0.557,1.197-1.031,1.811-1.423
		c0.61-0.395,1.209-0.699,1.795-0.918c0.583-0.22,1.101-0.328,1.549-0.328c0.293,0,0.59,0.043,0.894,0.134
		c0.302,0.088,0.574,0.23,0.816,0.421c0.241,0.191,0.439,0.443,0.59,0.759c0.151,0.314,0.227,0.69,0.227,1.129
		c0,0.594-0.139,1.153-0.412,1.678c-0.274,0.523-0.644,1.005-1.103,1.447c-0.462,0.442-0.994,0.843-1.603,1.195
		c-0.606,0.355-1.241,0.656-1.902,0.902c-0.664,0.247-1.333,0.443-2.006,0.59S52.034,21.798,51.427,21.808 M51.563,21.084
		c0.753-0.078,1.46-0.235,2.122-0.472c0.663-0.236,1.271-0.525,1.821-0.869c0.549-0.343,1.04-0.716,1.474-1.119
		c0.432-0.404,0.796-0.814,1.088-1.231c0.292-0.415,0.517-0.814,0.674-1.196c0.158-0.382,0.235-0.724,0.235-1.029
		c0-0.303-0.083-0.543-0.244-0.724c-0.163-0.179-0.357-0.27-0.581-0.27c-0.494,0-1.051,0.177-1.669,0.531
		c-0.619,0.354-1.236,0.842-1.854,1.465c-0.617,0.624-1.199,1.357-1.744,2.201C52.341,19.212,51.9,20.117,51.563,21.084"/>
	<path fill="#FF594F" d="M69.82,24.454c0.356,0.281,0.836,0.421,1.432,0.421c0.642,0,1.245-0.099,1.812-0.301
		c0.568-0.202,1.098-0.47,1.593-0.801c0.494-0.332,0.948-0.7,1.365-1.104c0.415-0.403,0.787-0.813,1.119-1.222
		c0.332-0.411,0.624-0.798,0.875-1.162c0.256-0.366,0.459-0.671,0.616-0.919h0.943c-0.155,0.271-0.375,0.613-0.648,1.035
		c-0.275,0.421-0.602,0.867-0.978,1.34c-0.376,0.471-0.801,0.947-1.272,1.425c-0.473,0.478-0.989,0.906-1.562,1.288
		c-0.566,0.38-1.169,0.693-1.808,0.935c-0.642,0.24-1.322,0.361-2.042,0.361c-0.314,0-0.619-0.037-0.918-0.108
		c-0.297-0.072-0.586-0.188-0.865-0.346c-0.372,0.909-0.734,1.802-1.086,2.677c-0.356,0.877-0.694,1.709-1.013,2.496
		c-0.321,0.787-0.614,1.512-0.886,2.174c-0.27,0.662-0.503,1.238-0.706,1.729c-0.204,0.487-0.359,0.876-0.472,1.162
		c-0.112,0.285-0.177,0.436-0.187,0.444l-1.769-0.875c0.572-1.348,1.088-2.583,1.542-3.707c0.456-1.123,0.875-2.172,1.265-3.152
		c0.386-0.977,0.749-1.894,1.094-2.754c0.342-0.86,0.69-1.692,1.036-2.502c-0.181-0.258-0.313-0.51-0.396-0.758
		c-0.084-0.247-0.138-0.449-0.161-0.607c-0.021-0.257,0.05-0.475,0.211-0.649c0.163-0.175,0.373-0.259,0.631-0.259
		c0.215,0,0.411,0.072,0.59,0.218c0.337-0.811,0.64-1.519,0.903-2.132c0.264-0.611,0.485-1.124,0.665-1.541
		c0.202-0.483,0.381-0.906,0.54-1.265c0.976-2.303,1.883-4.294,2.721-5.973c0.834-1.681,1.608-3.107,2.316-4.281
		c0.708-1.174,1.354-2.124,1.938-2.849c0.584-0.725,1.113-1.289,1.593-1.693c0.477-0.402,0.905-0.675,1.289-0.816
		c0.381-0.141,0.726-0.209,1.026-0.209c0.493,0,0.912,0.108,1.257,0.328c0.342,0.22,0.535,0.593,0.578,1.121
		c0.045,0.517-0.047,1.168-0.275,1.954c-0.23,0.785-0.547,1.62-0.944,2.502c-0.399,0.881-0.863,1.772-1.393,2.672
		c-0.526,0.898-1.067,1.723-1.616,2.476c-1.045,1.416-1.99,2.589-2.84,3.521c-0.848,0.932-1.592,1.684-2.232,2.257
		c-0.64,0.571-1.173,0.999-1.602,1.273c-0.425,0.275-0.741,0.464-0.943,0.564L69.82,24.454z M82.962,1.874
		c-0.013-0.19-0.054-0.355-0.126-0.498c-0.073-0.14-0.223-0.209-0.447-0.209c-0.136,0-0.309,0.032-0.522,0.093
		c-0.213,0.061-0.463,0.193-0.75,0.394c-0.287,0.204-0.607,0.502-0.97,0.895c-0.359,0.393-0.759,0.92-1.203,1.583
		c-0.444,0.664-0.929,1.483-1.447,2.46c-0.523,0.978-1.082,2.157-1.678,3.538c-0.394,0.876-0.852,1.94-1.365,3.193
		c-0.518,1.252-1.084,2.61-1.701,4.071c0.527-0.372,1.08-0.838,1.66-1.394c0.576-0.556,1.16-1.167,1.75-1.836
		c0.592-0.669,1.172-1.379,1.745-2.131c0.572-0.753,1.116-1.517,1.632-2.291c0.518-0.775,0.993-1.546,1.426-2.31
		c0.433-0.764,0.805-1.489,1.113-2.182c0.309-0.691,0.541-1.325,0.696-1.903C82.934,2.771,82.995,2.28,82.962,1.874"/>
	<g>
		<path fill="#FF594F" d="M84.297,1.597c-0.053-0.621-0.293-1.07-0.714-1.341c-0.63-0.401-1.457-0.546-2.543-0.145
			c-0.413,0.15-0.875,0.443-1.377,0.866c-0.485,0.415-1.036,0.999-1.629,1.735c-0.59,0.731-1.25,1.7-1.961,2.881
			c-0.71,1.175-1.492,2.622-2.33,4.301c-0.834,1.677-1.753,3.69-2.726,5.985c-0.158,0.361-0.337,0.784-0.539,1.267l-0.663,1.541
			c-0.232,0.534-0.49,1.142-0.775,1.824c-0.144-0.057-0.295-0.086-0.45-0.086c-0.342,0-0.623,0.117-0.846,0.353
			c-0.22,0.237-0.318,0.53-0.285,0.89c0.023,0.178,0.081,0.394,0.171,0.659c0.081,0.229,0.193,0.461,0.343,0.692
			c-0.329,0.767-0.653,1.554-0.978,2.366c-0.345,0.859-0.706,1.777-1.094,2.753c-0.39,0.978-0.809,2.028-1.265,3.151
			c-0.454,1.121-0.966,2.354-1.538,3.701l-0.108,0.256l2.203,1.092l0.149-0.147c0.049-0.052,0.062-0.062,0.252-0.547
			c0.11-0.285,0.268-0.671,0.468-1.156c0.203-0.491,0.438-1.066,0.708-1.731l1.896-4.667c0.316-0.78,0.639-1.575,0.968-2.384
			c0.21,0.097,0.429,0.171,0.646,0.225c0.319,0.078,0.653,0.118,0.987,0.118c0.754,0,1.474-0.128,2.143-0.38
			c0.658-0.25,1.288-0.573,1.874-0.968c0.578-0.39,1.119-0.836,1.603-1.325c0.477-0.48,0.911-0.968,1.29-1.448
			c0.38-0.475,0.715-0.932,0.996-1.359c0.277-0.429,0.495-0.722,0.654-0.995l0.256-0.383h-1.612l-0.087,0.078
			c-0.157,0.245-0.358,0.52-0.609,0.88c-0.242,0.354-0.533,0.726-0.862,1.132c-0.32,0.397-0.691,0.792-1.097,1.188
			c-0.399,0.39-0.846,0.747-1.324,1.068c-0.472,0.314-0.985,0.572-1.526,0.765c-0.534,0.19-1.109,0.285-1.713,0.285
			c-0.431,0-0.786-0.079-1.071-0.238l2.21-5.291c0.209-0.111,0.496-0.286,0.874-0.53c0.437-0.281,0.985-0.718,1.636-1.3
			c0.646-0.574,1.404-1.343,2.254-2.279c0.85-0.934,1.812-2.126,2.86-3.545c0.552-0.757,1.101-1.598,1.634-2.501
			c0.529-0.903,1.003-1.813,1.404-2.698c0.403-0.89,0.726-1.746,0.958-2.542C84.252,2.83,84.346,2.155,84.297,1.597z M83.448,3.495
			c-0.227,0.768-0.537,1.596-0.929,2.464c-0.393,0.868-0.857,1.756-1.374,2.644c-0.523,0.886-1.061,1.711-1.604,2.453
			c-1.034,1.401-1.984,2.579-2.82,3.499c-0.838,0.921-1.581,1.674-2.211,2.236c-0.625,0.561-1.152,0.979-1.565,1.245
			c-0.415,0.267-0.724,0.45-0.916,0.549l-0.099,0.049l-2.471,5.916l0.178,0.138c0.409,0.32,0.951,0.481,1.612,0.481
			c0.671,0,1.313-0.106,1.91-0.319c0.586-0.208,1.145-0.488,1.656-0.831c0.507-0.34,0.979-0.724,1.406-1.139
			c0.423-0.411,0.81-0.83,1.145-1.247c0.336-0.417,0.637-1.05,0.891-1.416c0.211-0.305,0.388-0.076,0.533-1.028h0.266
			c-0.11,0.951-0.234,0.605-0.376,0.82c-0.27,0.412-0.592,0.974-0.96,1.434c-0.369,0.462-0.79,0.993-1.253,1.459
			c-0.456,0.462-0.964,0.913-1.512,1.282c-0.547,0.367-1.136,0.687-1.753,0.918c-0.604,0.229-1.255,0.353-1.936,0.353
			c-0.291,0-0.574-0.031-0.85-0.1c-0.27-0.065-0.537-0.17-0.794-0.315l-0.289-0.158l-0.124,0.306
			c-0.372,0.911-0.734,1.805-1.09,2.681l-1.895,4.668c-0.27,0.661-0.505,1.237-0.706,1.725c-0.202,0.49-0.361,0.879-0.474,1.166
			c-0.023,0.06-0.043,0.108-0.059,0.155l-1.247-0.616c0.53-1.25,1.011-2.403,1.438-3.459c0.454-1.123,0.875-2.174,1.265-3.152
			c0.388-0.976,0.751-1.895,1.094-2.754c0.34-0.857,0.687-1.689,1.032-2.495l0.063-0.148l-0.095-0.133
			c-0.161-0.234-0.281-0.465-0.356-0.687c-0.078-0.229-0.128-0.415-0.147-0.537c-0.016-0.177,0.025-0.311,0.134-0.423
			c0.195-0.209,0.541-0.244,0.824-0.017l0.305,0.245l0.149-0.36c0.335-0.808,0.636-1.517,0.899-2.128l0.666-1.542
			c0.203-0.483,0.38-0.902,0.539-1.263c0.972-2.287,1.883-4.293,2.713-5.958c0.83-1.664,1.606-3.097,2.307-4.259
			c0.696-1.158,1.342-2.106,1.914-2.815c0.572-0.707,1.093-1.263,1.554-1.652c0.448-0.381,0.855-0.638,1.201-0.769
			c0.913-0.335,1.55-0.211,2.024,0.09c0.266,0.169,0.411,0.462,0.45,0.898C83.756,2.126,83.668,2.746,83.448,3.495z"/>
		<path fill="#FF594F" d="M81.785,0.979c-0.246,0.073-0.52,0.215-0.838,0.439c-0.303,0.212-0.643,0.528-1.015,0.935
			c-0.366,0.401-0.783,0.946-1.233,1.618c-0.446,0.667-0.94,1.504-1.463,2.485c-0.525,0.98-1.092,2.179-1.686,3.557
			c-0.394,0.874-0.854,1.952-1.367,3.202c-0.52,1.252-1.086,2.608-1.703,4.066l-0.397,0.94l0.836-0.586
			c0.537-0.379,1.107-0.855,1.693-1.42c0.582-0.557,1.178-1.181,1.771-1.853c0.59-0.671,1.182-1.392,1.758-2.149
			c0.57-0.752,1.125-1.528,1.645-2.305c0.521-0.778,1.001-1.562,1.436-2.327c0.435-0.768,0.814-1.51,1.125-2.207
			c0.314-0.7,0.557-1.357,0.716-1.948c0.163-0.608,0.23-1.134,0.193-1.571c-0.014-0.23-0.067-0.436-0.158-0.611
			C82.974,1.01,82.658,0.726,81.785,0.979z M82.763,1.9c0,0.368-0.074,0.831-0.222,1.373c-0.154,0.561-0.407,1.188-0.709,1.863
			c-0.303,0.678-0.686,1.405-1.11,2.157c-0.427,0.754-0.907,1.526-1.419,2.291c-0.513,0.77-1.063,1.536-1.628,2.277
			c-0.566,0.746-1.148,1.458-1.73,2.116c-0.583,0.66-1.165,1.27-1.737,1.818c-0.256,0.245-0.507,0.472-0.753,0.681
			c0.452-1.072,0.873-2.084,1.269-3.039c0.514-1.245,0.97-2.316,1.363-3.189c0.588-1.367,1.148-2.55,1.665-3.516
			c0.514-0.965,0.998-1.784,1.435-2.435c0.433-0.647,0.828-1.169,1.176-1.55c0.344-0.375,0.655-0.662,0.923-0.851
			c0.257-0.183,0.483-0.302,0.662-0.354c0.23-0.068,0.37-0.083,0.44-0.083c0.05,0,0.209,0.006,0.234,0.053
			c0.053,0.102,0.14,0.231,0.14,0.378V1.9H82.763z"/>
	</g>
	<path fill="#FF594F" d="M88.134,21.068c0.046,0.01,0.091,0.019,0.136,0.019h0.149c0.317,0,0.604-0.033,0.862-0.095
		c0.257-0.063,0.495-0.161,0.716-0.295c0.22-0.135,0.429-0.313,0.631-0.53c0.203-0.221,0.397-0.485,0.588-0.799l0.608,0.472
		c-0.539,0.764-1.096,1.299-1.668,1.601c-0.572,0.304-1.179,0.455-1.819,0.455c-0.234,0-0.442-0.021-0.624-0.069
		c-0.483,0.813-1.001,1.497-1.55,2.065c-0.551,0.568-1.111,1.03-1.686,1.391c-0.572,0.358-1.139,0.619-1.699,0.783
		c-0.564,0.163-1.086,0.244-1.567,0.244c-0.495,0-0.952-0.086-1.373-0.262c-0.421-0.174-0.782-0.423-1.087-0.75
		c-0.304-0.324-0.539-0.714-0.708-1.162c-0.17-0.448-0.254-0.954-0.254-1.517c0-0.561,0.09-1.135,0.271-1.718
		c0.179-0.586,0.423-1.161,0.733-1.737c0.311-0.572,0.671-1.125,1.088-1.659c0.415-0.534,0.863-1.029,1.349-1.492
		c0.482-0.458,0.981-0.875,1.497-1.245c0.52-0.37,1.034-0.674,1.55-0.91l0.539,0.708c-0.595,0.426-1.198,0.964-1.81,1.615
		c-0.614,0.653-1.17,1.367-1.67,2.142c-0.498,0.774-0.909,1.581-1.231,2.417c-0.318,0.837-0.479,1.647-0.479,2.435
		c0,0.708,0.157,1.257,0.474,1.645c0.313,0.388,0.793,0.581,1.432,0.581c0.494,0,0.981-0.104,1.466-0.304
		c0.481-0.202,0.956-0.479,1.414-0.826c0.462-0.348,0.904-0.762,1.331-1.237s0.83-0.985,1.214-1.526
		c-0.326-0.19-0.613-0.446-0.859-0.768c-0.248-0.32-0.454-0.686-0.622-1.095c-0.171-0.409-0.295-0.852-0.379-1.321
		c-0.085-0.472-0.126-0.954-0.126-1.449c0-0.495,0.059-0.961,0.183-1.399c0.126-0.438,0.295-0.822,0.516-1.154
		c0.22-0.33,0.476-0.592,0.769-0.784c0.289-0.192,0.61-0.285,0.96-0.285c0.314,0,0.596,0.081,0.842,0.244
		c0.25,0.164,0.454,0.388,0.624,0.675c0.169,0.285,0.299,0.625,0.387,1.02c0.091,0.395,0.136,0.813,0.136,1.264
		c0,0.334-0.027,0.708-0.084,1.111c-0.058,0.404-0.138,0.813-0.244,1.223c-0.106,0.409-0.234,0.813-0.39,1.211
		C88.514,20.396,88.337,20.752,88.134,21.068 M85.843,16.871c0,0.326,0.025,0.681,0.085,1.063c0.057,0.381,0.146,0.751,0.27,1.111
		c0.123,0.359,0.281,0.694,0.47,1.003c0.192,0.31,0.429,0.554,0.708,0.734c0.202-0.395,0.374-0.794,0.516-1.207
		c0.142-0.408,0.259-0.804,0.355-1.187c0.095-0.381,0.161-0.737,0.203-1.07c0.037-0.333,0.057-0.62,0.057-0.868
		c0-0.336-0.025-0.647-0.085-0.927c-0.057-0.279-0.134-0.522-0.226-0.732c-0.097-0.208-0.215-0.372-0.354-0.488
		c-0.142-0.119-0.297-0.177-0.464-0.177c-0.225,0-0.433,0.077-0.623,0.229c-0.189,0.151-0.354,0.354-0.488,0.605
		c-0.134,0.252-0.238,0.545-0.313,0.875C85.876,16.167,85.843,16.512,85.843,16.871"/>
	<g>
		<path fill="#FF594F" d="M88.53,18.458c0.097-0.39,0.167-0.763,0.211-1.105c0.037-0.342,0.059-0.646,0.059-0.903
			c0-0.354-0.029-0.684-0.091-0.985c-0.059-0.301-0.144-0.567-0.247-0.796c-0.112-0.248-0.258-0.445-0.431-0.592
			c-0.431-0.362-1.014-0.306-1.458,0.045c-0.22,0.175-0.413,0.412-0.566,0.699c-0.146,0.274-0.262,0.594-0.336,0.951
			c-0.079,0.348-0.118,0.719-0.118,1.097c0,0.34,0.027,0.712,0.089,1.105c0.057,0.397,0.151,0.791,0.281,1.165
			c0.132,0.378,0.299,0.735,0.499,1.062c0.213,0.346,0.482,0.623,0.801,0.826l0.268,0.173l0.147-0.285
			c0.206-0.401,0.386-0.82,0.531-1.243C88.308,19.256,88.429,18.848,88.53,18.458z M87.961,18.318
			c-0.095,0.371-0.212,0.765-0.348,1.162c-0.099,0.286-0.211,0.572-0.343,0.852c-0.132-0.124-0.248-0.271-0.354-0.438
			c-0.178-0.288-0.329-0.606-0.442-0.944c-0.118-0.34-0.205-0.697-0.258-1.06c-0.056-0.364-0.081-0.708-0.081-1.02
			c0-0.336,0.033-0.664,0.103-0.972c0.066-0.303,0.161-0.573,0.283-0.803c0.116-0.216,0.254-0.389,0.413-0.513
			c0.14-0.11,0.283-0.166,0.442-0.166c0.101,0,0.187,0.036,0.273,0.11c0.106,0.087,0.198,0.218,0.275,0.388
			c0.086,0.187,0.155,0.411,0.208,0.667c0.054,0.264,0.077,0.555,0.077,0.87c0,0.233-0.02,0.515-0.058,0.833
			C88.118,17.602,88.052,17.95,87.961,18.318z"/>
		<path fill="#FF594F" d="M91.138,18.934l-0.169,0.278c-0.18,0.297-0.366,0.551-0.555,0.753c-0.184,0.199-0.376,0.362-0.57,0.482
			c-0.193,0.118-0.403,0.205-0.632,0.26c-0.175,0.041-0.37,0.066-0.578,0.078c0.11-0.214,0.212-0.442,0.305-0.685
			c0.153-0.401,0.289-0.82,0.399-1.245c0.108-0.416,0.192-0.839,0.252-1.254c0.057-0.417,0.084-0.807,0.084-1.152
			c0-0.469-0.047-0.917-0.142-1.331c-0.096-0.419-0.235-0.792-0.419-1.102c-0.19-0.324-0.431-0.583-0.714-0.77
			c-0.617-0.406-1.475-0.384-2.124,0.041c-0.324,0.21-0.609,0.504-0.852,0.868c-0.085,0.13-0.163,0.268-0.236,0.41l-0.817-1.075
			l-0.215,0.099c-0.531,0.242-1.068,0.557-1.599,0.937c-0.523,0.377-1.039,0.806-1.53,1.273c-0.492,0.468-0.956,0.979-1.377,1.522
			c-0.423,0.543-0.799,1.115-1.113,1.699c-0.316,0.586-0.57,1.189-0.755,1.788c-0.189,0.611-0.283,1.217-0.283,1.805
			c0,0.595,0.092,1.14,0.271,1.619c0.183,0.481,0.44,0.907,0.769,1.261c0.33,0.354,0.731,0.631,1.19,0.818
			c0.454,0.188,0.953,0.284,1.484,0.284c0.508,0,1.063-0.086,1.648-0.257c0.586-0.17,1.186-0.444,1.775-0.816
			c0.591-0.37,1.177-0.853,1.739-1.435c0.525-0.537,1.022-1.191,1.488-1.94c0.144,0.021,0.308,0.031,0.477,0.031
			c0.688,0,1.345-0.163,1.959-0.487c0.609-0.323,1.207-0.894,1.77-1.692l0.161-0.228L91.138,18.934z M85.121,14.705
			c-0.099,0.216-0.183,0.446-0.252,0.69c-0.13,0.46-0.194,0.96-0.194,1.476c0,0.51,0.043,1.014,0.132,1.502
			c0.086,0.493,0.22,0.956,0.395,1.382c0.18,0.433,0.401,0.822,0.661,1.162c0.203,0.26,0.429,0.481,0.679,0.664
			c-0.322,0.439-0.665,0.86-1.017,1.254c-0.413,0.461-0.848,0.865-1.288,1.199c-0.439,0.331-0.896,0.597-1.354,0.791
			c-0.444,0.186-0.898,0.278-1.352,0.278c-0.555,0-0.949-0.154-1.207-0.474c-0.27-0.332-0.407-0.821-0.407-1.459
			c0-0.745,0.155-1.53,0.46-2.329c0.314-0.816,0.72-1.611,1.204-2.363c0.487-0.755,1.038-1.463,1.636-2.099
			c0.597-0.636,1.19-1.168,1.769-1.583L85.121,14.705z M90.021,21.179c-0.527,0.279-1.094,0.423-1.684,0.423
			c-0.213,0-0.397-0.021-0.553-0.062l-0.211-0.053l-0.109,0.188c-0.471,0.786-0.979,1.462-1.511,2.011
			c-0.533,0.549-1.082,1.001-1.631,1.345c-0.547,0.343-1.094,0.597-1.626,0.752c-1.07,0.309-1.982,0.309-2.75-0.008
			c-0.378-0.156-0.712-0.385-0.983-0.678c-0.277-0.297-0.495-0.654-0.649-1.067c-0.155-0.415-0.233-0.889-0.233-1.414
			c0-0.527,0.086-1.078,0.258-1.633c0.173-0.564,0.413-1.129,0.71-1.68c0.299-0.558,0.654-1.104,1.058-1.62
			c0.407-0.52,0.85-1.012,1.32-1.459c0.474-0.449,0.965-0.86,1.469-1.221c0.431-0.306,0.861-0.568,1.29-0.781l0.219,0.283
			c-0.533,0.405-1.072,0.901-1.613,1.475c-0.621,0.663-1.195,1.396-1.701,2.181c-0.509,0.788-0.93,1.618-1.259,2.472
			c-0.33,0.867-0.497,1.723-0.497,2.539c0,0.773,0.181,1.389,0.537,1.825c0.371,0.458,0.93,0.691,1.659,0.691
			c0.527,0,1.063-0.109,1.578-0.325c0.503-0.213,1.001-0.502,1.48-0.862c0.472-0.357,0.933-0.787,1.371-1.276
			c0.431-0.484,0.848-1.007,1.233-1.552l0.185-0.259l-0.273-0.164c-0.293-0.169-0.553-0.4-0.777-0.692
			c-0.229-0.299-0.427-0.645-0.586-1.028c-0.157-0.388-0.277-0.813-0.359-1.262c-0.081-0.454-0.12-0.924-0.12-1.4
			c0-0.463,0.059-0.909,0.173-1.317c0.114-0.407,0.275-0.767,0.477-1.071c0.196-0.296,0.427-0.532,0.682-0.699
			c0.465-0.305,1.057-0.326,1.485-0.043c0.208,0.138,0.388,0.333,0.531,0.578c0.151,0.258,0.271,0.574,0.355,0.936
			c0.085,0.372,0.126,0.776,0.126,1.2c0,0.321-0.025,0.681-0.078,1.07c-0.056,0.391-0.136,0.792-0.238,1.19
			c-0.104,0.4-0.23,0.8-0.378,1.183c-0.144,0.378-0.313,0.72-0.503,1.016l-0.219,0.342l0.394-0.043
			c0.064,0.018,0.136-0.118,0.204-0.118h0.151c0.337,0,0.649,0.11,0.927,0.044c0.289-0.067,0.559-0.107,0.803-0.26
			c0.239-0.146,0.474-0.308,0.694-0.543c0.149-0.167,0.303-0.341,0.446-0.556l0.132,0.109C90.962,20.491,90.49,20.929,90.021,21.179
			z"/>
	</g>
	<path fill="#FF594F" d="M100.72,21.068c0.045,0.01,0.093,0.019,0.136,0.019h0.153c0.314,0,0.6-0.033,0.859-0.095
		c0.258-0.063,0.496-0.161,0.716-0.295c0.219-0.135,0.431-0.313,0.632-0.53c0.202-0.219,0.399-0.485,0.59-0.799l0.607,0.472
		c-0.541,0.764-1.098,1.299-1.668,1.601c-0.574,0.304-1.18,0.455-1.821,0.455c-0.235,0-0.442-0.021-0.623-0.069
		c-0.481,0.813-1.001,1.497-1.55,2.065c-0.551,0.568-1.111,1.03-1.686,1.391c-0.572,0.358-1.139,0.619-1.701,0.783
		c-0.563,0.163-1.084,0.244-1.565,0.244c-0.496,0-0.952-0.086-1.375-0.262c-0.419-0.174-0.781-0.423-1.084-0.75
		c-0.307-0.324-0.541-0.714-0.708-1.162c-0.171-0.448-0.254-0.954-0.254-1.517c0-0.561,0.091-1.135,0.27-1.718
		c0.179-0.586,0.423-1.161,0.733-1.737c0.31-0.572,0.673-1.125,1.09-1.659c0.413-0.534,0.859-1.029,1.346-1.492
		c0.483-0.458,0.983-0.875,1.498-1.245c0.518-0.37,1.035-0.674,1.55-0.91l0.539,0.708c-0.594,0.426-1.197,0.964-1.812,1.615
		c-0.611,0.653-1.168,1.367-1.665,2.142c-0.502,0.774-0.911,1.581-1.231,2.417c-0.318,0.837-0.48,1.647-0.48,2.435
		c0,0.708,0.153,1.257,0.473,1.645c0.313,0.388,0.792,0.581,1.432,0.581c0.493,0,0.981-0.104,1.465-0.304
		c0.482-0.202,0.956-0.479,1.416-0.826c0.459-0.348,0.903-0.762,1.328-1.237c0.427-0.478,0.832-0.985,1.216-1.526
		c-0.327-0.19-0.612-0.446-0.862-0.768c-0.245-0.32-0.452-0.686-0.619-1.095s-0.299-0.852-0.38-1.321
		c-0.084-0.472-0.128-0.954-0.128-1.449c0-0.495,0.062-0.961,0.188-1.399c0.122-0.438,0.295-0.822,0.515-1.154
		c0.219-0.33,0.473-0.592,0.766-0.784s0.613-0.285,0.962-0.285c0.314,0,0.594,0.081,0.844,0.244
		c0.245,0.164,0.452,0.388,0.621,0.675c0.169,0.285,0.299,0.625,0.388,1.02c0.091,0.395,0.136,0.813,0.136,1.264
		c0,0.334-0.027,0.708-0.085,1.111c-0.057,0.404-0.138,0.813-0.246,1.223c-0.104,0.409-0.233,0.813-0.385,1.211
		C101.1,20.396,100.924,20.752,100.72,21.068 M98.431,16.871c0,0.326,0.027,0.681,0.084,1.063c0.058,0.381,0.146,0.751,0.27,1.111
		s0.281,0.694,0.472,1.003c0.191,0.31,0.428,0.554,0.707,0.734c0.202-0.395,0.373-0.794,0.515-1.207
		c0.14-0.408,0.26-0.804,0.356-1.187c0.092-0.381,0.161-0.737,0.2-1.07s0.06-0.62,0.06-0.868c0-0.336-0.026-0.647-0.083-0.927
		c-0.057-0.279-0.134-0.522-0.229-0.732c-0.098-0.208-0.214-0.372-0.355-0.488c-0.14-0.119-0.295-0.177-0.462-0.177
		c-0.225,0-0.434,0.077-0.624,0.229c-0.188,0.151-0.352,0.354-0.487,0.605c-0.136,0.252-0.238,0.545-0.313,0.875
		C98.466,16.167,98.431,16.512,98.431,16.871"/>
	<g>
		<path fill="#FF594F" d="M103.725,18.934l-0.169,0.278c-0.181,0.297-0.368,0.551-0.555,0.753c-0.183,0.199-0.376,0.362-0.57,0.482
			c-0.19,0.118-0.405,0.205-0.629,0.26c-0.182,0.041-0.374,0.066-0.583,0.078c0.114-0.214,0.215-0.442,0.306-0.685
			c0.155-0.401,0.287-0.82,0.398-1.245c0.106-0.416,0.191-0.839,0.252-1.254c0.058-0.417,0.087-0.807,0.087-1.152
			c0-0.469-0.047-0.917-0.144-1.331c-0.097-0.419-0.238-0.792-0.419-1.102c-0.19-0.324-0.431-0.583-0.714-0.77
			c-0.618-0.406-1.478-0.384-2.124,0.041c-0.325,0.21-0.612,0.504-0.852,0.868c-0.085,0.13-0.164,0.268-0.236,0.41l-0.82-1.075
			l-0.212,0.099c-0.531,0.242-1.068,0.557-1.6,0.937c-0.523,0.377-1.038,0.806-1.53,1.273c-0.489,0.468-0.953,0.979-1.376,1.522
			s-0.799,1.115-1.111,1.699c-0.317,0.586-0.572,1.189-0.756,1.788c-0.188,0.611-0.283,1.217-0.283,1.805
			c0,0.595,0.093,1.14,0.271,1.619c0.181,0.481,0.438,0.907,0.77,1.261c0.328,0.354,0.729,0.631,1.188,0.818
			c0.456,0.188,0.956,0.284,1.487,0.284c0.505,0,1.06-0.086,1.647-0.257c0.587-0.17,1.185-0.444,1.776-0.816
			c0.59-0.37,1.174-0.853,1.738-1.435c0.523-0.537,1.023-1.191,1.487-1.94c0.146,0.021,0.305,0.031,0.478,0.031
			c0.688,0,1.346-0.163,1.959-0.487c0.61-0.323,1.206-0.894,1.769-1.692l0.163-0.228L103.725,18.934z M97.706,14.705
			c-0.096,0.216-0.181,0.446-0.249,0.69c-0.132,0.46-0.197,0.96-0.197,1.476c0,0.51,0.046,1.014,0.132,1.502
			c0.087,0.493,0.221,0.956,0.397,1.382c0.177,0.433,0.399,0.822,0.661,1.162c0.202,0.26,0.429,0.481,0.677,0.664
			c-0.323,0.439-0.665,0.86-1.016,1.254c-0.413,0.461-0.846,0.865-1.29,1.199c-0.438,0.331-0.893,0.597-1.351,0.791
			c-0.447,0.186-0.901,0.278-1.354,0.278c-0.553,0-0.946-0.154-1.206-0.474c-0.27-0.332-0.407-0.821-0.407-1.459
			c0-0.745,0.156-1.53,0.463-2.329c0.311-0.816,0.714-1.611,1.201-2.363c0.486-0.755,1.039-1.463,1.635-2.099
			c0.598-0.636,1.191-1.168,1.771-1.583L97.706,14.705z M102.608,21.179c-0.526,0.279-1.093,0.423-1.686,0.423
			c-0.21,0-0.396-0.021-0.551-0.062l-0.212-0.053l-0.112,0.188c-0.466,0.786-0.976,1.462-1.509,2.011
			c-0.53,0.549-1.079,1.001-1.63,1.345c-0.547,0.343-1.094,0.597-1.625,0.752c-1.069,0.309-1.982,0.309-2.749-0.008
			c-0.38-0.156-0.712-0.385-0.985-0.678c-0.273-0.297-0.492-0.654-0.649-1.067c-0.153-0.415-0.232-0.889-0.232-1.414
			c0-0.527,0.087-1.078,0.258-1.633c0.175-0.564,0.413-1.129,0.71-1.68c0.301-0.558,0.657-1.104,1.061-1.62
			c0.407-0.52,0.85-1.012,1.319-1.459c0.475-0.449,0.968-0.86,1.47-1.221c0.429-0.306,0.861-0.568,1.29-0.781l0.216,0.283
			c-0.53,0.405-1.071,0.901-1.612,1.475c-0.622,0.663-1.196,1.396-1.699,2.181c-0.51,0.788-0.933,1.618-1.261,2.472
			c-0.329,0.867-0.498,1.723-0.498,2.539c0,0.773,0.182,1.389,0.537,1.825c0.372,0.458,0.931,0.691,1.66,0.691
			c0.531,0,1.06-0.109,1.575-0.325c0.506-0.213,1.003-0.502,1.481-0.862c0.474-0.357,0.934-0.787,1.372-1.276
			c0.432-0.484,0.848-1.007,1.235-1.552l0.184-0.259l-0.273-0.164c-0.291-0.169-0.553-0.4-0.775-0.692
			c-0.23-0.299-0.429-0.645-0.586-1.028c-0.159-0.388-0.281-0.813-0.362-1.262c-0.08-0.454-0.12-0.924-0.12-1.4
			c0-0.463,0.058-0.909,0.174-1.317c0.114-0.407,0.275-0.767,0.478-1.071c0.197-0.296,0.425-0.532,0.683-0.699
			c0.462-0.305,1.052-0.326,1.483-0.043c0.208,0.138,0.387,0.333,0.532,0.578c0.151,0.258,0.271,0.574,0.354,0.936
			c0.084,0.372,0.128,0.776,0.128,1.2c0,0.321-0.027,0.681-0.083,1.07c-0.053,0.391-0.134,0.792-0.238,1.19
			c-0.102,0.4-0.229,0.8-0.373,1.183c-0.146,0.378-0.314,0.72-0.504,1.016l-0.22,0.342l0.391-0.043
			c0.069,0.018,0.14-0.118,0.209-0.118h0.151c0.336,0,0.649,0.11,0.927,0.044c0.287-0.067,0.559-0.107,0.802-0.26
			c0.24-0.146,0.477-0.308,0.694-0.543c0.153-0.167,0.303-0.341,0.448-0.556l0.13,0.109
			C103.55,20.491,103.078,20.929,102.608,21.179z"/>
		<path fill="#FF594F" d="M101.115,18.458c0.098-0.39,0.169-0.763,0.21-1.105c0.04-0.342,0.06-0.646,0.06-0.903
			c0-0.354-0.03-0.684-0.089-0.985c-0.063-0.301-0.146-0.567-0.25-0.796c-0.112-0.248-0.258-0.445-0.431-0.592
			c-0.435-0.362-1.015-0.306-1.457,0.045c-0.223,0.175-0.413,0.412-0.564,0.699c-0.147,0.274-0.264,0.594-0.341,0.951
			c-0.076,0.348-0.115,0.719-0.115,1.097c0,0.34,0.027,0.712,0.088,1.105c0.058,0.397,0.151,0.791,0.279,1.165
			c0.132,0.378,0.299,0.735,0.5,1.062c0.214,0.346,0.483,0.623,0.8,0.826l0.271,0.173l0.147-0.285
			c0.207-0.401,0.386-0.82,0.529-1.243C100.895,19.256,101.017,18.848,101.115,18.458z M100.549,18.318
			c-0.095,0.371-0.213,0.765-0.349,1.162c-0.098,0.286-0.212,0.572-0.34,0.852c-0.134-0.124-0.252-0.271-0.356-0.438
			c-0.179-0.288-0.328-0.606-0.444-0.944c-0.116-0.34-0.202-0.697-0.256-1.06c-0.055-0.364-0.082-0.708-0.082-1.02
			c0-0.336,0.035-0.664,0.102-0.972c0.069-0.303,0.166-0.573,0.285-0.803c0.114-0.216,0.256-0.389,0.413-0.513
			c0.138-0.11,0.283-0.166,0.441-0.166c0.1,0,0.188,0.036,0.274,0.11c0.108,0.087,0.199,0.218,0.277,0.388
			c0.085,0.187,0.154,0.411,0.205,0.667c0.053,0.264,0.08,0.555,0.08,0.87c0,0.233-0.02,0.515-0.057,0.833
			C100.704,17.602,100.639,17.95,100.549,18.318z"/>
	</g>
	<path fill="#FF594F" d="M121.825,2.662l-0.167,0.173c-0.566,0.591-1.131,1.231-1.676,1.907c-0.543,0.671-1.072,1.365-1.569,2.059
		c-0.494,0.692-0.968,1.386-1.406,2.069c-0.44,0.681-0.842,1.326-1.202,1.929c-0.361,0.605-0.677,1.152-0.947,1.645
		c-0.189,0.345-0.354,0.65-0.488,0.91c-0.196-0.125-0.438-0.25-0.724-0.373c-0.458-0.197-1.059-0.294-1.833-0.294
		c-0.58,0-1.202,0.104-1.853,0.316c-0.642,0.209-1.286,0.504-1.92,0.878c-0.633,0.374-1.249,0.834-1.827,1.367
		c-0.582,0.536-1.104,1.143-1.554,1.806c-0.45,0.665-0.814,1.395-1.08,2.166c-0.266,0.777-0.401,1.611-0.401,2.47
		c0,0.786,0.14,1.457,0.419,1.998c0.275,0.533,0.626,0.972,1.039,1.298c0.411,0.325,0.855,0.561,1.323,0.693
		c0.456,0.129,0.883,0.195,1.269,0.195c0.756,0,1.565-0.249,2.405-0.738c0.692-0.404,1.408-0.979,2.133-1.707
		c0.068,0.257,0.163,0.482,0.283,0.68c0.198,0.328,0.437,0.594,0.704,0.785c0.263,0.19,0.555,0.323,0.865,0.398
		c0.91,0.224,1.705,0.104,2.419-0.229c0.466-0.218,0.898-0.504,1.284-0.848c0.376-0.336,0.726-0.716,1.038-1.129
		c0.31-0.402,0.587-0.812,0.828-1.214c0.236-0.396,0.451-0.761,0.636-1.094c0.183-0.327,0.336-0.592,0.458-0.792l0.138-0.223
		l-1.065-0.828l-0.174,0.267c-0.147,0.229-0.318,0.507-0.513,0.838c-0.191,0.322-0.399,0.662-0.628,1.019
		c-0.222,0.352-0.47,0.71-0.731,1.063c-0.25,0.343-0.523,0.651-0.809,0.92c-0.275,0.263-0.57,0.481-0.867,0.648
		c-0.277,0.156-0.561,0.231-0.859,0.231c-0.25,0-0.431-0.082-0.57-0.258c-0.106-0.135-0.232-0.44-0.232-1.15
		c0-0.334,0.035-0.741,0.106-1.213c0.068-0.476,0.196-1.043,0.38-1.691c0.183-0.655,0.435-1.408,0.749-2.244
		c0.316-0.834,0.726-1.803,1.216-2.871c0.309-0.688,0.67-1.415,1.075-2.163c0.405-0.751,0.828-1.504,1.259-2.242
		s0.861-1.456,1.292-2.15c0.432-0.694,0.832-1.327,1.204-1.899c0.368-0.571,0.692-1.064,0.974-1.479
		c0.277-0.416,0.481-0.713,0.605-0.892L123,3.422L121.825,2.662z M106.07,23.825c-0.313-0.419-0.472-1.023-0.472-1.798
		c0-0.596,0.096-1.21,0.283-1.825c0.187-0.622,0.45-1.229,0.78-1.801c0.333-0.574,0.724-1.123,1.171-1.628
		c0.442-0.501,0.922-0.945,1.426-1.312c0.501-0.368,1.028-0.661,1.571-0.875c0.531-0.21,1.056-0.316,1.567-0.316
		c0.314,0,0.604,0.056,0.852,0.167c0.181,0.083,0.328,0.188,0.444,0.317c-0.65,1.414-1.145,2.687-1.465,3.78
		c-0.322,1.102-0.521,2.08-0.584,2.907c-0.455,0.531-0.892,0.989-1.295,1.356c-0.423,0.388-0.831,0.705-1.213,0.946
		c-0.378,0.24-0.729,0.415-1.043,0.519C107.171,24.57,106.516,24.418,106.07,23.825z"/>
	<g>
		<path fill="#FF594F" d="M35.611,9.05c-0.048-0.022-0.128-0.063-0.222-0.087c-0.096-0.026-0.224-0.074-0.354-0.083
			c-0.131-0.015-0.28-0.021-0.443-0.009c-0.158,0.011-0.317,0.046-0.49,0.09c-0.174,0.045-0.331,0.118-0.497,0.198
			c-0.166,0.084-0.315,0.189-0.465,0.303c-0.143,0.117-0.278,0.247-0.401,0.386c-0.113,0.142-0.229,0.289-0.316,0.443
			c-0.091,0.156-0.169,0.316-0.224,0.481c-0.124,0.32-0.17,0.652-0.174,0.952c0,0.148,0.007,0.289,0.027,0.417
			c0.016,0.126,0.047,0.245,0.071,0.34c0.009,0.042,0.025,0.088,0.038,0.124c0.022-0.05,0.049-0.105,0.079-0.163
			c0.146-0.292,0.359-0.667,0.607-1.02c0.125-0.178,0.259-0.345,0.394-0.497c0.068-0.073,0.138-0.143,0.202-0.21
			c0.067-0.061,0.134-0.12,0.192-0.177c0.065-0.047,0.125-0.09,0.178-0.132c0.05-0.041,0.102-0.063,0.141-0.09
			c0.079-0.047,0.126-0.075,0.126-0.075s-0.043,0.031-0.12,0.084c-0.036,0.029-0.087,0.058-0.132,0.103
			c-0.05,0.041-0.104,0.09-0.165,0.141c-0.055,0.058-0.113,0.122-0.178,0.187c-0.058,0.071-0.118,0.145-0.181,0.221
			c-0.118,0.16-0.238,0.334-0.346,0.516c-0.216,0.364-0.393,0.749-0.513,1.04c-0.034,0.083-0.062,0.156-0.088,0.223
			c0.054-0.014,0.117-0.03,0.187-0.056c0.09-0.031,0.205-0.063,0.316-0.108c0.113-0.045,0.236-0.095,0.36-0.155
			c0.125-0.057,0.244-0.125,0.371-0.195c0.124-0.072,0.243-0.154,0.358-0.238c0.112-0.087,0.227-0.175,0.33-0.272
			c0.101-0.101,0.203-0.193,0.292-0.304c0.181-0.207,0.336-0.429,0.462-0.665c0.064-0.113,0.121-0.24,0.174-0.358
			c0.056-0.114,0.1-0.243,0.146-0.358c0.049-0.117,0.088-0.235,0.128-0.35c0.04-0.115,0.075-0.218,0.104-0.303
			c0.035-0.084,0.057-0.169,0.075-0.223c0.02-0.059,0.027-0.087,0.027-0.087S35.662,9.073,35.611,9.05"/>
		<path fill="#FF594F" d="M31.583,11.65c-0.179-0.123-0.346-0.26-0.499-0.393c-0.072-0.072-0.142-0.138-0.208-0.199
			c-0.063-0.07-0.121-0.135-0.178-0.194c-0.047-0.065-0.091-0.125-0.131-0.178c-0.042-0.049-0.065-0.103-0.089-0.141
			c-0.051-0.08-0.078-0.125-0.078-0.125s0.032,0.042,0.085,0.121c0.028,0.038,0.056,0.085,0.1,0.131
			c0.043,0.05,0.094,0.105,0.144,0.165c0.062,0.054,0.121,0.114,0.188,0.178c0.07,0.057,0.146,0.118,0.22,0.18
			c0.16,0.119,0.336,0.239,0.517,0.346c0.075,0.044,0.151,0.084,0.229,0.125c0.023-0.408,0.105-0.812,0.232-1.179
			c-0.073-0.095-0.146-0.184-0.226-0.269c-0.1-0.102-0.192-0.205-0.3-0.293c-0.208-0.182-0.433-0.336-0.667-0.461
			c-0.11-0.065-0.239-0.123-0.355-0.173c-0.114-0.056-0.244-0.101-0.361-0.148c-0.116-0.044-0.233-0.088-0.348-0.125
			c-0.115-0.043-0.218-0.08-0.304-0.109c-0.082-0.032-0.171-0.055-0.222-0.074c-0.059-0.019-0.089-0.026-0.089-0.026
			s-0.019,0.027-0.042,0.079C29.18,8.934,29.14,9.014,29.115,9.11c-0.024,0.093-0.07,0.221-0.083,0.352
			c-0.015,0.133-0.019,0.281-0.008,0.443c0.011,0.159,0.046,0.319,0.091,0.492c0.043,0.17,0.117,0.329,0.199,0.496
			c0.082,0.167,0.188,0.316,0.302,0.465c0.116,0.144,0.247,0.277,0.385,0.399c0.144,0.114,0.29,0.229,0.447,0.317
			c0.154,0.092,0.314,0.17,0.479,0.227c0.323,0.12,0.655,0.167,0.953,0.173c0.012,0,0.023,0,0.035-0.002
			c-0.03-0.208-0.043-0.419-0.04-0.632C31.781,11.783,31.682,11.721,31.583,11.65"/>
	</g>
</g>
</svg>
